{
.appVersion = "1141";
DisplayStrings = (
"aáâoäàåã"
);
copyright = "Copyright (c) 2009 by Designtown. All rights reserved.";
customParameters = (
{
name = macintoshFONDFamilyID;
value = 128;
},
{
name = macintoshFONDName;
value = "Expletus Sans";
},
{
name = openTypeHeadFlags;
value = (
);
},
{
name = description;
value = "Copyright (c) 2009 by Designtown. All rights reserved.";
},
{
name = openTypeNameLicense;
value = "SIL Open Font License";
},
{
name = openTypeNameLicenseURL;
value = "http://scripts.sil.org/cms/scripts/page.php?site_id=nrsi&id=OFL";
},
{
name = openTypeNameSampleText;
value = "";
},
{
name = openTypeNameUniqueID;
value = "Designtown: Expletus Sans: 2009";
},
{
name = openTypeNameVersion;
value = "Version 7.028";
},
{
name = codePageRanges;
value = (
1252
);
},
{
name = openTypeOS2FamilyClass;
value = (
0,
0
);
},
{
name = openTypeOS2Panose;
value = (
2,
0,
0,
0,
0,
0,
0,
0,
0,
0
);
},
{
name = openTypeOS2Selection;
value = (
);
},
{
name = openTypeOS2StrikeoutPosition;
value = 250;
},
{
name = openTypeOS2StrikeoutSize;
value = 50;
},
{
name = openTypeOS2SubscriptXOffset;
value = 0;
},
{
name = openTypeOS2SubscriptXSize;
value = 700;
},
{
name = openTypeOS2SubscriptYOffset;
value = 140;
},
{
name = openTypeOS2SubscriptYSize;
value = 650;
},
{
name = openTypeOS2SuperscriptXOffset;
value = 0;
},
{
name = openTypeOS2SuperscriptXSize;
value = 700;
},
{
name = openTypeOS2SuperscriptYOffset;
value = 477;
},
{
name = openTypeOS2SuperscriptYSize;
value = 650;
},
{
name = fsType;
value = (
2
);
},
{
name = unicodeRanges;
value = (
0,
1,
2,
3,
5,
31,
33,
35
);
},
{
name = vendorID;
value = pyrs;
},
{
name = blueFuzz;
value = 1;
},
{
name = blueScale;
value = 0.03963;
},
{
name = blueShift;
value = 7;
},
{
name = postscriptForceBold;
value = 0;
},
{
name = postscriptIsFixedPitch;
value = 0;
},
{
name = postscriptUniqueID;
value = -1;
},
{
name = trademark;
value = "Expletus Sans is a trademark of Designtown.";
},
{
name = year;
value = 2009;
},
{

glyphs = (
{
glyphname = A;
lastChange = "2018-08-09 20:28:15 +0000";
layers = (
{
hints = (
{
horizontal = 1;
origin = "{0, 14}";
target = up;
type = BottomGhost;
},
{
horizontal = 1;
origin = "{0, 12}";
target = "{0, 7}";
type = Stem;
},
{
horizontal = 1;
origin = "{0, 15}";
target = down;
type = TopGhost;
}
);
layerId = "BAA2CE79-BA31-4701-835E-3D9478C3F4B2";
paths = (
{
closed = 1;
nodes = (
"130 0 LINE",
"190 174 LINE",
"442 174 LINE",
"428 212 OFFCURVE",
"405 246 OFFCURVE",
"357 246 CURVE SMOOTH",
"222 246 LINE",
"210 244 LINE",
"221 265 LINE",
"333 586 LINE",
"340 615 LINE",
"347 586 LINE",
"550 0 LINE",
"652 0 LINE",
"390 727 LINE {name = hr00;}",
"297 727 LINE",
"35 0 LINE"
);
}
);
width = 687;
},
{
hints = (
{
horizontal = 1;
origin = "{0, 14}";
target = up;
type = BottomGhost;
},
{
horizontal = 1;
origin = "{0, 12}";
target = "{0, 7}";
type = Stem;
},
{
horizontal = 1;
origin = "{0, 15}";
target = down;
type = TopGhost;
}
);
layerId = "3BBF7C5C-CA4C-45AB-AE18-0528A0ACCA90";
paths = (
{
closed = 1;
nodes = (
"130 0 LINE",
"211 174 LINE",
"463 174 LINE",
"454 212 OFFCURVE",
"435 246 OFFCURVE",
"387 246 CURVE SMOOTH",
"252 246 LINE",
"239 244 LINE",
"253 265 LINE",
"404 586 LINE",
"415 615 LINE",
"418 586 LINE",
"550 0 LINE",
"652 0 LINE",
"479 727 LINE {name = hr00;}",
"386 727 LINE",
"35 0 LINE"
);
}
);
width = 687;
},
{
hints = (
{
horizontal = 1;
origin = "{0, 1}";
target = up;
type = BottomGhost;
},
{
horizontal = 1;
origin = "{0, 16}";
target = "{0, 11}";
type = Stem;
},
{
horizontal = 1;
origin = "{0, 2}";
target = down;
type = TopGhost;
}
);
layerId = "58254875-FB9E-4C1D-8B15-704836B9A7CF";
paths = (
{
closed = 1;
nodes = (
"171 0 LINE",
"224 159 LINE {name = hr00;}",
"441 159 LINE",
"427 203 OFFCURVE",
"399 262 OFFCURVE",
"341 262 CURVE SMOOTH",
"265 262 LINE",
"250 260 LINE",
"262 280 LINE",
"347 539 LINE",
"356 578 LINE",
"364 541 LINE",
"544 0 LINE",
"692 0 LINE",
"431 727 LINE",
"291 727 LINE",
"30 0 LINE"
);
}
);
width = 722;
},
{
hints = (
{
horizontal = 1;
origin = "{0, 1}";
target = up;
type = BottomGhost;
},
{
horizontal = 1;
origin = "{0, 16}";
target = "{0, 11}";
type = Stem;
},
{
horizontal = 1;
origin = "{0, 2}";
target = down;
type = TopGhost;
}
);
layerId = "5E1C92F4-866D-4CC0-BA00-538F5374015A";
paths = (
{
closed = 1;
nodes = (
"171 0 LINE",
"243 159 LINE {name = hr00;}",
"460 159 LINE",
"451 203 OFFCURVE",
"431 262 OFFCURVE",
"373 262 CURVE SMOOTH",
"297 262 LINE",
"281 260 LINE",
"296 280 LINE",
"413 539 LINE",
"426 578 LINE",
"430 541 LINE",
"544 0 LINE",
"692 0 LINE",
"520 727 LINE",
"380 727 LINE",
"30 0 LINE"
);
}
);
width = 722;
}
);
unicode = 0041;
userData = {
com.typemytype.robofont.guides = (
{
angle = 90;
isGlobal = 0;
magnetic = 5;
x = 255;
y = 0;
}
);
};
},
{
glyphname = Aacute;
lastChange = "2018-08-09 20:33:40 +0000";
layers = (
{
hints = (
{
horizontal = 1;
origin = "{0, 12}";
target = up;
type = BottomGhost;
},
{
horizontal = 1;
origin = "{0, 10}";
target = "{0, 5}";
type = Stem;
},
{
horizontal = 1;
origin = "{0, 13}";
target = down;
type = TopGhost;
},
{
horizontal = 1;
origin = "{1, 3}";
target = up;
type = BottomGhost;
}
);
layerId = "BAA2CE79-BA31-4701-835E-3D9478C3F4B2";
paths = (
{
closed = 1;
nodes = (
"130 0 LINE",
"190 174 LINE",
"442 174 LINE",
"428 212 OFFCURVE",
"405 246 OFFCURVE",
"357 246 CURVE SMOOTH",
"222 246 LINE",
"210 244 LINE",
"221 265 LINE",
"340 605 LINE",
"550 0 LINE",
"652 0 LINE",
"390 727 LINE {name = hr00;}",
"297 727 LINE",
"35 0 LINE"
);
},
{
closed = 1;
nodes = (
"328 758 OFFCURVE",
"365 763 OFFCURVE",
"392 792 CURVE",
"480 890 LINE",
"383 890 LINE",
"294 766 LINE"
);
}
);
width = 687;
},
{
hints = (
{
horizontal = 1;
origin = "{0, 12}";
target = up;
type = BottomGhost;
},
{
horizontal = 1;
origin = "{0, 10}";
target = "{0, 5}";
type = Stem;
},
{
horizontal = 1;
origin = "{0, 13}";
target = down;
type = TopGhost;
},
{
horizontal = 1;
origin = "{1, 3}";
target = up;
type = BottomGhost;
}
);
layerId = "3BBF7C5C-CA4C-45AB-AE18-0528A0ACCA90";
paths = (
{
closed = 1;
nodes = (
"130 0 LINE",
"211 174 LINE",
"463 174 LINE",
"454 212 OFFCURVE",
"435 246 OFFCURVE",
"387 246 CURVE SMOOTH",
"252 246 LINE",
"239 244 LINE",
"253 265 LINE",
"414 605 LINE",
"550 0 LINE",
"652 0 LINE",
"479 727 LINE {name = hr00;}",
"386 727 LINE",
"35 0 LINE"
);
},
{
closed = 1;
nodes = (
"421 758 OFFCURVE",
"458 763 OFFCURVE",
"489 792 CURVE",
"589 890 LINE",
"492 890 LINE",
"388 766 LINE"
);
}
);
width = 687;
},
{
hints = (
{
horizontal = 1;
origin = "{1, 1}";
target = up;
type = BottomGhost;
},
{
horizontal = 1;
origin = "{1, 16}";
target = "{1, 11}";
type = Stem;
},
{
horizontal = 1;
origin = "{1, 2}";
target = down;
type = TopGhost;
},
{
horizontal = 1;
origin = "{0, 3}";
target = up;
type = BottomGhost;
}
);
layerId = "58254875-FB9E-4C1D-8B15-704836B9A7CF";
paths = (
{
closed = 1;
nodes = (
"153 0 LINE",
"206 159 LINE",
"423 159 LINE",
"409 203 OFFCURVE",
"381 262 OFFCURVE",
"323 262 CURVE SMOOTH",
"247 262 LINE",
"232 260 LINE",
"244 280 LINE",
"329 539 LINE",
"338 578 LINE",
"346 541 LINE",
"526 0 LINE",
"674 0 LINE",
"413 727 LINE",
"273 727 LINE",
"12 0 LINE"
);
},
{
closed = 1;
nodes = (
"313 756 OFFCURVE",
"386 763 OFFCURVE",
"426 808 CURVE {name = hr00;}",
"498 890 LINE",
"365 890 LINE",
"279 765 LINE"
);
}
);
width = 687;
},
{
hints = (
{
horizontal = 1;
origin = "{1, 1}";
target = up;
type = BottomGhost;
},
{
horizontal = 1;
origin = "{1, 16}";
target = "{1, 11}";
type = Stem;
},
{
horizontal = 1;
origin = "{1, 2}";
target = down;
type = TopGhost;
},
{
horizontal = 1;
origin = "{0, 3}";
target = up;
type = BottomGhost;
}
);
layerId = "5E1C92F4-866D-4CC0-BA00-538F5374015A";
paths = (
{
closed = 1;
nodes = (
"153 0 LINE",
"225 159 LINE",
"442 159 LINE",
"433 203 OFFCURVE",
"413 262 OFFCURVE",
"355 262 CURVE SMOOTH",
"279 262 LINE",
"263 260 LINE",
"278 280 LINE",
"395 539 LINE",
"408 578 LINE",
"412 541 LINE",
"526 0 LINE",
"674 0 LINE",
"502 727 LINE",
"362 727 LINE",
"12 0 LINE"
);
},
{
closed = 1;
nodes = (
"405 756 OFFCURVE",
"479 763 OFFCURVE",
"525 808 CURVE {name = hr00;}",
"607 890 LINE",
"474 890 LINE",
"372 765 LINE"
);
}
);
width = 687;
}
);
unicode = 00C1;
userData = {
com.typemytype.robofont.guides = (
{
angle = 90;
isGlobal = 0;
magnetic = 5;
x = 255;
y = 0;
}
);
};
},
{
glyphname = Acircumflex;
lastChange = "2018-08-09 20:33:40 +0000";
layers = (
{
hints = (
{
horizontal = 1;
origin = "{0, 12}";
target = up;
type = BottomGhost;
},
{
horizontal = 1;
origin = "{0, 10}";
target = "{0, 5}";
type = Stem;
},
{
horizontal = 1;
origin = "{0, 13}";
target = down;
type = TopGhost;
},
{
horizontal = 1;
origin = "{1, 5}";
target = up;
type = BottomGhost;
}
);
layerId = "BAA2CE79-BA31-4701-835E-3D9478C3F4B2";
paths = (
{
closed = 1;
nodes = (
"130 0 LINE",
"190 174 LINE",
"442 174 LINE",
"428 212 OFFCURVE",
"405 246 OFFCURVE",
"357 246 CURVE SMOOTH",
"222 246 LINE",
"210 244 LINE",
"221 265 LINE",
"340 605 LINE",
"550 0 LINE",
"652 0 LINE",
"390 727 LINE {name = hr00;}",
"297 727 LINE",
"35 0 LINE"
);
},
{
closed = 1;
nodes = (
"340 821 LINE",
"428 762 LINE",
"480 770 LINE",
"369 890 LINE",
"312 890 LINE",
"203 770 LINE",
"252 761 LINE"
);
}
);
width = 687;
},
{
hints = (
{
horizontal = 1;
origin = "{0, 12}";
target = up;
type = BottomGhost;
},
{
horizontal = 1;
origin = "{0, 10}";
target = "{0, 5}";
type = Stem;
},
{
horizontal = 1;
origin = "{0, 13}";
target = down;
type = TopGhost;
},
{
horizontal = 1;
origin = "{1, 5}";
target = up;
type = BottomGhost;
}
);
layerId = "3BBF7C5C-CA4C-45AB-AE18-0528A0ACCA90";
paths = (
{
closed = 1;
nodes = (
"130 0 LINE",
"211 174 LINE",
"463 174 LINE",
"454 212 OFFCURVE",
"435 246 OFFCURVE",
"387 246 CURVE SMOOTH",
"252 246 LINE",
"239 244 LINE",
"253 265 LINE",
"414 605 LINE",
"550 0 LINE",
"652 0 LINE",
"479 727 LINE {name = hr00;}",
"386 727 LINE",
"35 0 LINE"
);
},
{
closed = 1;
nodes = (
"440 821 LINE",
"521 762 LINE",
"574 770 LINE",
"478 890 LINE",
"421 890 LINE",
"297 770 LINE",
"345 761 LINE"
);
}
);
width = 687;
},
{
hints = (
{
horizontal = 1;
origin = "{1, 1}";
target = up;
type = BottomGhost;
},
{
horizontal = 1;
origin = "{1, 16}";
target = "{1, 11}";
type = Stem;
},
{
horizontal = 1;
origin = "{1, 2}";
target = down;
type = TopGhost;
},
{
horizontal = 1;
origin = "{0, 5}";
target = up;
type = BottomGhost;
}
);
layerId = "58254875-FB9E-4C1D-8B15-704836B9A7CF";
paths = (
{
closed = 1;
nodes = (
"155 0 LINE",
"208 159 LINE",
"425 159 LINE",
"411 203 OFFCURVE",
"383 262 OFFCURVE",
"325 262 CURVE SMOOTH",
"249 262 LINE",
"234 260 LINE",
"246 280 LINE",
"331 539 LINE",
"340 578 LINE",
"348 541 LINE",
"528 0 LINE",
"676 0 LINE",
"415 727 LINE",
"275 727 LINE",
"14 0 LINE"
);
},
{
closed = 1;
nodes = (
"340 812 LINE",
"418 756 LINE",
"499 774 LINE",
"392 890 LINE {name = hr00;}",
"289 890 LINE",
"184 774 LINE",
"264 756 LINE"
);
}
);
width = 687;
},
{
hints = (
{
horizontal = 1;
origin = "{1, 1}";
target = up;
type = BottomGhost;
},
{
horizontal = 1;
origin = "{1, 16}";
target = "{1, 11}";
type = Stem;
},
{
horizontal = 1;
origin = "{1, 2}";
target = down;
type = TopGhost;
},
{
horizontal = 1;
origin = "{0, 5}";
target = up;
type = BottomGhost;
}
);
layerId = "5E1C92F4-866D-4CC0-BA00-538F5374015A";
paths = (
{
closed = 1;
nodes = (
"155 0 LINE",
"227 159 LINE",
"444 159 LINE",
"435 203 OFFCURVE",
"415 262 OFFCURVE",
"357 262 CURVE SMOOTH",
"281 262 LINE",
"265 260 LINE",
"280 280 LINE",
"397 539 LINE",
"410 578 LINE",
"414 541 LINE",
"528 0 LINE",
"676 0 LINE",
"504 727 LINE",
"364 727 LINE",
"14 0 LINE"
);
},
{
closed = 1;
nodes = (
"439 812 LINE",
"510 756 LINE",
"594 774 LINE",
"501 890 LINE {name = hr00;}",
"398 890 LINE",
"279 774 LINE",
"356 756 LINE"
);
}
);
width = 687;
}
);
unicode = 00C2;
userData = {
com.typemytype.robofont.guides = (
{
angle = 90;
isGlobal = 0;
magnetic = 5;
x = 255;
y = 0;
}
);
};
},
{
glyphname = Adieresis;
lastChange = "2018-08-09 20:33:40 +0000";
layers = (
{
hints = (
{
horizontal = 1;
origin = "{0, 12}";
target = up;
type = BottomGhost;
},
{
horizontal = 1;
origin = "{0, 10}";
target = "{0, 5}";
type = Stem;
},
{
horizontal = 1;
origin = "{0, 13}";
target = down;
type = TopGhost;
},
{
horizontal = 1;
origin = "{1, 8}";
target = "{1, 2}";
type = Stem;
},
{
origin = "{1, 11}";
target = "{1, 5}";
type = Stem;
},
{
origin = "{2, 11}";
target = "{2, 5}";
type = Stem;
}
);
layerId = "BAA2CE79-BA31-4701-835E-3D9478C3F4B2";
paths = (
{
closed = 1;
nodes = (
"130 0 LINE",
"190 174 LINE",
"442 174 LINE",
"428 212 OFFCURVE",
"405 246 OFFCURVE",
"357 246 CURVE SMOOTH",
"222 246 LINE",
"210 244 LINE",
"221 265 LINE",
"340 605 LINE",
"550 0 LINE",
"652 0 LINE",
"390 727 LINE {name = hr00;}",
"297 727 LINE",
"35 0 LINE"
);
},
{
closed = 1;
nodes = (
"275 788 OFFCURVE",
"299 811 OFFCURVE",
"299 840 CURVE SMOOTH",
"299 869 OFFCURVE",
"275 892 OFFCURVE",
"246 892 CURVE SMOOTH",
"218 892 OFFCURVE",
"194 869 OFFCURVE",
"194 840 CURVE SMOOTH",
"194 811 OFFCURVE",
"218 788 OFFCURVE",
"246 788 CURVE SMOOTH"
);
},
{
closed = 1;
nodes = (
"469 788 OFFCURVE",
"493 811 OFFCURVE",
"493 840 CURVE SMOOTH",
"493 869 OFFCURVE",
"469 892 OFFCURVE",
"441 892 CURVE SMOOTH",
"412 892 OFFCURVE",
"388 869 OFFCURVE",
"388 840 CURVE SMOOTH",
"388 811 OFFCURVE",
"412 788 OFFCURVE",
"441 788 CURVE SMOOTH"
);
}
);
width = 687;
},
{
hints = (
{
horizontal = 1;
origin = "{0, 12}";
target = up;
type = BottomGhost;
},
{
horizontal = 1;
origin = "{0, 10}";
target = "{0, 5}";
type = Stem;
},
{
horizontal = 1;
origin = "{0, 13}";
target = down;
type = TopGhost;
},
{
horizontal = 1;
origin = "{1, 8}";
target = "{1, 2}";
type = Stem;
}
);
layerId = "3BBF7C5C-CA4C-45AB-AE18-0528A0ACCA90";
paths = (
{
closed = 1;
nodes = (
"130 0 LINE",
"211 174 LINE",
"463 174 LINE",
"454 212 OFFCURVE",
"435 246 OFFCURVE",
"387 246 CURVE SMOOTH",
"252 246 LINE",
"239 244 LINE",
"253 265 LINE",
"414 605 LINE",
"550 0 LINE",
"652 0 LINE",
"479 727 LINE {name = hr00;}",
"386 727 LINE",
"35 0 LINE"
);
},
{
closed = 1;
nodes = (
"371 788 OFFCURVE",
"398 811 OFFCURVE",
"402 840 CURVE SMOOTH",
"405 869 OFFCURVE",
"384 892 OFFCURVE",
"355 892 CURVE SMOOTH",
"327 892 OFFCURVE",
"300 869 OFFCURVE",
"297 840 CURVE SMOOTH",
"293 811 OFFCURVE",
"314 788 OFFCURVE",
"342 788 CURVE SMOOTH"
);
},
{
closed = 1;
nodes = (
"565 788 OFFCURVE",
"592 811 OFFCURVE",
"596 840 CURVE SMOOTH",
"599 869 OFFCURVE",
"578 892 OFFCURVE",
"550 892 CURVE SMOOTH",
"521 892 OFFCURVE",
"494 869 OFFCURVE",
"491 840 CURVE SMOOTH",
"487 811 OFFCURVE",
"508 788 OFFCURVE",
"537 788 CURVE SMOOTH"
);
}
);
width = 687;
},
{
hints = (
{
horizontal = 1;
origin = "{2, 1}";
target = up;
type = BottomGhost;
},
{
horizontal = 1;
origin = "{2, 16}";
target = "{2, 11}";
type = Stem;
},
{
horizontal = 1;
origin = "{2, 2}";
target = down;
type = TopGhost;
},
{
horizontal = 1;
origin = "{0, 8}";
target = "{0, 2}";
type = Stem;
},
{
origin = "{0, 11}";
target = "{0, 5}";
type = Stem;
},
{
origin = "{1, 11}";
target = "{1, 5}";
type = Stem;
}
);
layerId = "58254875-FB9E-4C1D-8B15-704836B9A7CF";
paths = (
{
closed = 1;
nodes = (
"155 0 LINE",
"208 159 LINE",
"425 159 LINE",
"411 203 OFFCURVE",
"383 262 OFFCURVE",
"325 262 CURVE SMOOTH",
"249 262 LINE",
"234 260 LINE",
"246 280 LINE",
"331 539 LINE",
"340 578 LINE",
"348 541 LINE",
"528 0 LINE",
"676 0 LINE",
"415 727 LINE",
"275 727 LINE",
"14 0 LINE"
);
},
{
closed = 1;
nodes = (
"280 777 OFFCURVE",
"309 805 OFFCURVE",
"309 840 CURVE SMOOTH",
"309 875 OFFCURVE",
"280 903 OFFCURVE",
"245 903 CURVE SMOOTH",
"211 903 OFFCURVE",
"182 875 OFFCURVE",
"182 840 CURVE SMOOTH {name = hr00;}",
"182 805 OFFCURVE",
"211 777 OFFCURVE",
"245 777 CURVE SMOOTH"
);
},
{
closed = 1;
nodes = (
"475 777 OFFCURVE",
"504 805 OFFCURVE",
"504 840 CURVE SMOOTH",
"504 875 OFFCURVE",
"475 903 OFFCURVE",
"440 903 CURVE SMOOTH",
"406 903 OFFCURVE",
"377 875 OFFCURVE",
"377 840 CURVE SMOOTH",
"377 805 OFFCURVE",
"406 777 OFFCURVE",
"440 777 CURVE SMOOTH"
);
}
);
width = 687;
},
{
hints = (
{
horizontal = 1;
origin = "{2, 1}";
target = up;
type = BottomGhost;
},
{
horizontal = 1;
origin = "{2, 16}";
target = "{2, 11}";
type = Stem;
},
{
horizontal = 1;
origin = "{2, 2}";
target = down;
type = TopGhost;
},
{
horizontal = 1;
origin = "{0, 8}";
target = "{0, 2}";
type = Stem;
}
);
layerId = "5E1C92F4-866D-4CC0-BA00-538F5374015A";
paths = (
{
closed = 1;
nodes = (
"155 0 LINE",
"227 159 LINE",
"444 159 LINE",
"435 203 OFFCURVE",
"415 262 OFFCURVE",
"357 262 CURVE SMOOTH",
"281 262 LINE",
"265 260 LINE",
"280 280 LINE",
"397 539 LINE",
"410 578 LINE",
"414 541 LINE",
"528 0 LINE",
"676 0 LINE",
"504 727 LINE",
"364 727 LINE",
"14 0 LINE"
);
},
{
closed = 1;
nodes = (
"375 777 OFFCURVE",
"407 805 OFFCURVE",
"412 840 CURVE SMOOTH",
"416 875 OFFCURVE",
"390 903 OFFCURVE",
"355 903 CURVE SMOOTH",
"321 903 OFFCURVE",
"289 875 OFFCURVE",
"285 840 CURVE SMOOTH {name = hr00;}",
"280 805 OFFCURVE",
"306 777 OFFCURVE",
"340 777 CURVE SMOOTH"
);
},
{
closed = 1;
nodes = (
"570 777 OFFCURVE",
"602 805 OFFCURVE",
"607 840 CURVE SMOOTH",
"611 875 OFFCURVE",
"585 903 OFFCURVE",
"550 903 CURVE SMOOTH",
"516 903 OFFCURVE",
"484 875 OFFCURVE",
"480 840 CURVE SMOOTH",
"475 805 OFFCURVE",
"501 777 OFFCURVE",
"535 777 CURVE SMOOTH"
);
}
);
width = 687;
}
);
unicode = 00C4;
userData = {
com.typemytype.robofont.guides = (
{
angle = 90;
isGlobal = 0;
magnetic = 5;
x = 255;
y = 0;
}
);
};
},
{
glyphname = Agrave;
lastChange = "2018-08-09 20:33:40 +0000";
layers = (
{
hints = (
{
horizontal = 1;
origin = "{0, 12}";
target = up;
type = BottomGhost;
},
{
horizontal = 1;
origin = "{0, 10}";
target = "{0, 5}";
type = Stem;
},
{
horizontal = 1;
origin = "{0, 13}";
target = down;
type = TopGhost;
},
{
horizontal = 1;
origin = "{1, 5}";
target = up;
type = BottomGhost;
}
);
layerId = "BAA2CE79-BA31-4701-835E-3D9478C3F4B2";
paths = (
{
closed = 1;
nodes = (
"130 0 LINE",
"190 174 LINE",
"442 174 LINE",
"428 212 OFFCURVE",
"405 246 OFFCURVE",
"357 246 CURVE SMOOTH",
"222 246 LINE",
"210 244 LINE",
"221 265 LINE",
"340 605 LINE",
"550 0 LINE",
"652 0 LINE",
"390 727 LINE {name = hr00;}",
"297 727 LINE",
"35 0 LINE"
);
},
{
closed = 1;
nodes = (
"323 890 LINE",
"229 890 LINE",
"302 792 LINE",
"324 763 OFFCURVE",
"363 758 OFFCURVE",
"397 766 CURVE"
);
}
);
width = 687;
},
{
hints = (
{
horizontal = 1;
origin = "{0, 12}";
target = up;
type = BottomGhost;
},
{
horizontal = 1;
origin = "{0, 10}";
target = "{0, 5}";
type = Stem;
},
{
horizontal = 1;
origin = "{0, 13}";
target = down;
type = TopGhost;
},
{
horizontal = 1;
origin = "{1, 5}";
target = up;
type = BottomGhost;
}
);
layerId = "3BBF7C5C-CA4C-45AB-AE18-0528A0ACCA90";
paths = (
{
closed = 1;
nodes = (
"130 0 LINE",
"211 174 LINE",
"463 174 LINE",
"454 212 OFFCURVE",
"435 246 OFFCURVE",
"387 246 CURVE SMOOTH",
"252 246 LINE",
"239 244 LINE",
"253 265 LINE",
"414 605 LINE",
"550 0 LINE",
"652 0 LINE",
"479 727 LINE {name = hr00;}",
"386 727 LINE",
"35 0 LINE"
);
},
{
closed = 1;
nodes = (
"432 890 LINE",
"338 890 LINE",
"399 792 LINE",
"417 763 OFFCURVE",
"456 758 OFFCURVE",
"491 766 CURVE"
);
}
);
width = 687;
},
{
hints = (
{
horizontal = 1;
origin = "{1, 1}";
target = up;
type = BottomGhost;
},
{
horizontal = 1;
origin = "{1, 16}";
target = "{1, 11}";
type = Stem;
},
{
horizontal = 1;
origin = "{1, 2}";
target = down;
type = TopGhost;
},
{
horizontal = 1;
origin = "{0, 5}";
target = up;
type = BottomGhost;
}
);
layerId = "58254875-FB9E-4C1D-8B15-704836B9A7CF";
paths = (
{
closed = 1;
nodes = (
"155 0 LINE",
"208 159 LINE",
"425 159 LINE",
"411 203 OFFCURVE",
"383 262 OFFCURVE",
"325 262 CURVE SMOOTH",
"249 262 LINE",
"234 260 LINE",
"246 280 LINE",
"331 539 LINE",
"340 578 LINE",
"348 541 LINE",
"528 0 LINE",
"676 0 LINE",
"415 727 LINE",
"275 727 LINE",
"14 0 LINE"
);
},
{
closed = 1;
nodes = (
"343 890 LINE",
"210 890 LINE {name = hr00;}",
"271 808 LINE",
"305 762 OFFCURVE",
"383 756 OFFCURVE",
"417 765 CURVE"
);
}
);
width = 687;
},
{
hints = (
{
horizontal = 1;
origin = "{1, 1}";
target = up;
type = BottomGhost;
},
{
horizontal = 1;
origin = "{1, 16}";
target = "{1, 11}";
type = Stem;
},
{
horizontal = 1;
origin = "{1, 2}";
target = down;
type = TopGhost;
},
{
horizontal = 1;
origin = "{0, 5}";
target = up;
type = BottomGhost;
}
);
layerId = "5E1C92F4-866D-4CC0-BA00-538F5374015A";
paths = (
{
closed = 1;
nodes = (
"155 0 LINE",
"227 159 LINE",
"444 159 LINE",
"435 203 OFFCURVE",
"415 262 OFFCURVE",
"357 262 CURVE SMOOTH",
"281 262 LINE",
"265 260 LINE",
"280 280 LINE",
"397 539 LINE",
"410 578 LINE",
"414 541 LINE",
"528 0 LINE",
"676 0 LINE",
"504 727 LINE",
"364 727 LINE",
"14 0 LINE"
);
},
{
closed = 1;
nodes = (
"452 890 LINE",
"319 890 LINE {name = hr00;}",
"370 808 LINE",
"398 762 OFFCURVE",
"475 756 OFFCURVE",
"510 765 CURVE"
);
}
);
width = 687;
}
);
unicode = 00C0;
userData = {
com.typemytype.robofont.guides = (
{
angle = 90;
isGlobal = 0;
magnetic = 5;
x = 255;
y = 0;
}
);
};
},
{
glyphname = Aring;
lastChange = "2018-08-09 20:33:40 +0000";
layers = (
{
hints = (
{
horizontal = 1;
origin = "{0, 25}";
target = up;
type = BottomGhost;
},
{
horizontal = 1;
origin = "{0, 23}";
target = "{0, 18}";
type = Stem;
},
{
horizontal = 1;
origin = "{1, 5}";
target = "{0, 6}";
type = Stem;
},
{
origin = "{0, 3}";
target = "{1, 8}";
type = Stem;
},
{
origin = "{0, 12}";
target = "{0, 9}";
type = Stem;
}
);
layerId = "BAA2CE79-BA31-4701-835E-3D9478C3F4B2";
paths = (
{
closed = 1;
nodes = (
"130 0 LINE",
"190 174 LINE",
"442 174 LINE",
"428 212 OFFCURVE",
"405 246 OFFCURVE",
"357 246 CURVE SMOOTH",
"222 246 LINE",
"210 244 LINE",
"221 265 LINE",
"340 605 LINE",
"550 0 LINE",
"652 0 LINE",
"390 726 LINE",
"419 740 OFFCURVE",
"438 768 OFFCURVE",
"438 802 CURVE SMOOTH",
"438 854 OFFCURVE",
"400 891 OFFCURVE",
"341 891 CURVE SMOOTH",
"283 891 OFFCURVE",
"242 853 OFFCURVE",
"242 801 CURVE SMOOTH",
"242 766 OFFCURVE",
"262 737 OFFCURVE",
"295 723 CURVE",
"35 0 LINE {name = hr00;}"
);
},
{
closed = 1;
nodes = (
"311 752 OFFCURVE",
"292 776 OFFCURVE",
"292 801 CURVE SMOOTH",
"292 832 OFFCURVE",
"312 854 OFFCURVE",
"340 854 CURVE SMOOTH",
"371 854 OFFCURVE",
"390 832 OFFCURVE",
"390 803 CURVE SMOOTH",
"390 774 OFFCURVE",
"371 752 OFFCURVE",
"340 752 CURVE SMOOTH"
);
}
);
width = 687;
},
{
hints = (
{
horizontal = 1;
origin = "{0, 25}";
target = up;
type = BottomGhost;
},
{
horizontal = 1;
origin = "{0, 23}";
target = "{0, 18}";
type = Stem;
},
{
horizontal = 1;
origin = "{1, 5}";
target = "{0, 6}";
type = Stem;
}
);
layerId = "3BBF7C5C-CA4C-45AB-AE18-0528A0ACCA90";
paths = (
{
closed = 1;
nodes = (
"130 0 LINE",
"211 174 LINE",
"463 174 LINE",
"454 212 OFFCURVE",
"435 246 OFFCURVE",
"387 246 CURVE SMOOTH",
"252 246 LINE",
"239 244 LINE",
"253 265 LINE",
"414 605 LINE",
"550 0 LINE",
"652 0 LINE",
"479 726 LINE",
"509 740 OFFCURVE",
"532 768 OFFCURVE",
"536 802 CURVE SMOOTH",
"542 854 OFFCURVE",
"509 891 OFFCURVE",
"450 891 CURVE SMOOTH",
"392 891 OFFCURVE",
"346 853 OFFCURVE",
"340 801 CURVE SMOOTH",
"336 766 OFFCURVE",
"352 737 OFFCURVE",
"383 723 CURVE",
"35 0 LINE {name = hr00;}"
);
},
{
closed = 1;
nodes = (
"403 752 OFFCURVE",
"387 776 OFFCURVE",
"390 801 CURVE SMOOTH",
"394 832 OFFCURVE",
"416 854 OFFCURVE",
"444 854 CURVE SMOOTH",
"475 854 OFFCURVE",
"492 832 OFFCURVE",
"488 803 CURVE SMOOTH",
"485 774 OFFCURVE",
"463 752 OFFCURVE",
"432 752 CURVE SMOOTH"
);
}
);
width = 687;
},
{
hints = (
{
horizontal = 1;
origin = "{0, 1}";
target = up;
type = BottomGhost;
},
{
horizontal = 1;
origin = "{0, 27}";
target = "{0, 22}";
type = Stem;
},
{
horizontal = 1;
origin = "{1, 5}";
target = "{0, 8}";
type = Stem;
},
{
origin = "{0, 5}";
target = "{1, 8}";
type = Stem;
},
{
origin = "{1, 2}";
target = "{0, 11}";
type = Stem;
}
);
layerId = "58254875-FB9E-4C1D-8B15-704836B9A7CF";
paths = (
{
closed = 1;
nodes = (
"156 0 LINE",
"209 159 LINE {name = hr00;}",
"426 159 LINE",
"412 203 OFFCURVE",
"384 262 OFFCURVE",
"326 262 CURVE SMOOTH",
"248 262 LINE",
"235 260 LINE",
"247 280 LINE",
"334 545 LINE",
"341 574 LINE",
"348 546 LINE",
"529 0 LINE",
"677 0 LINE",
"417 724 LINE",
"441 741 OFFCURVE",
"456 767 OFFCURVE",
"456 798 CURVE SMOOTH",
"456 856 OFFCURVE",
"412 895 OFFCURVE",
"348 895 CURVE SMOOTH",
"285 895 OFFCURVE",
"237 853 OFFCURVE",
"237 797 CURVE SMOOTH",
"237 767 OFFCURVE",
"251 742 OFFCURVE",
"275 725 CURVE",
"15 0 LINE"
);
},
{
closed = 1;
nodes = (
"325 760 OFFCURVE",
"312 779 OFFCURVE",
"312 798 CURVE SMOOTH",
"312 822 OFFCURVE",
"325 839 OFFCURVE",
"347 839 CURVE SMOOTH",
"371 839 OFFCURVE",
"384 822 OFFCURVE",
"384 799 CURVE SMOOTH",
"384 777 OFFCURVE",
"371 760 OFFCURVE",
"347 760 CURVE SMOOTH"
);
}
);
width = 687;
},
{
hints = (
{
horizontal = 1;
origin = "{0, 1}";
target = up;
type = BottomGhost;
},
{
horizontal = 1;
origin = "{0, 27}";
target = "{0, 22}";
type = Stem;
},
{
horizontal = 1;
origin = "{1, 5}";
target = "{0, 8}";
type = Stem;
}
);
layerId = "5E1C92F4-866D-4CC0-BA00-538F5374015A";
paths = (
{
closed = 1;
nodes = (
"156 0 LINE",
"228 159 LINE {name = hr00;}",
"445 159 LINE",
"436 203 OFFCURVE",
"416 262 OFFCURVE",
"358 262 CURVE SMOOTH",
"280 262 LINE",
"266 260 LINE",
"281 280 LINE",
"400 545 LINE",
"411 574 LINE",
"415 546 LINE",
"529 0 LINE",
"677 0 LINE",
"505 724 LINE",
"531 741 OFFCURVE",
"550 767 OFFCURVE",
"553 798 CURVE SMOOTH",
"561 856 OFFCURVE",
"521 895 OFFCURVE",
"457 895 CURVE SMOOTH",
"394 895 OFFCURVE",
"341 853 OFFCURVE",
"334 797 CURVE SMOOTH",
"331 767 OFFCURVE",
"342 742 OFFCURVE",
"364 725 CURVE",
"15 0 LINE"
);
},
{
closed = 1;
nodes = (
"418 760 OFFCURVE",
"407 779 OFFCURVE",
"409 798 CURVE SMOOTH",
"412 822 OFFCURVE",
"428 839 OFFCURVE",
"450 839 CURVE SMOOTH",
"474 839 OFFCURVE",
"484 822 OFFCURVE",
"482 799 CURVE SMOOTH",
"479 777 OFFCURVE",
"464 760 OFFCURVE",
"440 760 CURVE SMOOTH"
);
}
);
width = 687;
}
);
unicode = 00C5;
userData = {
com.typemytype.robofont.guides = (
{
angle = 90;
isGlobal = 0;
magnetic = 5;
x = 255;
y = 0;
}
);
};
},
{
glyphname = Atilde;
lastChange = "2018-08-09 20:33:40 +0000";
layers = (
{
hints = (
{
horizontal = 1;
origin = "{0, 12}";
target = up;
type = BottomGhost;
},
{
horizontal = 1;
origin = "{0, 10}";
target = "{0, 5}";
type = Stem;
},
{
horizontal = 1;
origin = "{0, 13}";
target = down;
type = TopGhost;
},
{
horizontal = 1;
origin = "{1, 21}";
target = "{1, 2}";
type = Stem;
}
);
layerId = "BAA2CE79-BA31-4701-835E-3D9478C3F4B2";
paths = (
{
closed = 1;
nodes = (
"130 0 LINE",
"190 174 LINE",
"442 174 LINE",
"428 212 OFFCURVE",
"405 246 OFFCURVE",
"357 246 CURVE SMOOTH",
"222 246 LINE",
"210 244 LINE",
"221 265 LINE",
"340 605 LINE",
"550 0 LINE",
"652 0 LINE",
"390 727 LINE",
"297 727 LINE",
"35 0 LINE"
);
},
{
closed = 1;
nodes = (
"260 819 OFFCURVE",
"275 835 OFFCURVE",
"292 835 CURVE SMOOTH",
"315 835 OFFCURVE",
"325 818 OFFCURVE",
"344 802 CURVE SMOOTH",
"361 786 OFFCURVE",
"383 779 OFFCURVE",
"409 779 CURVE SMOOTH",
"447 779 OFFCURVE",
"489 803 OFFCURVE",
"493 887 CURVE",
"440 893 LINE",
"437 856 OFFCURVE",
"427 835 OFFCURVE",
"409 835 CURVE SMOOTH",
"383 835 OFFCURVE",
"373 851 OFFCURVE",
"355 867 CURVE SMOOTH",
"337 883 OFFCURVE",
"315 891 OFFCURVE",
"291 891 CURVE SMOOTH {name = hr01;}",
"243 890 OFFCURVE",
"204 858 OFFCURVE",
"202 783 CURVE",
"257 777 LINE"
);
}
);
width = 687;
},
{
hints = (
{
horizontal = 1;
origin = "{0, 12}";
target = up;
type = BottomGhost;
},
{
horizontal = 1;
origin = "{0, 10}";
target = "{0, 5}";
type = Stem;
},
{
horizontal = 1;
origin = "{0, 13}";
target = down;
type = TopGhost;
},
{
horizontal = 1;
origin = "{1, 15}";
target = "{1, 21}";
type = Stem;
},
{
horizontal = 1;
origin = "{1, 11}";
target = up;
type = BottomGhost;
}
);
layerId = "3BBF7C5C-CA4C-45AB-AE18-0528A0ACCA90";
paths = (
{
closed = 1;
nodes = (
"130 0 LINE",
"211 174 LINE",
"463 174 LINE",
"454 212 OFFCURVE",
"435 246 OFFCURVE",
"387 246 CURVE SMOOTH",
"252 246 LINE",
"239 244 LINE",
"253 265 LINE",
"414 605 LINE",
"550 0 LINE",
"652 0 LINE",
"479 727 LINE",
"386 727 LINE",
"35 0 LINE"
);
},
{
closed = 1;
nodes = (
"360 819 OFFCURVE",
"377 835 OFFCURVE",
"394 835 CURVE SMOOTH",
"417 835 OFFCURVE",
"425 818 OFFCURVE",
"442 802 CURVE SMOOTH",
"457 786 OFFCURVE",
"478 779 OFFCURVE",
"504 779 CURVE SMOOTH",
"542 779 OFFCURVE",
"587 803 OFFCURVE",
"601 887 CURVE",
"549 893 LINE {name = hr01;}",
"542 856 OFFCURVE",
"529 835 OFFCURVE",
"511 835 CURVE SMOOTH",
"485 835 OFFCURVE",
"477 851 OFFCURVE",
"461 867 CURVE SMOOTH",
"445 883 OFFCURVE",
"424 891 OFFCURVE",
"400 891 CURVE SMOOTH",
"352 890 OFFCURVE",
"309 858 OFFCURVE",
"298 783 CURVE",
"352 777 LINE"
);
}
);
width = 687;
},
{
hints = (
{
horizontal = 1;
origin = "{1, 1}";
target = up;
type = BottomGhost;
},
{
horizontal = 1;
origin = "{1, 16}";
target = "{1, 11}";
type = Stem;
},
{
horizontal = 1;
origin = "{1, 2}";
target = down;
type = TopGhost;
},
{
horizontal = 1;
origin = "{0, 15}";
target = "{0, 5}";
type = Stem;
}
);
layerId = "58254875-FB9E-4C1D-8B15-704836B9A7CF";
paths = (
{
closed = 1;
nodes = (
"155 0 LINE",
"208 159 LINE",
"425 159 LINE",
"411 203 OFFCURVE",
"383 262 OFFCURVE",
"325 262 CURVE SMOOTH",
"249 262 LINE",
"234 260 LINE",
"246 280 LINE",
"331 539 LINE",
"340 578 LINE",
"348 541 LINE",
"528 0 LINE",
"676 0 LINE",
"415 727 LINE",
"275 727 LINE",
"14 0 LINE"
);
},
{
closed = 1;
nodes = (
"453 769 OFFCURVE",
"505 803 OFFCURVE",
"509 887 CURVE",
"436 893 LINE",
"433 866 OFFCURVE",
"422 848 OFFCURVE",
"405 848 CURVE SMOOTH {name = hr01;}",
"375 848 OFFCURVE",
"346 901 OFFCURVE",
"287 901 CURVE",
"239 900 OFFCURVE",
"190 858 OFFCURVE",
"188 783 CURVE",
"263 777 LINE",
"266 811 OFFCURVE",
"284 822 OFFCURVE",
"298 822 CURVE SMOOTH",
"331 822 OFFCURVE",
"348 769 OFFCURVE",
"415 769 CURVE SMOOTH"
);
}
);
width = 687;
},
{
hints = (
{
horizontal = 1;
origin = "{1, 1}";
target = up;
type = BottomGhost;
},
{
horizontal = 1;
origin = "{1, 16}";
target = "{1, 11}";
type = Stem;
},
{
horizontal = 1;
origin = "{1, 2}";
target = down;
type = TopGhost;
},
{
horizontal = 1;
origin = "{0, 15}";
target = "{0, 5}";
type = Stem;
}
);
layerId = "5E1C92F4-866D-4CC0-BA00-538F5374015A";
paths = (
{
closed = 1;
nodes = (
"155 0 LINE",
"227 159 LINE",
"444 159 LINE",
"435 203 OFFCURVE",
"415 262 OFFCURVE",
"357 262 CURVE SMOOTH",
"281 262 LINE",
"265 260 LINE",
"280 280 LINE",
"397 539 LINE",
"410 578 LINE",
"414 541 LINE",
"528 0 LINE",
"676 0 LINE",
"504 727 LINE",
"364 727 LINE",
"14 0 LINE"
);
},
{
closed = 1;
nodes = (
"547 769 OFFCURVE",
"603 803 OFFCURVE",
"617 887 CURVE",
"545 893 LINE",
"539 866 OFFCURVE",
"526 848 OFFCURVE",
"509 848 CURVE SMOOTH {name = hr01;}",
"479 848 OFFCURVE",
"456 901 OFFCURVE",
"397 901 CURVE",
"349 900 OFFCURVE",
"295 858 OFFCURVE",
"284 783 CURVE",
"358 777 LINE",
"365 811 OFFCURVE",
"384 822 OFFCURVE",
"398 822 CURVE SMOOTH",
"431 822 OFFCURVE",
"442 769 OFFCURVE",
"509 769 CURVE SMOOTH"
);
}
);
width = 687;
}
);
unicode = 00C3;
userData = {
com.typemytype.robofont.guides = (
{
angle = 90;
isGlobal = 0;
magnetic = 5;
x = 255;
y = 0;
}
);
};
},
{
glyphname = AE;
lastChange = "2018-08-09 20:33:40 +0000";
layers = (
{
hints = (
{
horizontal = 1;
origin = "{0, 11}";
target = "{0, 16}";
type = Stem;
},
{
horizontal = 1;
origin = "{0, 9}";
target = "{0, 4}";
type = Stem;
},
{
horizontal = 1;
origin = "{1, 1}";
target = "{1, 4}";
type = Stem;
},
{
horizontal = 1;
origin = "{0, 15}";
target = "{0, 12}";
type = Stem;
}
);
layerId = "BAA2CE79-BA31-4701-835E-3D9478C3F4B2";
paths = (
{
closed = 1;
nodes = (
"120 0 LINE",
"207 174 LINE",
"468 174 LINE",
"454 212 OFFCURVE",
"431 246 OFFCURVE",
"383 246 CURVE SMOOTH",
"255 246 LINE",
"237 244 LINE",
"251 265 LINE",
"421 605 LINE",
"436 645 LINE",
"438 605 LINE {name = hr00;}",
"533 0 LINE",
"914 0 LINE",
"914 72 LINE",
"610 72 LINE",
"520 655 LINE",
"844 655 LINE",
"844 727 LINE",
"390 727 LINE",
"21 0 LINE"
);
},
{
closed = 1;
nodes = (
"854 346 LINE",
"854 416 LINE",
"684 416 LINE",
"636 416 OFFCURVE",
"614 384 OFFCURVE",
"602 346 CURVE"
);
}
);
width = 975;
},
{
hints = (
{
horizontal = 1;
origin = "{0, 11}";
target = "{0, 16}";
type = Stem;
},
{
horizontal = 1;
origin = "{0, 9}";
target = "{0, 4}";
type = Stem;
},
{
horizontal = 1;
origin = "{1, 1}";
target = "{1, 4}";
type = Stem;
},
{
horizontal = 1;
origin = "{0, 15}";
target = "{0, 12}";
type = Stem;
}
);
layerId = "3BBF7C5C-CA4C-45AB-AE18-0528A0ACCA90";
paths = (
{
closed = 1;
nodes = (
"120 0 LINE",
"228 174 LINE",
"489 174 LINE",
"480 212 OFFCURVE",
"461 246 OFFCURVE",
"413 246 CURVE SMOOTH",
"285 246 LINE",
"266 244 LINE",
"283 265 LINE",
"495 605 LINE",
"515 645 LINE",
"512 605 LINE {name = hr00;}",
"533 0 LINE",
"914 0 LINE",
"922 72 LINE",
"618 72 LINE",
"600 655 LINE",
"924 655 LINE",
"933 727 LINE",
"479 727 LINE",
"21 0 LINE"
);
},
{
closed = 1;
nodes = (
"896 346 LINE",
"905 416 LINE",
"735 416 LINE",
"687 416 OFFCURVE",
"661 384 OFFCURVE",
"644 346 CURVE"
);
}
);
width = 975;
},
{
hints = (
{
horizontal = 1;
origin = "{0, 1}";
target = "{0, 6}";
type = Stem;
},
{
horizontal = 1;
origin = "{0, 20}";
target = "{0, 15}";
type = Stem;
},
{
horizontal = 1;
origin = "{1, 5}";
target = "{1, 2}";
type = Stem;
},
{
horizontal = 1;
origin = "{0, 5}";
target = "{0, 2}";
type = Stem;
}
);
layerId = "58254875-FB9E-4C1D-8B15-704836B9A7CF";
paths = (
{
closed = 1;
nodes = (
"141 0 LINE",
"218 159 LINE {name = hr00;}",
"446 159 LINE",
"432 203 OFFCURVE",
"404 262 OFFCURVE",
"346 262 CURVE SMOOTH",
"279 262 LINE",
"259 260 LINE",
"274 280 LINE",
"406 554 LINE",
"420 589 LINE",
"423 552 LINE",
"506 0 LINE",
"915 0 LINE",
"915 103 LINE",
"624 103 LINE",
"546 624 LINE",
"844 624 LINE",
"844 727 LINE",
"372 727 LINE",
"0 0 LINE"
);
},
{
closed = 1;
nodes = (
"854 331 LINE",
"854 432 LINE",
"740 432 LINE SMOOTH",
"671 432 OFFCURVE",
"641 380 OFFCURVE",
"626 331 CURVE"
);
}
);
width = 975;
},
{
hints = (
{
horizontal = 1;
origin = "{0, 1}";
target = "{0, 6}";
type = Stem;
},
{
horizontal = 1;
origin = "{0, 20}";
target = "{0, 15}";
type = Stem;
},
{
horizontal = 1;
origin = "{1, 5}";
target = "{1, 2}";
type = Stem;
},
{
horizontal = 1;
origin = "{0, 5}";
target = "{0, 2}";
type = Stem;
}
);
layerId = "5E1C92F4-866D-4CC0-BA00-538F5374015A";
paths = (
{
closed = 1;
nodes = (
"141 0 LINE",
"237 159 LINE {name = hr00;}",
"465 159 LINE",
"456 203 OFFCURVE",
"436 262 OFFCURVE",
"378 262 CURVE SMOOTH",
"311 262 LINE",
"290 260 LINE",
"308 280 LINE",
"474 554 LINE",
"492 589 LINE",
"490 552 LINE",
"506 0 LINE",
"915 0 LINE",
"927 103 LINE",
"636 103 LINE",
"622 624 LINE",
"920 624 LINE",
"933 727 LINE",
"461 727 LINE",
"0 0 LINE"
);
},
{
closed = 1;
nodes = (
"894 331 LINE",
"907 432 LINE",
"793 432 LINE SMOOTH",
"724 432 OFFCURVE",
"687 380 OFFCURVE",
"666 331 CURVE"
);
}
);
width = 975;
}
);
unicode = 00C6;
userData = {
com.typemytype.robofont.guides = (
{
angle = 90;
isGlobal = 0;
magnetic = 5;
x = 255;
y = 0;
}
);
};
},
{
glyphname = B;
lastChange = "2018-08-09 20:33:40 +0000";
layers = (
{
hints = (
{
horizontal = 1;
origin = "{1, 29}";
target = "{1, 2}";
type = Stem;
},
{
horizontal = 1;
origin = "{1, 9}";
target = "{0, 9}";
type = Stem;
},
{
horizontal = 1;
origin = "{0, 5}";
target = "{1, 15}";
type = Stem;
},
{
origin = "{1, 11}";
target = "{1, 10}";
type = Stem;
},
{
origin = "{1, 5}";
target = "{1, 26}";
type = Stem;
},
{
horizontal = 1;
origin = "{1, 11}";
target = up;
type = BottomGhost;
},
{
origin = "{0, 2}";
target = "{1, 18}";
type = Stem;
}
);
layerId = "BAA2CE79-BA31-4701-835E-3D9478C3F4B2";
paths = (
{
closed = 1;
nodes = (
"507 -12 OFFCURVE",
"593 102 OFFCURVE",
"593 205 CURVE SMOOTH {name = hr01;}",
"593 285 OFFCURVE",
"549 345 OFFCURVE",
"474 381 CURVE",
"446 388 LINE",
"475 402 LINE",
"524 433 OFFCURVE",
"550 499 OFFCURVE",
"550 547 CURVE {name = hr02;}",
"550 655 OFFCURVE",
"467 740 OFFCURVE",
"297 740 CURVE SMOOTH",
"225 740 OFFCURVE",
"162 733 OFFCURVE",
"87 718 CURVE",
"87 0 LINE",
"182 0 LINE",
"182 346 LINE",
"297 346 LINE SMOOTH",
"405 346 OFFCURVE",
"492 301 OFFCURVE",
"492 201 CURVE SMOOTH {name = hr03;}",
"492 123 OFFCURVE",
"432 61 OFFCURVE",
"362 61 CURVE SMOOTH",
"344 61 OFFCURVE",
"333 62 OFFCURVE",
"317 64 CURVE",
"272 72 OFFCURVE",
"242 41 OFFCURVE",
"222 6 CURVE",
"281 -8 OFFCURVE",
"324 -12 OFFCURVE",
"362 -12 CURVE SMOOTH"
);
},
{
closed = 1;
nodes = (
"182 660 LINE",
"218 664 OFFCURVE",
"261 666 OFFCURVE",
"297 666 CURVE SMOOTH",
"398 666 OFFCURVE",
"451 615 OFFCURVE",
"451 547 CURVE SMOOTH",
"451 473 OFFCURVE",
"397 415 OFFCURVE",
"297 415 CURVE",
"182 415 LINE"
);
}
);
width = 643;
},
{
hints = (
{
horizontal = 1;
origin = "{1, 11}";
target = up;
type = BottomGhost;
},
{
horizontal = 1;
origin = "{1, 9}";
target = "{0, 9}";
type = Stem;
},
{
horizontal = 1;
origin = "{0, 5}";
target = "{1, 15}";
type = Stem;
},
{
horizontal = 1;
origin = "{1, 29}";
target = "{1, 2}";
type = Stem;
}
);
layerId = "3BBF7C5C-CA4C-45AB-AE18-0528A0ACCA90";
paths = (
{
closed = 1;
nodes = (
"505 -12 OFFCURVE",
"605 102 OFFCURVE",
"618 205 CURVE SMOOTH",
"627 285 OFFCURVE",
"591 345 OFFCURVE",
"520 381 CURVE",
"493 388 LINE",
"524 402 LINE",
"577 433 OFFCURVE",
"611 499 OFFCURVE",
"617 547 CURVE",
"630 655 OFFCURVE",
"557 740 OFFCURVE",
"387 740 CURVE SMOOTH",
"315 740 OFFCURVE",
"252 733 OFFCURVE",
"175 718 CURVE",
"87 0 LINE",
"182 0 LINE {name = hr01;}",
"224 346 LINE",
"339 346 LINE SMOOTH",
"447 346 OFFCURVE",
"528 301 OFFCURVE",
"516 201 CURVE SMOOTH",
"507 123 OFFCURVE",
"439 61 OFFCURVE",
"369 61 CURVE SMOOTH",
"351 61 OFFCURVE",
"340 62 OFFCURVE",
"324 64 CURVE",
"280 72 OFFCURVE",
"247 41 OFFCURVE",
"222 6 CURVE",
"280 -8 OFFCURVE",
"322 -12 OFFCURVE",
"360 -12 CURVE SMOOTH {name = hr02;}"
);
},
{
closed = 1;
nodes = (
"263 660 LINE",
"299 664 OFFCURVE",
"342 666 OFFCURVE",
"378 666 CURVE SMOOTH",
"479 666 OFFCURVE",
"526 615 OFFCURVE",
"518 547 CURVE SMOOTH",
"509 473 OFFCURVE",
"447 415 OFFCURVE",
"347 415 CURVE",
"232 415 LINE"
);
}
);
width = 643;
},
{
hints = (
{
horizontal = 1;
origin = "{1, 8}";
target = up;
type = BottomGhost;
},
{
horizontal = 1;
origin = "{1, 6}";
target = "{0, 9}";
type = Stem;
},
{
horizontal = 1;
origin = "{0, 5}";
target = "{1, 12}";
type = Stem;
},
{
origin = "{1, 8}";
target = "{1, 7}";
type = Stem;
},
{
origin = "{1, 2}";
target = "{1, 23}";
type = Stem;
},
{
horizontal = 1;
origin = "{1, 26}";
target = "{1, 32}";
type = Stem;
},
{
origin = "{0, 2}";
target = "{1, 15}";
type = Stem;
}
);
layerId = "58254875-FB9E-4C1D-8B15-704836B9A7CF";
paths = (
{
closed = 1;
nodes = (
"533 -11 OFFCURVE",
"630 102 OFFCURVE",
"630 205 CURVE SMOOTH {name = hr03;}",
"630 277 OFFCURVE",
"576 355 OFFCURVE",
"503 381 CURVE",
"475 388 LINE",
"504 402 LINE",
"553 433 OFFCURVE",
"587 486 OFFCURVE",
"587 535 CURVE {name = hr02;}",
"587 658 OFFCURVE",
"491 740 OFFCURVE",
"311 740 CURVE SMOOTH",
"239 740 OFFCURVE",
"188 734 OFFCURVE",
"81 716 CURVE",
"81 0 LINE",
"221 0 LINE",
"221 334 LINE",
"311 334 LINE SMOOTH",
"410 334 OFFCURVE",
"483 285 OFFCURVE",
"483 206 CURVE SMOOTH {name = hr01;}",
"483 132 OFFCURVE",
"431 90 OFFCURVE",
"360 90 CURVE SMOOTH",
"306 90 OFFCURVE",
"276 41 OFFCURVE",
"260 6 CURVE",
"318 -8 OFFCURVE",
"339 -11 OFFCURVE",
"376 -11 CURVE SMOOTH"
);
},
{
closed = 1;
nodes = (
"221 632 LINE",
"257 637 OFFCURVE",
"275 639 OFFCURVE",
"311 639 CURVE SMOOTH",
"406 639 OFFCURVE",
"443 581 OFFCURVE",
"443 534 CURVE SMOOTH",
"443 471 OFFCURVE",
"380 428 OFFCURVE",
"311 428 CURVE",
"221 428 LINE"
);
}
);
width = 677;
},
{
hints = (
{
horizontal = 1;
origin = "{1, 8}";
target = up;
type = BottomGhost;
},
{
horizontal = 1;
origin = "{1, 6}";
target = "{0, 9}";
type = Stem;
},
{
horizontal = 1;
origin = "{0, 5}";
target = "{1, 12}";
type = Stem;
},
{
horizontal = 1;
origin = "{1, 26}";
target = "{1, 32}";
type = Stem;
}
);
layerId = "5E1C92F4-866D-4CC0-BA00-538F5374015A";
paths = (
{
closed = 1;
nodes = (
"531 -11 OFFCURVE",
"642 102 OFFCURVE",
"655 205 CURVE SMOOTH",
"664 277 OFFCURVE",
"619 355 OFFCURVE",
"549 381 CURVE",
"522 388 LINE",
"553 402 LINE",
"606 433 OFFCURVE",
"646 486 OFFCURVE",
"652 535 CURVE",
"667 658 OFFCURVE",
"581 740 OFFCURVE",
"401 740 CURVE SMOOTH",
"329 740 OFFCURVE",
"278 734 OFFCURVE",
"168 716 CURVE",
"81 0 LINE",
"221 0 LINE {name = hr01;}",
"262 334 LINE",
"352 334 LINE SMOOTH",
"451 334 OFFCURVE",
"517 285 OFFCURVE",
"508 206 CURVE SMOOTH",
"499 132 OFFCURVE",
"442 90 OFFCURVE",
"371 90 CURVE SMOOTH",
"317 90 OFFCURVE",
"281 41 OFFCURVE",
"260 6 CURVE",
"317 -8 OFFCURVE",
"337 -11 OFFCURVE",
"374 -11 CURVE SMOOTH {name = hr02;}"
);
},
{
closed = 1;
nodes = (
"298 632 LINE",
"335 637 OFFCURVE",
"353 639 OFFCURVE",
"389 639 CURVE SMOOTH",
"484 639 OFFCURVE",
"514 581 OFFCURVE",
"508 534 CURVE SMOOTH",
"500 471 OFFCURVE",
"432 428 OFFCURVE",
"363 428 CURVE",
"273 428 LINE"
);
}
);
width = 677;
}
);
unicode = 0042;
},
{
glyphname = C;
lastChange = "2018-08-09 20:24:58 +0000";
layers = (
{
hints = (
{
horizontal = 1;
origin = "{0, 25}";
target = "{0, 18}";
type = Stem;
},
{
horizontal = 1;
origin = "{0, 12}";
target = "{0, 5}";
type = Stem;
},
{
origin = "{0, 2}";
target = "{0, 15}";
type = Stem;
}
);
layerId = "BAA2CE79-BA31-4701-835E-3D9478C3F4B2";
paths = (
{
closed = 1;
nodes = (
"229 -12 OFFCURVE",
"72 131 OFFCURVE",
"72 362 CURVE SMOOTH",
"72 586 OFFCURVE",
"229 740 OFFCURVE",
"434 740 CURVE SMOOTH",
"490 740 OFFCURVE",
"550 729 OFFCURVE",
"611 706 CURVE",
"585 641 LINE",
"527 660 OFFCURVE",
"480 667 OFFCURVE",
"434 667 CURVE SMOOTH",
"296 667 OFFCURVE",
"174 566 OFFCURVE",
"174 362 CURVE SMOOTH",
"174 181 OFFCURVE",
"296 60 OFFCURVE",
"434 60 CURVE",
"480 60 OFFCURVE",
"530 71 OFFCURVE",
"585 99 CURVE",
"611 34 LINE",
"549 1 OFFCURVE",
"490 -12 OFFCURVE",
"434 -12 CURVE SMOOTH {name = hr00;}"
);
}
);
width = 652;
},
{
hints = (
{
horizontal = 1;
origin = "{0, 25}";
target = "{0, 18}";
type = Stem;
},
{
horizontal = 1;
origin = "{0, 12}";
target = "{0, 5}";
type = Stem;
}
);
layerId = "3BBF7C5C-CA4C-45AB-AE18-0528A0ACCA90";
paths = (
{
closed = 1;
nodes = (
"227 -12 OFFCURVE",
"88 131 OFFCURVE",
"116 362 CURVE SMOOTH",
"143 586 OFFCURVE",
"319 740 OFFCURVE",
"524 740 CURVE SMOOTH",
"580 740 OFFCURVE",
"639 729 OFFCURVE",
"697 706 CURVE",
"663 641 LINE",
"608 660 OFFCURVE",
"561 667 OFFCURVE",
"515 667 CURVE SMOOTH",
"377 667 OFFCURVE",
"243 566 OFFCURVE",
"218 362 CURVE SMOOTH",
"196 181 OFFCURVE",
"303 60 OFFCURVE",
"441 60 CURVE",
"487 60 OFFCURVE",
"538 71 OFFCURVE",
"597 99 CURVE",
"615 34 LINE",
"549 1 OFFCURVE",
"488 -12 OFFCURVE",
"432 -12 CURVE SMOOTH {name = hr00;}"
);
}
);
width = 652;
},
{
hints = (
{
horizontal = 1;
origin = "{0, 25}";
target = "{0, 18}";
type = Stem;
},
{
horizontal = 1;
origin = "{0, 12}";
target = "{0, 5}";
type = Stem;
},
{
origin = "{0, 2}";
target = "{0, 15}";
type = Stem;
}
);
layerId = "58254875-FB9E-4C1D-8B15-704836B9A7CF";
paths = (
{
closed = 1;
nodes = (
"188 -12 OFFCURVE",
"48 153 OFFCURVE",
"48 364 CURVE",
"48 572 OFFCURVE",
"194 740 OFFCURVE",
"435 740 CURVE SMOOTH",
"491 740 OFFCURVE",
"548 730 OFFCURVE",
"611 706 CURVE",
"575 614 LINE",
"516 631 OFFCURVE",
"481 637 OFFCURVE",
"435 637 CURVE SMOOTH",
"276 637 OFFCURVE",
"200 502 OFFCURVE",
"200 364 CURVE",
"200 226 OFFCURVE",
"276 91 OFFCURVE",
"435 91 CURVE",
"481 91 OFFCURVE",
"525 102 OFFCURVE",
"574 125 CURVE",
"611 34 LINE",
"552 3 OFFCURVE",
"491 -12 OFFCURVE",
"435 -12 CURVE {name = hr00;}"
);
}
);
width = 602;
},
{
hints = (
{
horizontal = 1;
origin = "{0, 25}";
target = "{0, 18}";
type = Stem;
},
{
horizontal = 1;
origin = "{0, 12}";
target = "{0, 5}";
type = Stem;
}
);
layerId = "5E1C92F4-866D-4CC0-BA00-538F5374015A";
paths = (
{
closed = 1;
nodes = (
"186 -12 OFFCURVE",
"66 153 OFFCURVE",
"92 364 CURVE",
"118 572 OFFCURVE",
"284 740 OFFCURVE",
"525 740 CURVE SMOOTH",
"581 740 OFFCURVE",
"637 730 OFFCURVE",
"697 706 CURVE",
"650 614 LINE",
"593 631 OFFCURVE",
"559 637 OFFCURVE",
"513 637 CURVE SMOOTH",
"354 637 OFFCURVE",
"261 502 OFFCURVE",
"244 364 CURVE",
"227 226 OFFCURVE",
"287 91 OFFCURVE",
"446 91 CURVE",
"492 91 OFFCURVE",
"537 102 OFFCURVE",
"589 125 CURVE",
"615 34 LINE",
"552 3 OFFCURVE",
"489 -12 OFFCURVE",
"433 -12 CURVE {name = hr00;}"
);
}
);
width = 602;
}
);
unicode = 0043;
},
{
glyphname = Ccedilla;
lastChange = "2018-08-09 20:24:58 +0000";
layers = (
{
hints = (
{
horizontal = 1;
origin = "{0, 9}";
target = "{0, 16}";
type = Stem;
},
{
horizontal = 1;
origin = "{0, 49}";
target = "{0, 42}";
type = Stem;
},
{
horizontal = 1;
origin = "{0, 36}";
target = "{0, 29}";
type = Stem;
},
{
origin = "{0, 26}";
target = "{0, 39}";
type = Stem;
},
{
origin = "{0, 19}";
target = "{0, 6}";
type = Stem;
}
);
layerId = "BAA2CE79-BA31-4701-835E-3D9478C3F4B2";
paths = (
{
closed = 1;
nodes = (
"421 -12 OFFCURVE",
"408 -11 OFFCURVE",
"396 -10 CURVE",
"386 -50 LINE",
"424 -54 OFFCURVE",
"466 -82 OFFCURVE",
"466 -123 CURVE SMOOTH",
"466 -183 OFFCURVE",
"406 -206 OFFCURVE",
"352 -206 CURVE SMOOTH",
"329 -206 OFFCURVE",
"305 -201 OFFCURVE",
"273 -187 CURVE",
"287 -144 LINE",
"312 -154 OFFCURVE",
"332 -157 OFFCURVE",
"352 -157 CURVE SMOOTH",
"375 -157 OFFCURVE",
"405 -150 OFFCURVE",
"405 -126 CURVE SMOOTH",
"405 -101 OFFCURVE",
"377 -89 OFFCURVE",
"330 -84 CURVE",
"351 -4 LINE",
"188 29 OFFCURVE",
"72 165 OFFCURVE",
"72 362 CURVE SMOOTH",
"72 586 OFFCURVE",
"229 740 OFFCURVE",
"434 740 CURVE SMOOTH",
"490 740 OFFCURVE",
"550 729 OFFCURVE",
"611 706 CURVE",
"585 641 LINE",
"527 660 OFFCURVE",
"480 667 OFFCURVE",
"434 667 CURVE SMOOTH",
"296 667 OFFCURVE",
"174 566 OFFCURVE",
"174 362 CURVE SMOOTH",
"174 166 OFFCURVE",
"296 60 OFFCURVE",
"434 60 CURVE SMOOTH",
"480 60 OFFCURVE",
"530 71 OFFCURVE",
"585 99 CURVE",
"611 34 LINE",
"549 1 OFFCURVE",
"490 -12 OFFCURVE",
"434 -12 CURVE SMOOTH {name = hr00;}"
);
}
);
width = 652;
},
{
hints = (
{
horizontal = 1;
origin = "{0, 9}";
target = "{0, 16}";
type = Stem;
},
{
horizontal = 1;
origin = "{0, 49}";
target = "{0, 42}";
type = Stem;
},
{
horizontal = 1;
origin = "{0, 36}";
target = "{0, 29}";
type = Stem;
}
);
layerId = "3BBF7C5C-CA4C-45AB-AE18-0528A0ACCA90";
paths = (
{
closed = 1;
nodes = (
"419 -12 OFFCURVE",
"406 -11 OFFCURVE",
"394 -10 CURVE",
"379 -50 LINE",
"417 -54 OFFCURVE",
"455 -82 OFFCURVE",
"450 -123 CURVE SMOOTH",
"443 -183 OFFCURVE",
"380 -206 OFFCURVE",
"326 -206 CURVE SMOOTH",
"303 -206 OFFCURVE",
"280 -201 OFFCURVE",
"250 -187 CURVE",
"269 -144 LINE",
"293 -154 OFFCURVE",
"312 -157 OFFCURVE",
"332 -157 CURVE SMOOTH",
"355 -157 OFFCURVE",
"386 -150 OFFCURVE",
"389 -126 CURVE SMOOTH",
"392 -101 OFFCURVE",
"366 -89 OFFCURVE",
"319 -84 CURVE",
"350 -4 LINE",
"191 29 OFFCURVE",
"92 165 OFFCURVE",
"116 362 CURVE SMOOTH",
"143 586 OFFCURVE",
"319 740 OFFCURVE",
"524 740 CURVE SMOOTH",
"580 740 OFFCURVE",
"639 729 OFFCURVE",
"697 706 CURVE",
"663 641 LINE",
"608 660 OFFCURVE",
"561 667 OFFCURVE",
"515 667 CURVE SMOOTH",
"377 667 OFFCURVE",
"243 566 OFFCURVE",
"218 362 CURVE SMOOTH",
"194 166 OFFCURVE",
"303 60 OFFCURVE",
"441 60 CURVE SMOOTH",
"487 60 OFFCURVE",
"538 71 OFFCURVE",
"597 99 CURVE",
"615 34 LINE",
"549 1 OFFCURVE",
"488 -12 OFFCURVE",
"432 -12 CURVE SMOOTH {name = hr00;}"
);
}
);
width = 652;
},
{
hints = (
{
horizontal = 1;
origin = "{0, 9}";
target = "{0, 16}";
type = Stem;
},
{
horizontal = 1;
origin = "{0, 2}";
target = up;
type = BottomGhost;
},
{
horizontal = 1;
origin = "{0, 36}";
target = "{0, 29}";
type = Stem;
},
{
origin = "{0, 26}";
target = "{0, 39}";
type = Stem;
},
{
origin = "{0, 19}";
target = "{0, 6}";
type = Stem;
},
{
horizontal = 1;
origin = "{0, 49}";
target = "{0, 42}";
type = Stem;
}
);
layerId = "58254875-FB9E-4C1D-8B15-704836B9A7CF";
paths = (
{
closed = 1;
nodes = (
"425 -12 OFFCURVE",
"415 -11 OFFCURVE",
"405 -11 CURVE {name = hr01;}",
"398 -43 LINE",
"438 -52 OFFCURVE",
"479 -79 OFFCURVE",
"479 -123 CURVE SMOOTH",
"479 -183 OFFCURVE",
"413 -213 OFFCURVE",
"352 -213 CURVE SMOOTH",
"329 -213 OFFCURVE",
"303 -207 OFFCURVE",
"271 -193 CURVE",
"289 -138 LINE",
"314 -147 OFFCURVE",
"332 -150 OFFCURVE",
"352 -150 CURVE SMOOTH",
"375 -150 OFFCURVE",
"392 -141 OFFCURVE",
"392 -126 CURVE SMOOTH",
"392 -106 OFFCURVE",
"365 -96 OFFCURVE",
"318 -91 CURVE",
"341 -3 LINE",
"153 33 OFFCURVE",
"48 181 OFFCURVE",
"48 364 CURVE SMOOTH",
"48 572 OFFCURVE",
"194 740 OFFCURVE",
"435 740 CURVE SMOOTH",
"491 740 OFFCURVE",
"548 730 OFFCURVE",
"611 706 CURVE",
"575 614 LINE",
"516 631 OFFCURVE",
"481 637 OFFCURVE",
"435 637 CURVE SMOOTH",
"276 637 OFFCURVE",
"200 502 OFFCURVE",
"200 364 CURVE SMOOTH",
"200 226 OFFCURVE",
"276 91 OFFCURVE",
"435 91 CURVE SMOOTH {name = hr02;}",
"481 91 OFFCURVE",
"525 102 OFFCURVE",
"574 125 CURVE",
"611 34 LINE",
"552 3 OFFCURVE",
"491 -12 OFFCURVE",
"435 -12 CURVE SMOOTH"
);
}
);
width = 652;
},
{
hints = (
{
horizontal = 1;
origin = "{0, 9}";
target = "{0, 16}";
type = Stem;
},
{
horizontal = 1;
origin = "{0, 2}";
target = up;
type = BottomGhost;
},
{
horizontal = 1;
origin = "{0, 36}";
target = "{0, 29}";
type = Stem;
},
{
horizontal = 1;
origin = "{0, 49}";
target = "{0, 42}";
type = Stem;
}
);
layerId = "5E1C92F4-866D-4CC0-BA00-538F5374015A";
paths = (
{
closed = 1;
nodes = (
"423 -12 OFFCURVE",
"413 -11 OFFCURVE",
"403 -11 CURVE {name = hr01;}",
"392 -43 LINE",
"431 -52 OFFCURVE",
"469 -79 OFFCURVE",
"463 -123 CURVE SMOOTH",
"456 -183 OFFCURVE",
"386 -213 OFFCURVE",
"325 -213 CURVE SMOOTH",
"302 -213 OFFCURVE",
"277 -207 OFFCURVE",
"247 -193 CURVE",
"272 -138 LINE",
"295 -147 OFFCURVE",
"313 -150 OFFCURVE",
"333 -150 CURVE SMOOTH",
"356 -150 OFFCURVE",
"374 -141 OFFCURVE",
"376 -126 CURVE SMOOTH",
"378 -106 OFFCURVE",
"353 -96 OFFCURVE",
"306 -91 CURVE",
"340 -3 LINE",
"157 33 OFFCURVE",
"70 181 OFFCURVE",
"92 364 CURVE SMOOTH",
"118 572 OFFCURVE",
"284 740 OFFCURVE",
"525 740 CURVE SMOOTH",
"581 740 OFFCURVE",
"637 730 OFFCURVE",
"697 706 CURVE",
"650 614 LINE",
"593 631 OFFCURVE",
"559 637 OFFCURVE",
"513 637 CURVE SMOOTH",
"354 637 OFFCURVE",
"261 502 OFFCURVE",
"244 364 CURVE SMOOTH",
"227 226 OFFCURVE",
"287 91 OFFCURVE",
"446 91 CURVE SMOOTH {name = hr02;}",
"492 91 OFFCURVE",
"537 102 OFFCURVE",
"589 125 CURVE",
"615 34 LINE",
"552 3 OFFCURVE",
"489 -12 OFFCURVE",
"433 -12 CURVE SMOOTH"
);
}
);
width = 652;
}
);
unicode = 00C7;
},
{
glyphname = D;
lastChange = "2018-08-09 20:45:01 +0000";
layers = (
{
hints = (
{
horizontal = 1;
origin = "{0, 19}";
target = up;
type = BottomGhost;
},
{
horizontal = 1;
origin = "{0, 14}";
target = "{0, 23}";
type = Stem;
},
{
origin = "{0, 19}";
target = "{0, 18}";
type = Stem;
},
{
origin = "{0, 11}";
target = "{0, 26}";
type = Stem;
},
{
horizontal = 1;
origin = "{0, 29}";
target = "{0, 8}";
type = Stem;
}
);
layerId = "BAA2CE79-BA31-4701-835E-3D9478C3F4B2";
paths = (
{
closed = 1;
nodes = (
"542 -12 OFFCURVE",
"693 147 OFFCURVE",
"693 365 CURVE SMOOTH",
"693 599 OFFCURVE",
"550 740 OFFCURVE",
"296 740 CURVE SMOOTH",
"238 740 OFFCURVE",
"152 731 OFFCURVE",
"89 716 CURVE",
"89 0 LINE {name = hr01;}",
"184 0 LINE",
"184 660 LINE",
"216 664 OFFCURVE",
"256 667 OFFCURVE",
"296 667 CURVE SMOOTH",
"493 667 OFFCURVE",
"591 558 OFFCURVE",
"591 365 CURVE SMOOTH",
"591 198 OFFCURVE",
"491 60 OFFCURVE",
"363 60 CURVE {name = hr02;}",
"347 60 OFFCURVE",
"339 60 OFFCURVE",
"318 62 CURVE SMOOTH",
"273 66 OFFCURVE",
"243 40 OFFCURVE",
"224 5 CURVE",
"282 -9 OFFCURVE",
"319 -12 OFFCURVE",
"364 -12 CURVE"
);
}
);
width = 713;
},
{
hints = (
{
horizontal = 1;
origin = "{0, 19}";
target = up;
type = BottomGhost;
},
{
horizontal = 1;
origin = "{0, 14}";
target = "{0, 23}";
type = Stem;
},
{
horizontal = 1;
origin = "{0, 29}";
target = "{0, 8}";
type = Stem;
}
);
layerId = "3BBF7C5C-CA4C-45AB-AE18-0528A0ACCA90";
paths = (
{
closed = 1;
nodes = (
"540 -12 OFFCURVE",
"711 147 OFFCURVE",
"737 365 CURVE SMOOTH",
"766 599 OFFCURVE",
"640 740 OFFCURVE",
"386 740 CURVE SMOOTH",
"328 740 OFFCURVE",
"241 731 OFFCURVE",
"176 716 CURVE",
"89 0 LINE",
"184 0 LINE {name = hr01;}",
"265 660 LINE",
"297 664 OFFCURVE",
"337 667 OFFCURVE",
"377 667 CURVE SMOOTH",
"574 667 OFFCURVE",
"659 558 OFFCURVE",
"635 365 CURVE SMOOTH",
"615 198 OFFCURVE",
"498 60 OFFCURVE",
"370 60 CURVE",
"354 60 OFFCURVE",
"346 60 OFFCURVE",
"325 62 CURVE SMOOTH",
"281 66 OFFCURVE",
"247 40 OFFCURVE",
"224 5 CURVE",
"280 -9 OFFCURVE",
"317 -12 OFFCURVE",
"362 -12 CURVE"
);
}
);
width = 713;
},
{
hints = (
{
horizontal = 1;
origin = "{0, 10}";
target = up;
type = BottomGhost;
},
{
horizontal = 1;
origin = "{0, 5}";
target = "{0, 14}";
type = Stem;
},
{
origin = "{0, 10}";
target = "{0, 9}";
type = Stem;
},
{
origin = "{0, 2}";
target = "{0, 17}";
type = Stem;
},
{
horizontal = 1;
origin = "{0, 23}";
target = "{0, 29}";
type = Stem;
}
);
layerId = "58254875-FB9E-4C1D-8B15-704836B9A7CF";
paths = (
{
closed = 1;
nodes = (
"582 -12 OFFCURVE",
"733 154 OFFCURVE",
"733 365 CURVE SMOOTH",
"733 602 OFFCURVE",
"576 740 OFFCURVE",
"310 740 CURVE SMOOTH",
"252 740 OFFCURVE",
"172 733 OFFCURVE",
"83 714 CURVE",
"83 0 LINE",
"224 0 LINE {name = hr01;}",
"224 629 LINE",
"255 634 OFFCURVE",
"284 637 OFFCURVE",
"310 637 CURVE SMOOTH",
"503 637 OFFCURVE",
"582 522 OFFCURVE",
"582 365 CURVE SMOOTH",
"582 232 OFFCURVE",
"517 94 OFFCURVE",
"367 91 CURVE SMOOTH",
"366 91 OFFCURVE",
"364 91 OFFCURVE",
"363 91 CURVE SMOOTH",
"308 91 OFFCURVE",
"278 40 OFFCURVE",
"262 5 CURVE",
"320 -10 OFFCURVE",
"341 -12 OFFCURVE",
"378 -12 CURVE {name = hr02;}"
);
}
);
width = 747;
},
{
hints = (
{
horizontal = 1;
origin = "{0, 10}";
target = up;
type = BottomGhost;
},
{
horizontal = 1;
origin = "{0, 5}";
target = "{0, 14}";
type = Stem;
},
{
horizontal = 1;
origin = "{0, 23}";
target = "{0, 29}";
type = Stem;
}
);
layerId = "5E1C92F4-866D-4CC0-BA00-538F5374015A";
paths = (
{
closed = 1;
nodes = (
"580 -12 OFFCURVE",
"751 154 OFFCURVE",
"777 365 CURVE SMOOTH",
"806 602 OFFCURVE",
"666 740 OFFCURVE",
"400 740 CURVE SMOOTH",
"342 740 OFFCURVE",
"262 733 OFFCURVE",
"170 714 CURVE",
"83 0 LINE",
"224 0 LINE {name = hr01;}",
"301 629 LINE",
"332 634 OFFCURVE",
"362 637 OFFCURVE",
"388 637 CURVE SMOOTH",
"581 637 OFFCURVE",
"646 522 OFFCURVE",
"626 365 CURVE SMOOTH",
"610 232 OFFCURVE",
"529 94 OFFCURVE",
"379 91 CURVE SMOOTH",
"377 91 OFFCURVE",
"376 91 OFFCURVE",
"374 91 CURVE SMOOTH",
"319 91 OFFCURVE",
"282 40 OFFCURVE",
"262 5 CURVE",
"318 -10 OFFCURVE",
"339 -12 OFFCURVE",
"376 -12 CURVE {name = hr02;}"
);
}
);
width = 747;
}
);
unicode = 0044;
},
{
glyphname = Eth;
lastChange = "2018-08-09 20:33:40 +0000";
layers = (
{
hints = (
{
horizontal = 1;
origin = "{0, 10}";
target = "{0, 19}";
type = Stem;
},
{
horizontal = 1;
origin = "{0, 36}";
target = "{0, 37}";
type = Stem;
},
{
horizontal = 1;
origin = "{0, 25}";
target = "{0, 4}";
type = Stem;
},
{
origin = "{0, 34}";
target = "{0, 33}";
type = Stem;
},
{
origin = "{0, 22}";
target = "{0, 7}";
type = Stem;
}
);
layerId = "BAA2CE79-BA31-4701-835E-3D9478C3F4B2";
paths = (
{
closed = 1;
nodes = (
"542 -12 OFFCURVE",
"693 147 OFFCURVE",
"693 365 CURVE SMOOTH",
"693 589 OFFCURVE",
"550 740 OFFCURVE",
"296 740 CURVE SMOOTH",
"238 740 OFFCURVE",
"152 731 OFFCURVE",
"89 716 CURVE",
"89 388 LINE",
"7 388 LINE",
"7 323 LINE",
"89 323 LINE",
"89 0 LINE",
"184 0 LINE",
"184 323 LINE",
"411 323 LINE",
"411 388 LINE",
"184 388 LINE",
"184 660 LINE",
"216 664 OFFCURVE",
"256 667 OFFCURVE",
"296 667 CURVE SMOOTH",
"493 667 OFFCURVE",
"591 558 OFFCURVE",
"591 365 CURVE SMOOTH",
"591 198 OFFCURVE",
"491 60 OFFCURVE",
"363 60 CURVE SMOOTH {name = hr01;}",
"347 60 OFFCURVE",
"339 60 OFFCURVE",
"318 62 CURVE SMOOTH",
"273 66 OFFCURVE",
"243 40 OFFCURVE",
"224 5 CURVE",
"282 -9 OFFCURVE",
"319 -12 OFFCURVE",
"364 -12 CURVE SMOOTH"
);
}
);
width = 713;
},
{
hints = (
{
horizontal = 1;
origin = "{0, 34}";
target = up;
type = BottomGhost;
},
{
horizontal = 1;
origin = "{0, 36}";
target = "{0, 37}";
type = Stem;
},
{
horizontal = 1;
origin = "{0, 25}";
target = "{0, 4}";
type = Stem;
}
);
layerId = "3BBF7C5C-CA4C-45AB-AE18-0528A0ACCA90";
paths = (
{
closed = 1;
nodes = (
"540 -12 OFFCURVE",
"711 147 OFFCURVE",
"737 365 CURVE SMOOTH",
"765 589 OFFCURVE",
"640 740 OFFCURVE",
"386 740 CURVE SMOOTH",
"328 740 OFFCURVE",
"241 731 OFFCURVE",
"176 716 CURVE",
"136 388 LINE",
"54 388 LINE",
"46 323 LINE",
"128 323 LINE",
"89 0 LINE",
"184 0 LINE {name = hr01;}",
"223 323 LINE",
"450 323 LINE",
"458 388 LINE",
"231 388 LINE",
"265 660 LINE",
"297 664 OFFCURVE",
"337 667 OFFCURVE",
"377 667 CURVE SMOOTH",
"574 667 OFFCURVE",
"659 558 OFFCURVE",
"635 365 CURVE SMOOTH",
"615 198 OFFCURVE",
"498 60 OFFCURVE",
"370 60 CURVE SMOOTH",
"354 60 OFFCURVE",
"346 60 OFFCURVE",
"325 62 CURVE SMOOTH",
"281 66 OFFCURVE",
"247 40 OFFCURVE",
"224 5 CURVE",
"280 -9 OFFCURVE",
"317 -12 OFFCURVE",
"362 -12 CURVE SMOOTH"
);
}
);
width = 713;
},
{
hints = (
{
horizontal = 1;
origin = "{0, 14}";
target = up;
type = BottomGhost;
},
{
horizontal = 1;
origin = "{0, 16}";
target = "{0, 17}";
type = Stem;
},
{
horizontal = 1;
origin = "{0, 5}";
target = "{0, 22}";
type = Stem;
},
{
origin = "{0, 14}";
target = "{0, 13}";
type = Stem;
},
{
origin = "{0, 2}";
target = "{0, 25}";
type = Stem;
},
{
horizontal = 1;
origin = "{0, 28}";
target = "{0, 34}";
type = Stem;
}
);
layerId = "58254875-FB9E-4C1D-8B15-704836B9A7CF";
paths = (
{
closed = 1;
nodes = (
"566 -12 OFFCURVE",
"717 154 OFFCURVE",
"717 365 CURVE SMOOTH",
"717 602 OFFCURVE",
"560 740 OFFCURVE",
"294 740 CURVE SMOOTH",
"236 740 OFFCURVE",
"156 733 OFFCURVE",
"67 714 CURVE",
"67 401 LINE",
"-12 401 LINE",
"-12 310 LINE",
"67 310 LINE",
"67 0 LINE",
"208 0 LINE {name = hr01;}",
"208 310 LINE",
"411 310 LINE",
"411 401 LINE",
"208 401 LINE",
"208 629 LINE",
"239 634 OFFCURVE",
"268 637 OFFCURVE",
"294 637 CURVE SMOOTH",
"487 637 OFFCURVE",
"566 522 OFFCURVE",
"566 365 CURVE SMOOTH",
"566 231 OFFCURVE",
"500 91 OFFCURVE",
"347 91 CURVE SMOOTH",
"292 91 OFFCURVE",
"262 40 OFFCURVE",
"246 5 CURVE",
"304 -10 OFFCURVE",
"325 -12 OFFCURVE",
"362 -12 CURVE SMOOTH {name = hr02;}"
);
}
);
width = 713;
},
{
hints = (
{
horizontal = 1;
origin = "{0, 14}";
target = up;
type = BottomGhost;
},
{
horizontal = 1;
origin = "{0, 16}";
target = "{0, 17}";
type = Stem;
},
{
horizontal = 1;
origin = "{0, 5}";
target = "{0, 22}";
type = Stem;
},
{
horizontal = 1;
origin = "{0, 28}";
target = "{0, 34}";
type = Stem;
}
);
layerId = "5E1C92F4-866D-4CC0-BA00-538F5374015A";
paths = (
{
closed = 1;
nodes = (
"564 -12 OFFCURVE",
"735 154 OFFCURVE",
"761 365 CURVE SMOOTH",
"790 602 OFFCURVE",
"650 740 OFFCURVE",
"384 740 CURVE SMOOTH",
"326 740 OFFCURVE",
"246 733 OFFCURVE",
"154 714 CURVE",
"116 401 LINE",
"37 401 LINE",
"26 310 LINE",
"105 310 LINE",
"67 0 LINE",
"208 0 LINE {name = hr01;}",
"246 310 LINE",
"449 310 LINE",
"460 401 LINE",
"257 401 LINE",
"285 629 LINE",
"316 634 OFFCURVE",
"346 637 OFFCURVE",
"372 637 CURVE SMOOTH",
"565 637 OFFCURVE",
"630 522 OFFCURVE",
"610 365 CURVE SMOOTH",
"594 231 OFFCURVE",
"511 91 OFFCURVE",
"358 91 CURVE SMOOTH",
"303 91 OFFCURVE",
"266 40 OFFCURVE",
"246 5 CURVE",
"302 -10 OFFCURVE",
"323 -12 OFFCURVE",
"360 -12 CURVE SMOOTH {name = hr02;}"
);
}
);
width = 713;
}
);
unicode = 00D0;
},
{
glyphname = E;
lastChange = "2018-08-09 20:33:40 +0000";
layers = (
{
hints = (
{
horizontal = 1;
origin = "{0, 6}";
target = "{0, 3}";
type = Stem;
},
{
horizontal = 1;
origin = "{1, 1}";
target = "{1, 4}";
type = Stem;
},
{
horizontal = 1;
origin = "{0, 2}";
target = "{0, 7}";
type = Stem;
},
{
origin = "{0, 6}";
target = "{0, 3}";
type = Stem;
}
);
layerId = "BAA2CE79-BA31-4701-835E-3D9478C3F4B2";
paths = (
{
closed = 1;
nodes = (
"518 0 LINE",
"518 72 LINE",
"184 72 LINE",
"184 655 LINE",
"503 655 LINE",
"503 727 LINE",
"89 727 LINE {name = hr00;}",
"89 0 LINE"
);
},
{
closed = 1;
nodes = (
"469 346 LINE",
"469 416 LINE",
"308 416 LINE",
"260 416 OFFCURVE",
"236 384 OFFCURVE",
"222 346 CURVE"
);
}
);
width = 577;
},
{
hints = (
{
horizontal = 1;
origin = "{0, 6}";
target = "{0, 3}";
type = Stem;
},
{
horizontal = 1;
origin = "{1, 1}";
target = "{1, 4}";
type = Stem;
},
{
horizontal = 1;
origin = "{0, 2}";
target = "{0, 7}";
type = Stem;
}
);
layerId = "3BBF7C5C-CA4C-45AB-AE18-0528A0ACCA90";
paths = (
{
closed = 1;
nodes = (
"518 0 LINE",
"526 72 LINE",
"192 72 LINE",
"264 655 LINE",
"583 655 LINE",
"592 727 LINE",
"178 727 LINE {name = hr00;}",
"89 0 LINE"
);
},
{
closed = 1;
nodes = (
"511 346 LINE",
"520 416 LINE",
"359 416 LINE",
"311 416 OFFCURVE",
"283 384 OFFCURVE",
"264 346 CURVE"
);
}
);
width = 577;
},
{
hints = (
{
horizontal = 1;
origin = "{0, 6}";
target = "{0, 3}";
type = Stem;
},
{
horizontal = 1;
origin = "{1, 5}";
target = "{1, 2}";
type = Stem;
},
{
horizontal = 1;
origin = "{0, 2}";
target = "{0, 7}";
type = Stem;
},
{
origin = "{0, 6}";
target = "{0, 3}";
type = Stem;
}
);
layerId = "58254875-FB9E-4C1D-8B15-704836B9A7CF";
paths = (
{
closed = 1;
nodes = (
"535 0 LINE",
"535 103 LINE",
"226 103 LINE",
"226 624 LINE",
"519 624 LINE",
"519 727 LINE",
"83 727 LINE {name = hr00;}",
"83 0 LINE"
);
},
{
closed = 1;
nodes = (
"485 331 LINE",
"485 432 LINE",
"364 432 LINE",
"306 432 OFFCURVE",
"277 375 OFFCURVE",
"264 331 CURVE"
);
}
);
width = 588;
},
{
hints = (
{
horizontal = 1;
origin = "{0, 6}";
target = "{0, 3}";
type = Stem;
},
{
horizontal = 1;
origin = "{1, 5}";
target = "{1, 2}";
type = Stem;
},
{
horizontal = 1;
origin = "{0, 2}";
target = "{0, 7}";
type = Stem;
}
);
layerId = "5E1C92F4-866D-4CC0-BA00-538F5374015A";
paths = (
{
closed = 1;
nodes = (
"535 0 LINE",
"547 103 LINE",
"238 103 LINE",
"302 624 LINE",
"595 624 LINE",
"608 727 LINE",
"172 727 LINE {name = hr00;}",
"83 0 LINE"
);
},
{
closed = 1;
nodes = (
"525 331 LINE",
"538 432 LINE",
"417 432 LINE",
"359 432 OFFCURVE",
"323 375 OFFCURVE",
"304 331 CURVE"
);
}
);
width = 588;
}
);
unicode = 0045;
},
{
glyphname = Eacute;
lastChange = "2018-08-09 20:33:40 +0000";
layers = (
{
hints = (
{
horizontal = 1;
origin = "{0, 6}";
target = "{0, 3}";
type = Stem;
},
{
horizontal = 1;
origin = "{1, 1}";
target = "{1, 4}";
type = Stem;
},
{
horizontal = 1;
origin = "{0, 2}";
target = "{2, 3}";
type = Stem;
},
{
origin = "{0, 6}";
target = "{0, 3}";
type = Stem;
}
);
layerId = "BAA2CE79-BA31-4701-835E-3D9478C3F4B2";
paths = (
{
closed = 1;
nodes = (
"518 0 LINE",
"518 72 LINE",
"184 72 LINE",
"184 655 LINE",
"503 655 LINE",
"503 727 LINE",
"89 727 LINE",
"89 0 LINE"
);
},
{
closed = 1;
nodes = (
"469 346 LINE",
"469 416 LINE",
"308 416 LINE",
"260 416 OFFCURVE",
"236 384 OFFCURVE",
"222 346 CURVE"
);
},
{
closed = 1;
nodes = (
"283 758 OFFCURVE",
"320 763 OFFCURVE",
"347 792 CURVE",
"435 890 LINE {name = hr01;}",
"338 890 LINE",
"249 766 LINE"
);
}
);
width = 577;
},
{
hints = (
{
horizontal = 1;
origin = "{0, 6}";
target = "{0, 3}";
type = Stem;
},
{
horizontal = 1;
origin = "{1, 1}";
target = "{1, 4}";
type = Stem;
},
{
horizontal = 1;
origin = "{0, 2}";
target = "{2, 3}";
type = Stem;
}
);
layerId = "3BBF7C5C-CA4C-45AB-AE18-0528A0ACCA90";
paths = (
{
closed = 1;
nodes = (
"518 0 LINE",
"526 72 LINE",
"192 72 LINE",
"264 655 LINE",
"583 655 LINE",
"592 727 LINE",
"178 727 LINE",
"89 0 LINE"
);
},
{
closed = 1;
nodes = (
"511 346 LINE",
"520 416 LINE",
"359 416 LINE",
"311 416 OFFCURVE",
"283 384 OFFCURVE",
"264 346 CURVE"
);
},
{
closed = 1;
nodes = (
"376 758 OFFCURVE",
"413 763 OFFCURVE",
"444 792 CURVE",
"544 890 LINE",
"447 890 LINE {name = hr01;}",
"343 766 LINE"
);
}
);
width = 577;
},
{
hints = (
{
horizontal = 1;
origin = "{0, 6}";
target = "{0, 3}";
type = Stem;
},
{
horizontal = 1;
origin = "{1, 5}";
target = "{1, 2}";
type = Stem;
},
{
horizontal = 1;
origin = "{0, 2}";
target = "{0, 7}";
type = Stem;
},
{
horizontal = 1;
origin = "{2, 3}";
target = up;
type = BottomGhost;
},
{
origin = "{0, 6}";
target = "{0, 3}";
type = Stem;
}
);
layerId = "58254875-FB9E-4C1D-8B15-704836B9A7CF";
paths = (
{
closed = 1;
nodes = (
"519 0 LINE",
"519 103 LINE",
"210 103 LINE",
"210 624 LINE",
"503 624 LINE",
"503 727 LINE",
"67 727 LINE {name = hr00;}",
"67 0 LINE"
);
},
{
closed = 1;
nodes = (
"469 331 LINE",
"469 432 LINE",
"348 432 LINE",
"290 432 OFFCURVE",
"261 375 OFFCURVE",
"248 331 CURVE"
);
},
{
closed = 1;
nodes = (
"268 756 OFFCURVE",
"341 763 OFFCURVE",
"381 808 CURVE",
"453 890 LINE",
"320 890 LINE",
"234 765 LINE"
);
}
);
width = 577;
},
{
hints = (
{
horizontal = 1;
origin = "{0, 6}";
target = "{0, 3}";
type = Stem;
},
{
horizontal = 1;
origin = "{1, 5}";
target = "{1, 2}";
type = Stem;
},
{
horizontal = 1;
origin = "{0, 2}";
target = "{0, 7}";
type = Stem;
},
{
horizontal = 1;
origin = "{2, 3}";
target = up;
type = BottomGhost;
}
);
layerId = "5E1C92F4-866D-4CC0-BA00-538F5374015A";
paths = (
{
closed = 1;
nodes = (
"519 0 LINE",
"531 103 LINE",
"222 103 LINE",
"286 624 LINE",
"579 624 LINE",
"592 727 LINE",
"156 727 LINE {name = hr00;}",
"67 0 LINE"
);
},
{
closed = 1;
nodes = (
"509 331 LINE",
"522 432 LINE",
"401 432 LINE",
"343 432 OFFCURVE",
"307 375 OFFCURVE",
"288 331 CURVE"
);
},
{
closed = 1;
nodes = (
"360 756 OFFCURVE",
"434 763 OFFCURVE",
"480 808 CURVE",
"562 890 LINE",
"429 890 LINE",
"327 765 LINE"
);
}
);
width = 577;
}
);
unicode = 00C9;
},
{
glyphname = Ecircumflex;
lastChange = "2018-08-09 20:33:40 +0000";
layers = (
{
hints = (
{
horizontal = 1;
origin = "{0, 6}";
target = "{0, 3}";
type = Stem;
},
{
horizontal = 1;
origin = "{1, 1}";
target = "{1, 4}";
type = Stem;
},
{
horizontal = 1;
origin = "{0, 2}";
target = "{0, 7}";
type = Stem;
},
{
horizontal = 1;
origin = "{2, 5}";
target = up;
type = BottomGhost;
},
{
origin = "{0, 6}";
target = "{0, 3}";
type = Stem;
}
);
layerId = "BAA2CE79-BA31-4701-835E-3D9478C3F4B2";
paths = (
{
closed = 1;
nodes = (
"518 0 LINE",
"518 72 LINE",
"184 72 LINE",
"184 655 LINE",
"503 655 LINE",
"503 727 LINE",
"89 727 LINE {name = hr00;}",
"89 0 LINE"
);
},
{
closed = 1;
nodes = (
"469 346 LINE",
"469 416 LINE",
"308 416 LINE",
"260 416 OFFCURVE",
"236 384 OFFCURVE",
"222 346 CURVE"
);
},
{
closed = 1;
nodes = (
"302 821 LINE",
"390 762 LINE",
"442 770 LINE",
"331 890 LINE",
"274 890 LINE",
"165 770 LINE",
"214 761 LINE"
);
}
);
width = 577;
},
{
hints = (
{
horizontal = 1;
origin = "{0, 6}";
target = "{0, 3}";
type = Stem;
},
{
horizontal = 1;
origin = "{1, 1}";
target = "{1, 4}";
type = Stem;
},
{
horizontal = 1;
origin = "{0, 2}";
target = "{0, 7}";
type = Stem;
},
{
horizontal = 1;
origin = "{2, 5}";
target = up;
type = BottomGhost;
}
);
layerId = "3BBF7C5C-CA4C-45AB-AE18-0528A0ACCA90";
paths = (
{
closed = 1;
nodes = (
"518 0 LINE",
"526 72 LINE",
"192 72 LINE",
"264 655 LINE",
"583 655 LINE",
"592 727 LINE",
"178 727 LINE {name = hr00;}",
"89 0 LINE"
);
},
{
closed = 1;
nodes = (
"511 346 LINE",
"520 416 LINE",
"359 416 LINE",
"311 416 OFFCURVE",
"283 384 OFFCURVE",
"264 346 CURVE"
);
},
{
closed = 1;
nodes = (
"402 821 LINE",
"483 762 LINE",
"536 770 LINE",
"440 890 LINE",
"383 890 LINE",
"259 770 LINE",
"307 761 LINE"
);
}
);
width = 577;
},
{
hints = (
{
horizontal = 1;
origin = "{0, 6}";
target = "{0, 3}";
type = Stem;
},
{
horizontal = 1;
origin = "{1, 5}";
target = "{1, 2}";
type = Stem;
},
{
horizontal = 1;
origin = "{0, 2}";
target = "{0, 7}";
type = Stem;
},
{
horizontal = 1;
origin = "{2, 5}";
target = up;
type = BottomGhost;
},
{
origin = "{0, 6}";
target = "{0, 3}";
type = Stem;
}
);
layerId = "58254875-FB9E-4C1D-8B15-704836B9A7CF";
paths = (
{
closed = 1;
nodes = (
"519 0 LINE",
"519 103 LINE",
"210 103 LINE",
"210 624 LINE",
"503 624 LINE",
"503 727 LINE",
"67 727 LINE {name = hr00;}",
"67 0 LINE"
);
},
{
closed = 1;
nodes = (
"469 331 LINE",
"469 432 LINE",
"348 432 LINE",
"290 432 OFFCURVE",
"261 375 OFFCURVE",
"248 331 CURVE"
);
},
{
closed = 1;
nodes = (
"302 812 LINE",
"380 756 LINE",
"461 774 LINE",
"354 890 LINE",
"251 890 LINE",
"146 774 LINE",
"226 756 LINE"
);
}
);
width = 577;
},
{
hints = (
{
horizontal = 1;
origin = "{0, 6}";
target = "{0, 3}";
type = Stem;
},
{
horizontal = 1;
origin = "{1, 5}";
target = "{1, 2}";
type = Stem;
},
{
horizontal = 1;
origin = "{0, 2}";
target = "{0, 7}";
type = Stem;
},
{
horizontal = 1;
origin = "{2, 5}";
target = up;
type = BottomGhost;
}
);
layerId = "5E1C92F4-866D-4CC0-BA00-538F5374015A";
paths = (
{
closed = 1;
nodes = (
"519 0 LINE",
"531 103 LINE",
"222 103 LINE",
"286 624 LINE",
"579 624 LINE",
"592 727 LINE",
"156 727 LINE {name = hr00;}",
"67 0 LINE"
);
},
{
closed = 1;
nodes = (
"509 331 LINE",
"522 432 LINE",
"401 432 LINE",
"343 432 OFFCURVE",
"307 375 OFFCURVE",
"288 331 CURVE"
);
},
{
closed = 1;
nodes = (
"401 812 LINE",
"472 756 LINE",
"556 774 LINE",
"463 890 LINE",
"360 890 LINE",
"241 774 LINE",
"318 756 LINE"
);
}
);
width = 577;
}
);
unicode = 00CA;
},
{
glyphname = Edieresis;
lastChange = "2018-08-09 20:33:40 +0000";
layers = (
{
hints = (
{
horizontal = 1;
origin = "{0, 6}";
target = "{0, 3}";
type = Stem;
},
{
horizontal = 1;
origin = "{1, 1}";
target = "{1, 4}";
type = Stem;
},
{
horizontal = 1;
origin = "{0, 2}";
target = "{0, 7}";
type = Stem;
},
{
horizontal = 1;
origin = "{2, 8}";
target = "{2, 2}";
type = Stem;
},
{
origin = "{2, 11}";
target = "{2, 5}";
type = Stem;
},
{
origin = "{3, 11}";
target = "{3, 5}";
type = Stem;
}
);
layerId = "BAA2CE79-BA31-4701-835E-3D9478C3F4B2";
paths = (
{
closed = 1;
nodes = (
"518 0 LINE",
"518 72 LINE",
"184 72 LINE",
"184 655 LINE",
"503 655 LINE",
"503 727 LINE",
"89 727 LINE",
"89 0 LINE"
);
},
{
closed = 1;
nodes = (
"469 346 LINE",
"469 416 LINE",
"308 416 LINE",
"260 416 OFFCURVE",
"236 384 OFFCURVE",
"222 346 CURVE"
);
},
{
closed = 1;
nodes = (
"232 788 OFFCURVE",
"256 811 OFFCURVE",
"256 840 CURVE SMOOTH",
"256 869 OFFCURVE",
"232 892 OFFCURVE",
"203 892 CURVE SMOOTH",
"175 892 OFFCURVE",
"151 869 OFFCURVE",
"151 840 CURVE SMOOTH",
"151 811 OFFCURVE",
"175 788 OFFCURVE",
"203 788 CURVE SMOOTH"
);
},
{
closed = 1;
nodes = (
"426 788 OFFCURVE",
"450 811 OFFCURVE",
"450 840 CURVE SMOOTH",
"450 869 OFFCURVE",
"426 892 OFFCURVE",
"398 892 CURVE SMOOTH",
"369 892 OFFCURVE",
"345 869 OFFCURVE",
"345 840 CURVE SMOOTH",
"345 811 OFFCURVE",
"369 788 OFFCURVE",
"398 788 CURVE SMOOTH"
);
}
);
width = 577;
},
{
hints = (
{
horizontal = 1;
origin = "{0, 6}";
target = "{0, 3}";
type = Stem;
},
{
horizontal = 1;
origin = "{1, 1}";
target = "{1, 4}";
type = Stem;
},
{
horizontal = 1;
origin = "{0, 2}";
target = "{0, 7}";
type = Stem;
},
{
horizontal = 1;
origin = "{2, 8}";
target = "{2, 2}";
type = Stem;
}
);
layerId = "3BBF7C5C-CA4C-45AB-AE18-0528A0ACCA90";
paths = (
{
closed = 1;
nodes = (
"518 0 LINE",
"526 72 LINE",
"192 72 LINE",
"264 655 LINE",
"583 655 LINE",
"592 727 LINE",
"178 727 LINE {name = hr00;}",
"89 0 LINE"
);
},
{
closed = 1;
nodes = (
"511 346 LINE",
"520 416 LINE",
"359 416 LINE",
"311 416 OFFCURVE",
"283 384 OFFCURVE",
"264 346 CURVE"
);
},
{
closed = 1;
nodes = (
"328 788 OFFCURVE",
"355 811 OFFCURVE",
"359 840 CURVE SMOOTH",
"362 869 OFFCURVE",
"341 892 OFFCURVE",
"312 892 CURVE SMOOTH",
"284 892 OFFCURVE",
"257 869 OFFCURVE",
"254 840 CURVE SMOOTH",
"250 811 OFFCURVE",
"271 788 OFFCURVE",
"299 788 CURVE SMOOTH"
);
},
{
closed = 1;
nodes = (
"522 788 OFFCURVE",
"549 811 OFFCURVE",
"553 840 CURVE SMOOTH",
"556 869 OFFCURVE",
"535 892 OFFCURVE",
"507 892 CURVE SMOOTH",
"478 892 OFFCURVE",
"451 869 OFFCURVE",
"448 840 CURVE SMOOTH",
"444 811 OFFCURVE",
"465 788 OFFCURVE",
"494 788 CURVE SMOOTH"
);
}
);
width = 577;
},
{
hints = (
{
horizontal = 1;
origin = "{0, 6}";
target = "{0, 3}";
type = Stem;
},
{
horizontal = 1;
origin = "{1, 5}";
target = "{1, 2}";
type = Stem;
},
{
horizontal = 1;
origin = "{0, 2}";
target = "{0, 7}";
type = Stem;
},
{
horizontal = 1;
origin = "{2, 8}";
target = "{2, 2}";
type = Stem;
},
{
origin = "{2, 11}";
target = "{2, 5}";
type = Stem;
},
{
origin = "{3, 11}";
target = "{1, 4}";
type = Stem;
}
);
layerId = "58254875-FB9E-4C1D-8B15-704836B9A7CF";
paths = (
{
closed = 1;
nodes = (
"519 0 LINE",
"519 103 LINE",
"210 103 LINE",
"210 624 LINE",
"503 624 LINE",
"503 727 LINE",
"67 727 LINE",
"67 0 LINE"
);
},
{
closed = 1;
nodes = (
"469 331 LINE",
"469 432 LINE",
"348 432 LINE",
"290 432 OFFCURVE",
"261 375 OFFCURVE",
"248 331 CURVE"
);
},
{
closed = 1;
nodes = (
"237 777 OFFCURVE",
"266 805 OFFCURVE",
"266 840 CURVE SMOOTH",
"266 875 OFFCURVE",
"237 903 OFFCURVE",
"202 903 CURVE SMOOTH",
"168 903 OFFCURVE",
"139 875 OFFCURVE",
"139 840 CURVE SMOOTH {name = hr01;}",
"139 805 OFFCURVE",
"168 777 OFFCURVE",
"202 777 CURVE SMOOTH"
);
},
{
closed = 1;
nodes = (
"432 777 OFFCURVE",
"461 805 OFFCURVE",
"461 840 CURVE SMOOTH",
"461 875 OFFCURVE",
"432 903 OFFCURVE",
"397 903 CURVE SMOOTH",
"363 903 OFFCURVE",
"334 875 OFFCURVE",
"334 840 CURVE SMOOTH",
"334 805 OFFCURVE",
"363 777 OFFCURVE",
"397 777 CURVE SMOOTH"
);
}
);
width = 577;
},
{
hints = (
{
horizontal = 1;
origin = "{0, 6}";
target = "{0, 3}";
type = Stem;
},
{
horizontal = 1;
origin = "{1, 5}";
target = "{1, 2}";
type = Stem;
},
{
horizontal = 1;
origin = "{0, 2}";
target = "{0, 7}";
type = Stem;
},
{
horizontal = 1;
origin = "{2, 8}";
target = "{2, 2}";
type = Stem;
}
);
layerId = "5E1C92F4-866D-4CC0-BA00-538F5374015A";
paths = (
{
closed = 1;
nodes = (
"519 0 LINE",
"531 103 LINE",
"222 103 LINE",
"286 624 LINE",
"579 624 LINE",
"592 727 LINE",
"156 727 LINE {name = hr00;}",
"67 0 LINE"
);
},
{
closed = 1;
nodes = (
"509 331 LINE",
"522 432 LINE",
"401 432 LINE",
"343 432 OFFCURVE",
"307 375 OFFCURVE",
"288 331 CURVE"
);
},
{
closed = 1;
nodes = (
"332 777 OFFCURVE",
"364 805 OFFCURVE",
"369 840 CURVE SMOOTH",
"373 875 OFFCURVE",
"347 903 OFFCURVE",
"312 903 CURVE SMOOTH",
"278 903 OFFCURVE",
"246 875 OFFCURVE",
"242 840 CURVE SMOOTH",
"237 805 OFFCURVE",
"263 777 OFFCURVE",
"297 777 CURVE SMOOTH"
);
},
{
closed = 1;
nodes = (
"527 777 OFFCURVE",
"559 805 OFFCURVE",
"564 840 CURVE SMOOTH",
"568 875 OFFCURVE",
"542 903 OFFCURVE",
"507 903 CURVE SMOOTH",
"473 903 OFFCURVE",
"441 875 OFFCURVE",
"437 840 CURVE SMOOTH",
"432 805 OFFCURVE",
"458 777 OFFCURVE",
"492 777 CURVE SMOOTH"
);
}
);
width = 577;
}
);
unicode = 00CB;
},
{
glyphname = Egrave;
lastChange = "2018-08-09 20:33:40 +0000";
layers = (
{
hints = (
{
horizontal = 1;
origin = "{0, 6}";
target = "{0, 3}";
type = Stem;
},
{
horizontal = 1;
origin = "{1, 1}";
target = "{1, 4}";
type = Stem;
},
{
horizontal = 1;
origin = "{0, 2}";
target = "{2, 5}";
type = Stem;
},
{
origin = "{0, 6}";
target = "{0, 3}";
type = Stem;
}
);
layerId = "BAA2CE79-BA31-4701-835E-3D9478C3F4B2";
paths = (
{
closed = 1;
nodes = (
"518 0 LINE",
"518 72 LINE",
"184 72 LINE",
"184 655 LINE",
"503 655 LINE",
"503 727 LINE",
"89 727 LINE",
"89 0 LINE"
);
},
{
closed = 1;
nodes = (
"469 346 LINE",
"469 416 LINE",
"308 416 LINE",
"260 416 OFFCURVE",
"236 384 OFFCURVE",
"222 346 CURVE"
);
},
{
closed = 1;
nodes = (
"282 890 LINE {name = hr01;}",
"188 890 LINE",
"261 792 LINE",
"283 763 OFFCURVE",
"322 758 OFFCURVE",
"356 766 CURVE"
);
}
);
width = 577;
},
{
hints = (
{
horizontal = 1;
origin = "{0, 6}";
target = "{0, 3}";
type = Stem;
},
{
horizontal = 1;
origin = "{1, 1}";
target = "{1, 4}";
type = Stem;
},
{
horizontal = 1;
origin = "{0, 2}";
target = "{2, 5}";
type = Stem;
}
);
layerId = "3BBF7C5C-CA4C-45AB-AE18-0528A0ACCA90";
paths = (
{
closed = 1;
nodes = (
"518 0 LINE",
"526 72 LINE",
"192 72 LINE",
"264 655 LINE",
"583 655 LINE",
"592 727 LINE",
"178 727 LINE",
"89 0 LINE"
);
},
{
closed = 1;
nodes = (
"511 346 LINE",
"520 416 LINE",
"359 416 LINE",
"311 416 OFFCURVE",
"283 384 OFFCURVE",
"264 346 CURVE"
);
},
{
closed = 1;
nodes = (
"391 890 LINE",
"297 890 LINE {name = hr01;}",
"358 792 LINE",
"376 763 OFFCURVE",
"415 758 OFFCURVE",
"450 766 CURVE"
);
}
);
width = 577;
},
{
hints = (
{
horizontal = 1;
origin = "{0, 6}";
target = "{0, 3}";
type = Stem;
},
{
horizontal = 1;
origin = "{1, 5}";
target = "{1, 2}";
type = Stem;
},
{
horizontal = 1;
origin = "{0, 2}";
target = "{0, 7}";
type = Stem;
},
{
horizontal = 1;
origin = "{2, 5}";
target = up;
type = BottomGhost;
},
{
origin = "{0, 6}";
target = "{0, 3}";
type = Stem;
}
);
layerId = "58254875-FB9E-4C1D-8B15-704836B9A7CF";
paths = (
{
closed = 1;
nodes = (
"519 0 LINE",
"519 103 LINE",
"210 103 LINE",
"210 624 LINE",
"503 624 LINE",
"503 727 LINE",
"67 727 LINE {name = hr00;}",
"67 0 LINE"
);
},
{
closed = 1;
nodes = (
"469 331 LINE",
"469 432 LINE",
"348 432 LINE",
"290 432 OFFCURVE",
"261 375 OFFCURVE",
"248 331 CURVE"
);
},
{
closed = 1;
nodes = (
"301 890 LINE",
"168 890 LINE",
"229 808 LINE",
"263 762 OFFCURVE",
"341 756 OFFCURVE",
"375 765 CURVE"
);
}
);
width = 577;
},
{
hints = (
{
horizontal = 1;
origin = "{0, 6}";
target = "{0, 3}";
type = Stem;
},
{
horizontal = 1;
origin = "{1, 5}";
target = "{1, 2}";
type = Stem;
},
{
horizontal = 1;
origin = "{0, 2}";
target = "{0, 7}";
type = Stem;
},
{
horizontal = 1;
origin = "{2, 5}";
target = up;
type = BottomGhost;
}
);
layerId = "5E1C92F4-866D-4CC0-BA00-538F5374015A";
paths = (
{
closed = 1;
nodes = (
"519 0 LINE",
"531 103 LINE",
"222 103 LINE",
"286 624 LINE",
"579 624 LINE",
"592 727 LINE",
"156 727 LINE {name = hr00;}",
"67 0 LINE"
);
},
{
closed = 1;
nodes = (
"509 331 LINE",
"522 432 LINE",
"401 432 LINE",
"343 432 OFFCURVE",
"307 375 OFFCURVE",
"288 331 CURVE"
);
},
{
closed = 1;
nodes = (
"410 890 LINE",
"277 890 LINE",
"328 808 LINE",
"356 762 OFFCURVE",
"433 756 OFFCURVE",
"468 765 CURVE"
);
}
);
width = 577;
}
);
unicode = 00C8;
},
{
glyphname = F;
lastChange = "2018-08-09 20:33:40 +0000";
layers = (
{
hints = (
{
horizontal = 1;
origin = "{0, 4}";
target = up;
type = BottomGhost;
},
{
horizontal = 1;
origin = "{1, 1}";
target = "{1, 4}";
type = Stem;
},
{
horizontal = 1;
origin = "{0, 2}";
target = "{0, 5}";
type = Stem;
},
{
origin = "{0, 4}";
target = "{0, 3}";
type = Stem;
}
);
layerId = "BAA2CE79-BA31-4701-835E-3D9478C3F4B2";
paths = (
{
closed = 1;
nodes = (
"184 0 LINE",
"184 655 LINE",
"503 655 LINE",
"503 727 LINE",
"89 727 LINE {name = hr00;}",
"89 0 LINE"
);
},
{
closed = 1;
nodes = (
"469 346 LINE",
"469 416 LINE",
"308 416 LINE",
"260 416 OFFCURVE",
"236 384 OFFCURVE",
"222 346 CURVE"
);
}
);
width = 573;
},
{
hints = (
{
horizontal = 1;
origin = "{0, 4}";
target = up;
type = BottomGhost;
},
{
horizontal = 1;
origin = "{1, 1}";
target = "{1, 4}";
type = Stem;
},
{
horizontal = 1;
origin = "{0, 2}";
target = "{0, 5}";
type = Stem;
}
);
layerId = "3BBF7C5C-CA4C-45AB-AE18-0528A0ACCA90";
paths = (
{
closed = 1;
nodes = (
"184 0 LINE",
"264 655 LINE",
"583 655 LINE",
"592 727 LINE",
"178 727 LINE {name = hr00;}",
"89 0 LINE"
);
},
{
closed = 1;
nodes = (
"511 346 LINE",
"520 416 LINE",
"359 416 LINE",
"311 416 OFFCURVE",
"283 384 OFFCURVE",
"264 346 CURVE"
);
}
);
width = 573;
},
{
hints = (
{
horizontal = 1;
origin = "{0, 4}";
target = up;
type = BottomGhost;
},
{
horizontal = 1;
origin = "{1, 5}";
target = "{1, 2}";
type = Stem;
},
{
horizontal = 1;
origin = "{0, 2}";
target = "{0, 5}";
type = Stem;
},
{
origin = "{0, 4}";
target = "{0, 3}";
type = Stem;
}
);
layerId = "58254875-FB9E-4C1D-8B15-704836B9A7CF";
paths = (
{
closed = 1;
nodes = (
"226 0 LINE",
"226 624 LINE",
"519 624 LINE",
"519 727 LINE",
"83 727 LINE {name = hr00;}",
"83 0 LINE"
);
},
{
closed = 1;
nodes = (
"485 331 LINE",
"485 432 LINE",
"364 432 LINE",
"306 432 OFFCURVE",
"277 375 OFFCURVE",
"264 331 CURVE"
);
}
);
width = 584;
},
{
hints = (
{
horizontal = 1;
origin = "{0, 4}";
target = up;
type = BottomGhost;
},
{
horizontal = 1;
origin = "{1, 5}";
target = "{1, 2}";
type = Stem;
},
{
horizontal = 1;
origin = "{0, 2}";
target = "{0, 5}";
type = Stem;
}
);
layerId = "5E1C92F4-866D-4CC0-BA00-538F5374015A";
paths = (
{
closed = 1;
nodes = (
"226 0 LINE",
"302 624 LINE",
"595 624 LINE",
"608 727 LINE",
"172 727 LINE {name = hr00;}",
"83 0 LINE"
);
},
{
closed = 1;
nodes = (
"525 331 LINE",
"538 432 LINE",
"417 432 LINE",
"359 432 OFFCURVE",
"323 375 OFFCURVE",
"304 331 CURVE"
);
}
);
width = 584;
}
);
unicode = 0046;
},
{
glyphname = G;
lastChange = "2018-08-09 20:24:58 +0000";
layers = (
{
hints = (
{
horizontal = 1;
origin = "{0, 14}";
target = "{0, 5}";
type = Stem;
},
{
horizontal = 1;
origin = "{0, 27}";
target = "{0, 20}";
type = Stem;
},
{
origin = "{0, 17}";
target = "{0, 2}";
type = Stem;
},
{
origin = "{0, 8}";
target = "{0, 11}";
type = Stem;
}
);
layerId = "BAA2CE79-BA31-4701-835E-3D9478C3F4B2";
paths = (
{
closed = 1;
nodes = (
"272 667 OFFCURVE",
"137 568 OFFCURVE",
"137 363 CURVE SMOOTH",
"137 159 OFFCURVE",
"272 60 OFFCURVE",
"410 60 CURVE SMOOTH",
"439 60 OFFCURVE",
"478 63 OFFCURVE",
"522 77 CURVE",
"522 337 LINE",
"614 337 LINE",
"614 37 LINE",
"542 -1 OFFCURVE",
"467 -12 OFFCURVE",
"410 -12 CURVE SMOOTH",
"205 -12 OFFCURVE",
"35 128 OFFCURVE",
"35 363 CURVE SMOOTH",
"35 588 OFFCURVE",
"205 740 OFFCURVE",
"410 740 CURVE SMOOTH",
"467 740 OFFCURVE",
"538 729 OFFCURVE",
"608 696 CURVE",
"582 631 LINE",
"511 662 OFFCURVE",
"456 667 OFFCURVE",
"410 667 CURVE SMOOTH {name = hr00;}"
);
}
);
width = 645;
},
{
hints = (
{
horizontal = 1;
origin = "{0, 14}";
target = "{0, 5}";
type = Stem;
},
{
horizontal = 1;
origin = "{0, 27}";
target = "{0, 20}";
type = Stem;
}
);
layerId = "3BBF7C5C-CA4C-45AB-AE18-0528A0ACCA90";
paths = (
{
closed = 1;
nodes = (
"353 667 OFFCURVE",
"206 568 OFFCURVE",
"181 363 CURVE SMOOTH",
"156 159 OFFCURVE",
"279 60 OFFCURVE",
"417 60 CURVE SMOOTH",
"446 60 OFFCURVE",
"485 63 OFFCURVE",
"531 77 CURVE",
"563 337 LINE",
"655 337 LINE",
"618 37 LINE",
"541 -1 OFFCURVE",
"465 -12 OFFCURVE",
"408 -12 CURVE SMOOTH",
"203 -12 OFFCURVE",
"50 128 OFFCURVE",
"79 363 CURVE SMOOTH",
"107 588 OFFCURVE",
"295 740 OFFCURVE",
"500 740 CURVE SMOOTH",
"557 740 OFFCURVE",
"627 729 OFFCURVE",
"693 696 CURVE",
"659 631 LINE",
"592 662 OFFCURVE",
"537 667 OFFCURVE",
"491 667 CURVE SMOOTH {name = hr00;}"
);
}
);
width = 645;
},
{
hints = (
{
horizontal = 1;
origin = "{0, 14}";
target = "{0, 5}";
type = Stem;
},
{
horizontal = 1;
origin = "{0, 27}";
target = "{0, 20}";
type = Stem;
},
{
origin = "{0, 17}";
target = "{0, 2}";
type = Stem;
},
{
origin = "{0, 8}";
target = "{0, 11}";
type = Stem;
}
);
layerId = "58254875-FB9E-4C1D-8B15-704836B9A7CF";
paths = (
{
closed = 1;
nodes = (
"282 637 OFFCURVE",
"194 508 OFFCURVE",
"194 363 CURVE SMOOTH",
"194 225 OFFCURVE",
"279 91 OFFCURVE",
"438 91 CURVE SMOOTH",
"467 91 OFFCURVE",
"492 92 OFFCURVE",
"534 102 CURVE",
"534 337 LINE",
"662 337 LINE",
"662 37 LINE",
"589 4 OFFCURVE",
"494 -12 OFFCURVE",
"438 -12 CURVE SMOOTH",
"191 -12 OFFCURVE",
"42 154 OFFCURVE",
"42 363 CURVE SMOOTH",
"42 573 OFFCURVE",
"197 740 OFFCURVE",
"441 740 CURVE SMOOTH",
"497 740 OFFCURVE",
"576 728 OFFCURVE",
"652 696 CURVE",
"615 600 LINE",
"540 629 OFFCURVE",
"487 637 OFFCURVE",
"441 637 CURVE SMOOTH {name = hr00;}"
);
}
);
width = 724;
},
{
hints = (
{
horizontal = 1;
origin = "{0, 14}";
target = "{0, 5}";
type = Stem;
},
{
horizontal = 1;
origin = "{0, 27}";
target = "{0, 20}";
type = Stem;
}
);
layerId = "5E1C92F4-866D-4CC0-BA00-538F5374015A";
paths = (
{
closed = 1;
nodes = (
"360 637 OFFCURVE",
"256 508 OFFCURVE",
"238 363 CURVE SMOOTH",
"221 225 OFFCURVE",
"290 91 OFFCURVE",
"449 91 CURVE SMOOTH",
"478 91 OFFCURVE",
"503 92 OFFCURVE",
"546 102 CURVE",
"575 337 LINE",
"703 337 LINE",
"666 37 LINE",
"589 4 OFFCURVE",
"492 -12 OFFCURVE",
"436 -12 CURVE SMOOTH",
"189 -12 OFFCURVE",
"60 154 OFFCURVE",
"86 363 CURVE SMOOTH",
"112 573 OFFCURVE",
"287 740 OFFCURVE",
"531 740 CURVE SMOOTH",
"587 740 OFFCURVE",
"665 728 OFFCURVE",
"737 696 CURVE",
"688 600 LINE",
"617 629 OFFCURVE",
"565 637 OFFCURVE",
"519 637 CURVE SMOOTH {name = hr00;}"
);
}
);
width = 724;
}
);
unicode = 0047;
},
{
glyphname = H;
lastChange = "2018-08-09 20:33:40 +0000";
layers = (
{
hints = (
{
horizontal = 1;
origin = "{1, 2}";
target = up;
type = BottomGhost;
},
{
horizontal = 1;
origin = "{0, 5}";
target = "{0, 8}";
type = Stem;
},
{
horizontal = 1;
origin = "{1, 3}";
target = down;
type = TopGhost;
},
{
origin = "{1, 2}";
target = "{1, 1}";
type = Stem;
},
{
origin = "{0, 3}";
target = "{0, 2}";
type = Stem;
}
);
layerId = "BAA2CE79-BA31-4701-835E-3D9478C3F4B2";
paths = (
{
closed = 1;
nodes = (
"643 0 LINE",
"643 727 LINE",
"548 727 LINE",
"548 416 LINE {name = hr00;}",
"307 416 LINE",
"260 416 OFFCURVE",
"236 384 OFFCURVE",
"222 346 CURVE",
"548 346 LINE",
"548 0 LINE"
);
},
{
closed = 1;
nodes = (
"184 0 LINE",
"184 727 LINE",
"89 727 LINE",
"89 0 LINE"
);
}
);
width = 730;
},
{
hints = (
{
horizontal = 1;
origin = "{1, 2}";
target = up;
type = BottomGhost;
},
{
horizontal = 1;
origin = "{0, 5}";
target = "{0, 8}";
type = Stem;
},
{
horizontal = 1;
origin = "{1, 3}";
target = down;
type = TopGhost;
}
);
layerId = "3BBF7C5C-CA4C-45AB-AE18-0528A0ACCA90";
paths = (
{
closed = 1;
nodes = (
"643 0 LINE",
"732 727 LINE",
"637 727 LINE",
"599 416 LINE {name = hr00;}",
"358 416 LINE",
"311 416 OFFCURVE",
"283 384 OFFCURVE",
"264 346 CURVE",
"590 346 LINE",
"548 0 LINE"
);
},
{
closed = 1;
nodes = (
"184 0 LINE",
"273 727 LINE",
"178 727 LINE",
"89 0 LINE"
);
}
);
width = 730;
},
{
hints = (
{
horizontal = 1;
origin = "{1, 2}";
target = up;
type = BottomGhost;
},
{
horizontal = 1;
origin = "{0, 9}";
target = "{0, 2}";
type = Stem;
},
{
horizontal = 1;
origin = "{1, 3}";
target = down;
type = TopGhost;
},
{
origin = "{1, 2}";
target = "{1, 1}";
type = Stem;
},
{
origin = "{0, 7}";
target = "{0, 6}";
type = Stem;
}
);
layerId = "58254875-FB9E-4C1D-8B15-704836B9A7CF";
paths = (
{
closed = 1;
nodes = (
"682 0 LINE",
"682 727 LINE",
"541 727 LINE",
"541 433 LINE",
"364 433 LINE",
"306 433 OFFCURVE",
"277 374 OFFCURVE",
"264 330 CURVE {name = hr00;}",
"541 330 LINE",
"541 0 LINE"
);
},
{
closed = 1;
nodes = (
"226 0 LINE",
"226 727 LINE",
"83 727 LINE",
"83 0 LINE"
);
}
);
width = 764;
},
{
hints = (
{
horizontal = 1;
origin = "{1, 2}";
target = up;
type = BottomGhost;
},
{
horizontal = 1;
origin = "{0, 9}";
target = "{0, 2}";
type = Stem;
},
{
horizontal = 1;
origin = "{1, 3}";
target = down;
type = TopGhost;
}
);
layerId = "5E1C92F4-866D-4CC0-BA00-538F5374015A";
paths = (
{
closed = 1;
nodes = (
"682 0 LINE",
"771 727 LINE",
"630 727 LINE",
"594 433 LINE",
"417 433 LINE",
"359 433 OFFCURVE",
"322 374 OFFCURVE",
"304 330 CURVE {name = hr00;}",
"581 330 LINE",
"541 0 LINE"
);
},
{
closed = 1;
nodes = (
"226 0 LINE",
"315 727 LINE",
"172 727 LINE",
"83 0 LINE"
);
}
);
width = 764;
}
);
unicode = 0048;
},
{
glyphname = I;
lastChange = "2018-08-09 20:24:58 +0000";
layers = (
{
hints = (
{
horizontal = 1;
origin = "{0, 0}";
target = up;
type = BottomGhost;
},
{
horizontal = 1;
origin = "{0, 1}";
target = down;
type = TopGhost;
},
{
origin = "{0, 0}";
target = "{0, 3}";
type = Stem;
}
);
layerId = "BAA2CE79-BA31-4701-835E-3D9478C3F4B2";
paths = (
{
closed = 1;
nodes = (
"89 0 LINE",
"89 727 LINE",
"181 727 LINE",
"181 0 LINE {name = hr00;}"
);
}
);
width = 270;
},
{
hints = (
{
horizontal = 1;
origin = "{0, 0}";
target = up;
type = BottomGhost;
},
{
horizontal = 1;
origin = "{0, 1}";
target = down;
type = TopGhost;
}
);
layerId = "3BBF7C5C-CA4C-45AB-AE18-0528A0ACCA90";
paths = (
{
closed = 1;
nodes = (
"89 0 LINE",
"178 727 LINE",
"270 727 LINE",
"181 0 LINE {name = hr00;}"
);
}
);
width = 270;
},
{
hints = (
{
horizontal = 1;
origin = "{0, 0}";
target = up;
type = BottomGhost;
},
{
horizontal = 1;
origin = "{0, 1}";
target = down;
type = TopGhost;
},
{
origin = "{0, 0}";
target = "{0, 3}";
type = Stem;
}
);
layerId = "58254875-FB9E-4C1D-8B15-704836B9A7CF";
paths = (
{
closed = 1;
nodes = (
"83 0 LINE",
"83 727 LINE",
"222 727 LINE",
"222 0 LINE {name = hr00;}"
);
}
);
width = 306;
},
{
hints = (
{
horizontal = 1;
origin = "{0, 0}";
target = up;
type = BottomGhost;
},
{
horizontal = 1;
origin = "{0, 1}";
target = down;
type = TopGhost;
}
);
layerId = "5E1C92F4-866D-4CC0-BA00-538F5374015A";
paths = (
{
closed = 1;
nodes = (
"83 0 LINE",
"172 727 LINE",
"311 727 LINE",
"222 0 LINE {name = hr00;}"
);
}
);
width = 306;
}
);
unicode = 0049;
},
{
glyphname = Iacute;
lastChange = "2018-08-09 20:24:58 +0000";
layers = (
{
hints = (
{
horizontal = 1;
origin = "{0, 0}";
target = up;
type = BottomGhost;
},
{
horizontal = 1;
origin = "{0, 1}";
target = down;
type = TopGhost;
},
{
horizontal = 1;
origin = "{1, 3}";
target = up;
type = BottomGhost;
},
{
origin = "{0, 0}";
target = "{0, 3}";
type = Stem;
}
);
layerId = "BAA2CE79-BA31-4701-835E-3D9478C3F4B2";
paths = (
{
closed = 1;
nodes = (
"89 0 LINE",
"89 727 LINE",
"181 727 LINE",
"181 0 LINE {name = hr00;}"
);
},
{
closed = 1;
nodes = (
"155 763 OFFCURVE",
"118 758 OFFCURVE",
"84 766 CURVE",
"173 890 LINE",
"270 890 LINE",
"182 792 LINE"
);
}
);
width = 321;
},
{
hints = (
{
horizontal = 1;
origin = "{0, 0}";
target = up;
type = BottomGhost;
},
{
horizontal = 1;
origin = "{0, 1}";
target = down;
type = TopGhost;
},
{
horizontal = 1;
origin = "{1, 3}";
target = up;
type = BottomGhost;
}
);
layerId = "3BBF7C5C-CA4C-45AB-AE18-0528A0ACCA90";
paths = (
{
closed = 1;
nodes = (
"89 0 LINE",
"178 727 LINE",
"270 727 LINE",
"181 0 LINE {name = hr00;}"
);
},
{
closed = 1;
nodes = (
"248 763 OFFCURVE",
"211 758 OFFCURVE",
"178 766 CURVE",
"282 890 LINE",
"379 890 LINE",
"279 792 LINE"
);
}
);
width = 321;
},
{
hints = (
{
horizontal = 1;
origin = "{0, 0}";
target = up;
type = BottomGhost;
},
{
horizontal = 1;
origin = "{0, 1}";
target = down;
type = TopGhost;
},
{
horizontal = 1;
origin = "{1, 3}";
target = up;
type = BottomGhost;
},
{
origin = "{0, 0}";
target = "{0, 3}";
type = Stem;
}
);
layerId = "58254875-FB9E-4C1D-8B15-704836B9A7CF";
paths = (
{
closed = 1;
nodes = (
"65 0 LINE",
"65 727 LINE",
"204 727 LINE",
"204 0 LINE {name = hr00;}"
);
},
{
closed = 1;
nodes = (
"175 763 OFFCURVE",
"102 756 OFFCURVE",
"68 765 CURVE",
"154 890 LINE",
"287 890 LINE",
"215 808 LINE"
);
}
);
width = 321;
},
{
hints = (
{
horizontal = 1;
origin = "{0, 0}";
target = up;
type = BottomGhost;
},
{
horizontal = 1;
origin = "{0, 1}";
target = down;
type = TopGhost;
},
{
horizontal = 1;
origin = "{1, 3}";
target = up;
type = BottomGhost;
}
);
layerId = "5E1C92F4-866D-4CC0-BA00-538F5374015A";
paths = (
{
closed = 1;
nodes = (
"65 0 LINE",
"154 727 LINE",
"293 727 LINE",
"204 0 LINE {name = hr00;}"
);
},
{
closed = 1;
nodes = (
"268 763 OFFCURVE",
"194 756 OFFCURVE",
"161 765 CURVE",
"263 890 LINE",
"396 890 LINE",
"314 808 LINE"
);
}
);
width = 321;
}
);
unicode = 00CD;
},
{
glyphname = Icircumflex;
lastChange = "2018-08-09 20:24:58 +0000";
layers = (
{
hints = (
{
horizontal = 1;
origin = "{0, 0}";
target = up;
type = BottomGhost;
},
{
horizontal = 1;
origin = "{0, 1}";
target = down;
type = TopGhost;
},
{
horizontal = 1;
origin = "{1, 5}";
target = up;
type = BottomGhost;
},
{
origin = "{0, 0}";
target = "{0, 3}";
type = Stem;
}
);
layerId = "BAA2CE79-BA31-4701-835E-3D9478C3F4B2";
paths = (
{
closed = 1;
nodes = (
"113 0 LINE",
"113 727 LINE",
"205 727 LINE",
"205 0 LINE {name = hr00;}"
);
},
{
closed = 1;
nodes = (
"299 770 LINE",
"247 762 LINE",
"159 821 LINE",
"71 761 LINE",
"22 770 LINE",
"131 890 LINE",
"188 890 LINE"
);
}
);
width = 321;
},
{
hints = (
{
horizontal = 1;
origin = "{0, 0}";
target = up;
type = BottomGhost;
},
{
horizontal = 1;
origin = "{0, 1}";
target = down;
type = TopGhost;
},
{
horizontal = 1;
origin = "{1, 5}";
target = up;
type = BottomGhost;
}
);
layerId = "3BBF7C5C-CA4C-45AB-AE18-0528A0ACCA90";
paths = (
{
closed = 1;
nodes = (
"113 0 LINE",
"202 727 LINE",
"294 727 LINE",
"205 0 LINE {name = hr00;}"
);
},
{
closed = 1;
nodes = (
"393 770 LINE",
"340 762 LINE",
"259 821 LINE",
"164 761 LINE",
"116 770 LINE",
"240 890 LINE",
"297 890 LINE"
);
}
);
width = 321;
},
{
hints = (
{
horizontal = 1;
origin = "{0, 0}";
target = up;
type = BottomGhost;
},
{
horizontal = 1;
origin = "{0, 1}";
target = down;
type = TopGhost;
},
{
horizontal = 1;
origin = "{1, 5}";
target = up;
type = BottomGhost;
},
{
origin = "{0, 0}";
target = "{0, 3}";
type = Stem;
}
);
layerId = "58254875-FB9E-4C1D-8B15-704836B9A7CF";
paths = (
{
closed = 1;
nodes = (
"90 0 LINE",
"90 727 LINE",
"229 727 LINE",
"229 0 LINE {name = hr00;}"
);
},
{
closed = 1;
nodes = (
"318 774 LINE",
"237 756 LINE",
"159 812 LINE",
"83 756 LINE",
"3 774 LINE",
"108 890 LINE",
"211 890 LINE"
);
}
);
width = 321;
},
{
hints = (
{
horizontal = 1;
origin = "{0, 0}";
target = up;
type = BottomGhost;
},
{
horizontal = 1;
origin = "{0, 1}";
target = down;
type = TopGhost;
},
{
horizontal = 1;
origin = "{1, 5}";
target = up;
type = BottomGhost;
}
);
layerId = "5E1C92F4-866D-4CC0-BA00-538F5374015A";
paths = (
{
closed = 1;
nodes = (
"90 0 LINE",
"179 727 LINE",
"318 727 LINE",
"229 0 LINE {name = hr00;}"
);
},
{
closed = 1;
nodes = (
"413 774 LINE",
"329 756 LINE",
"258 812 LINE",
"175 756 LINE",
"98 774 LINE",
"217 890 LINE",
"320 890 LINE"
);
}
);
width = 321;
}
);
unicode = 00CE;
},
{
glyphname = Idieresis;
lastChange = "2018-08-09 20:24:58 +0000";
layers = (
{
hints = (
{
horizontal = 1;
origin = "{0, 0}";
target = up;
type = BottomGhost;
},
{
horizontal = 1;
origin = "{0, 1}";
target = down;
type = TopGhost;
},
{
horizontal = 1;
origin = "{1, 8}";
target = "{1, 2}";
type = Stem;
},
{
origin = "{1, 11}";
target = "{1, 5}";
type = Stem;
},
{
origin = "{2, 11}";
target = "{2, 5}";
type = Stem;
}
);
layerId = "BAA2CE79-BA31-4701-835E-3D9478C3F4B2";
paths = (
{
closed = 1;
nodes = (
"126 0 LINE",
"126 727 LINE",
"218 727 LINE",
"218 0 LINE"
);
},
{
closed = 1;
nodes = (
"23 869 OFFCURVE",
"47 892 OFFCURVE",
"75 892 CURVE SMOOTH",
"104 892 OFFCURVE",
"128 869 OFFCURVE",
"128 840 CURVE SMOOTH",
"128 811 OFFCURVE",
"104 788 OFFCURVE",
"75 788 CURVE SMOOTH",
"47 788 OFFCURVE",
"23 811 OFFCURVE",
"23 840 CURVE SMOOTH"
);
},
{
closed = 1;
nodes = (
"217 869 OFFCURVE",
"241 892 OFFCURVE",
"270 892 CURVE SMOOTH",
"298 892 OFFCURVE",
"322 869 OFFCURVE",
"322 840 CURVE SMOOTH",
"322 811 OFFCURVE",
"298 788 OFFCURVE",
"270 788 CURVE SMOOTH",
"241 788 OFFCURVE",
"217 811 OFFCURVE",
"217 840 CURVE SMOOTH"
);
}
);
width = 350;
},
{
hints = (
{
horizontal = 1;
origin = "{0, 0}";
target = up;
type = BottomGhost;
},
{
horizontal = 1;
origin = "{0, 1}";
target = down;
type = TopGhost;
},
{
horizontal = 1;
origin = "{1, 8}";
target = "{1, 2}";
type = Stem;
}
);
layerId = "3BBF7C5C-CA4C-45AB-AE18-0528A0ACCA90";
paths = (
{
closed = 1;
nodes = (
"126 0 LINE",
"215 727 LINE",
"307 727 LINE",
"218 0 LINE {name = hr00;}"
);
},
{
closed = 1;
nodes = (
"129 869 OFFCURVE",
"156 892 OFFCURVE",
"184 892 CURVE SMOOTH",
"213 892 OFFCURVE",
"234 869 OFFCURVE",
"231 840 CURVE SMOOTH",
"227 811 OFFCURVE",
"200 788 OFFCURVE",
"171 788 CURVE SMOOTH",
"143 788 OFFCURVE",
"122 811 OFFCURVE",
"126 840 CURVE SMOOTH"
);
},
{
closed = 1;
nodes = (
"323 869 OFFCURVE",
"350 892 OFFCURVE",
"379 892 CURVE SMOOTH",
"407 892 OFFCURVE",
"428 869 OFFCURVE",
"425 840 CURVE SMOOTH",
"421 811 OFFCURVE",
"394 788 OFFCURVE",
"366 788 CURVE SMOOTH",
"337 788 OFFCURVE",
"316 811 OFFCURVE",
"320 840 CURVE SMOOTH"
);
}
);
width = 350;
},
{
hints = (
{
horizontal = 1;
origin = "{0, 0}";
target = up;
type = BottomGhost;
},
{
horizontal = 1;
origin = "{0, 1}";
target = down;
type = TopGhost;
},
{
horizontal = 1;
origin = "{1, 8}";
target = "{1, 2}";
type = Stem;
},
{
origin = "{1, 11}";
target = "{1, 5}";
type = Stem;
},
{
origin = "{2, 11}";
target = "{2, 5}";
type = Stem;
}
);
layerId = "58254875-FB9E-4C1D-8B15-704836B9A7CF";
paths = (
{
closed = 1;
nodes = (
"104 0 LINE",
"104 727 LINE",
"243 727 LINE",
"243 0 LINE"
);
},
{
closed = 1;
nodes = (
"12 875 OFFCURVE",
"41 903 OFFCURVE",
"75 903 CURVE SMOOTH",
"110 903 OFFCURVE",
"139 875 OFFCURVE",
"139 840 CURVE SMOOTH",
"139 805 OFFCURVE",
"110 777 OFFCURVE",
"75 777 CURVE SMOOTH",
"41 777 OFFCURVE",
"12 805 OFFCURVE",
"12 840 CURVE SMOOTH {name = hr01;}"
);
},
{
closed = 1;
nodes = (
"207 875 OFFCURVE",
"236 903 OFFCURVE",
"270 903 CURVE SMOOTH",
"305 903 OFFCURVE",
"334 875 OFFCURVE",
"334 840 CURVE SMOOTH",
"334 805 OFFCURVE",
"305 777 OFFCURVE",
"270 777 CURVE SMOOTH",
"236 777 OFFCURVE",
"207 805 OFFCURVE",
"207 840 CURVE SMOOTH"
);
}
);
width = 350;
},
{
hints = (
{
horizontal = 1;
origin = "{0, 0}";
target = up;
type = BottomGhost;
},
{
horizontal = 1;
origin = "{0, 1}";
target = down;
type = TopGhost;
},
{
horizontal = 1;
origin = "{1, 8}";
target = "{1, 2}";
type = Stem;
}
);
layerId = "5E1C92F4-866D-4CC0-BA00-538F5374015A";
paths = (
{
closed = 1;
nodes = (
"104 0 LINE",
"193 727 LINE",
"332 727 LINE",
"243 0 LINE {name = hr00;}"
);
},
{
closed = 1;
nodes = (
"119 875 OFFCURVE",
"151 903 OFFCURVE",
"185 903 CURVE SMOOTH",
"220 903 OFFCURVE",
"246 875 OFFCURVE",
"242 840 CURVE SMOOTH",
"237 805 OFFCURVE",
"205 777 OFFCURVE",
"170 777 CURVE SMOOTH",
"136 777 OFFCURVE",
"110 805 OFFCURVE",
"115 840 CURVE SMOOTH"
);
},
{
closed = 1;
nodes = (
"314 875 OFFCURVE",
"346 903 OFFCURVE",
"380 903 CURVE SMOOTH",
"415 903 OFFCURVE",
"441 875 OFFCURVE",
"437 840 CURVE SMOOTH",
"432 805 OFFCURVE",
"400 777 OFFCURVE",
"365 777 CURVE SMOOTH",
"331 777 OFFCURVE",
"305 805 OFFCURVE",
"310 840 CURVE SMOOTH"
);
}
);
width = 350;
}
);
unicode = 00CF;
},
{
glyphname = Igrave;
lastChange = "2018-08-09 20:24:58 +0000";
layers = (
{
hints = (
{
horizontal = 1;
origin = "{0, 0}";
target = up;
type = BottomGhost;
},
{
horizontal = 1;
origin = "{0, 1}";
target = down;
type = TopGhost;
},
{
horizontal = 1;
origin = "{1, 5}";
target = up;
type = BottomGhost;
},
{
origin = "{0, 0}";
target = "{0, 3}";
type = Stem;
}
);
layerId = "BAA2CE79-BA31-4701-835E-3D9478C3F4B2";
paths = (
{
closed = 1;
nodes = (
"98 0 LINE",
"98 727 LINE",
"190 727 LINE",
"190 0 LINE {name = hr00;}"
);
},
{
closed = 1;
nodes = (
"121 890 LINE",
"195 766 LINE",
"161 758 OFFCURVE",
"122 763 OFFCURVE",
"100 792 CURVE",
"27 890 LINE"
);
}
);
width = 279;
},
{
hints = (
{
horizontal = 1;
origin = "{0, 0}";
target = up;
type = BottomGhost;
},
{
horizontal = 1;
origin = "{0, 1}";
target = down;
type = TopGhost;
},
{
horizontal = 1;
origin = "{1, 5}";
target = up;
type = BottomGhost;
}
);
layerId = "3BBF7C5C-CA4C-45AB-AE18-0528A0ACCA90";
paths = (
{
closed = 1;
nodes = (
"98 0 LINE",
"187 727 LINE",
"279 727 LINE",
"190 0 LINE {name = hr00;}"
);
},
{
closed = 1;
nodes = (
"230 890 LINE",
"289 766 LINE",
"254 758 OFFCURVE",
"215 763 OFFCURVE",
"197 792 CURVE",
"136 890 LINE"
);
}
);
width = 279;
},
{
hints = (
{
horizontal = 1;
origin = "{0, 0}";
target = up;
type = BottomGhost;
},
{
horizontal = 1;
origin = "{0, 1}";
target = down;
type = TopGhost;
},
{
horizontal = 1;
origin = "{1, 5}";
target = up;
type = BottomGhost;
},
{
origin = "{0, 0}";
target = "{0, 3}";
type = Stem;
}
);
layerId = "58254875-FB9E-4C1D-8B15-704836B9A7CF";
paths = (
{
closed = 1;
nodes = (
"73 0 LINE",
"73 727 LINE",
"212 727 LINE",
"212 0 LINE {name = hr00;}"
);
},
{
closed = 1;
nodes = (
"139 890 LINE",
"213 765 LINE",
"179 756 OFFCURVE",
"101 762 OFFCURVE",
"67 808 CURVE",
"6 890 LINE"
);
}
);
width = 279;
},
{
hints = (
{
horizontal = 1;
origin = "{0, 0}";
target = up;
type = BottomGhost;
},
{
horizontal = 1;
origin = "{0, 1}";
target = down;
type = TopGhost;
},
{
horizontal = 1;
origin = "{1, 5}";
target = up;
type = BottomGhost;
}
);
layerId = "5E1C92F4-866D-4CC0-BA00-538F5374015A";
paths = (
{
closed = 1;
nodes = (
"73 0 LINE",
"162 727 LINE",
"301 727 LINE",
"212 0 LINE {name = hr00;}"
);
},
{
closed = 1;
nodes = (
"248 890 LINE",
"306 765 LINE",
"271 756 OFFCURVE",
"194 762 OFFCURVE",
"166 808 CURVE",
"115 890 LINE"
);
}
);
width = 279;
}
);
unicode = 00CC;
},
{
glyphname = J;
lastChange = "2018-08-09 20:24:58 +0000";
layers = (
{
hints = (
{
horizontal = 1;
origin = "{0, 2}";
target = up;
type = BottomGhost;
},
{
horizontal = 1;
origin = "{0, 7}";
target = down;
type = TopGhost;
},
{
origin = "{0, 6}";
target = "{0, 9}";
type = Stem;
}
);
layerId = "BAA2CE79-BA31-4701-835E-3D9478C3F4B2";
paths = (
{
closed = 1;
nodes = (
"261 -47 OFFCURVE",
"174 -114 OFFCURVE",
"35 -208 CURVE",
"-5 -157 LINE",
"95 -74 OFFCURVE",
"165 -29 OFFCURVE",
"165 128 CURVE",
"165 727 LINE",
"261 727 LINE",
"261 128 LINE {name = hr00;}"
);
}
);
width = 344;
},
{
hints = (
{
horizontal = 1;
origin = "{0, 2}";
target = up;
type = BottomGhost;
},
{
horizontal = 1;
origin = "{0, 7}";
target = down;
type = TopGhost;
}
);
layerId = "3BBF7C5C-CA4C-45AB-AE18-0528A0ACCA90";
paths = (
{
closed = 1;
nodes = (
"255 -47 OFFCURVE",
"160 -114 OFFCURVE",
"9 -208 CURVE",
"-24 -157 LINE",
"85 -74 OFFCURVE",
"161 -29 OFFCURVE",
"180 128 CURVE",
"254 727 LINE",
"350 727 LINE",
"276 128 LINE {name = hr00;}"
);
}
);
width = 344;
},
{
hints = (
{
horizontal = 1;
origin = "{0, 2}";
target = up;
type = BottomGhost;
},
{
horizontal = 1;
origin = "{0, 7}";
target = down;
type = TopGhost;
},
{
origin = "{0, 6}";
target = "{0, 9}";
type = Stem;
}
);
layerId = "58254875-FB9E-4C1D-8B15-704836B9A7CF";
paths = (
{
closed = 1;
nodes = (
"290 -58 OFFCURVE",
"208 -119 OFFCURVE",
"54 -222 CURVE",
"-10 -140 LINE",
"90 -58 OFFCURVE",
"148 -10 OFFCURVE",
"148 128 CURVE",
"148 727 LINE",
"290 727 LINE",
"290 128 LINE {name = hr00;}"
);
}
);
width = 369;
},
{
hints = (
{
horizontal = 1;
origin = "{0, 2}";
target = up;
type = BottomGhost;
},
{
horizontal = 1;
origin = "{0, 7}";
target = down;
type = TopGhost;
}
);
layerId = "5E1C92F4-866D-4CC0-BA00-538F5374015A";
paths = (
{
closed = 1;
nodes = (
"282 -58 OFFCURVE",
"193 -119 OFFCURVE",
"26 -222 CURVE",
"-27 -140 LINE",
"82 -58 OFFCURVE",
"146 -10 OFFCURVE",
"163 128 CURVE",
"237 727 LINE",
"379 727 LINE",
"305 128 LINE {name = hr00;}"
);
}
);
width = 369;
}
);
unicode = 004A;
},
{
glyphname = K;
lastChange = "2018-08-09 20:24:58 +0000";
layers = (
{
hints = (
{
horizontal = 1;
origin = "{1, 3}";
target = up;
type = BottomGhost;
},
{
horizontal = 1;
origin = "{1, 0}";
target = down;
type = TopGhost;
},
{
origin = "{1, 3}";
target = "{1, 2}";
type = Stem;
}
);
layerId = "BAA2CE79-BA31-4701-835E-3D9478C3F4B2";
paths = (
{
closed = 1;
nodes = (
"641 0 LINE",
"526 0 LINE",
"332 347 LINE",
"325 365 LINE",
"316 347 LINE",
"237 243 LINE",
"219 283 OFFCURVE",
"227 357 OFFCURVE",
"267 412 CURVE SMOOTH",
"500 727 LINE",
"608 727 LINE",
"382 433 LINE {name = hr00;}"
);
},
{
closed = 1;
nodes = (
"89 727 LINE",
"184 727 LINE",
"184 0 LINE",
"89 0 LINE"
);
}
);
width = 661;
},
{
hints = (
{
horizontal = 1;
origin = "{1, 3}";
target = up;
type = BottomGhost;
},
{
horizontal = 1;
origin = "{1, 0}";
target = down;
type = TopGhost;
}
);
layerId = "3BBF7C5C-CA4C-45AB-AE18-0528A0ACCA90";
paths = (
{
closed = 1;
nodes = (
"641 0 LINE",
"526 0 LINE",
"374 347 LINE",
"369 365 LINE",
"358 347 LINE",
"266 243 LINE",
"253 283 OFFCURVE",
"270 357 OFFCURVE",
"317 412 CURVE SMOOTH",
"589 727 LINE",
"697 727 LINE",
"435 433 LINE {name = hr00;}"
);
},
{
closed = 1;
nodes = (
"178 727 LINE",
"273 727 LINE",
"184 0 LINE",
"89 0 LINE"
);
}
);
width = 661;
},
{
hints = (
{
horizontal = 1;
origin = "{1, 3}";
target = up;
type = BottomGhost;
},
{
horizontal = 1;
origin = "{1, 0}";
target = down;
type = TopGhost;
},
{
origin = "{1, 3}";
target = "{1, 2}";
type = Stem;
}
);
layerId = "58254875-FB9E-4C1D-8B15-704836B9A7CF";
paths = (
{
closed = 1;
nodes = (
"693 0 LINE",
"529 0 LINE",
"365 322 LINE",
"358 346 LINE",
"346 324 LINE",
"283 243 LINE",
"260 332 OFFCURVE",
"289 433 OFFCURVE",
"336 497 CURVE SMOOTH",
"501 727 LINE",
"658 727 LINE",
"434 436 LINE {name = hr00;}"
);
},
{
closed = 1;
nodes = (
"83 727 LINE",
"226 727 LINE",
"226 0 LINE",
"83 0 LINE"
);
}
);
width = 709;
},
{
hints = (
{
horizontal = 1;
origin = "{1, 3}";
target = up;
type = BottomGhost;
},
{
horizontal = 1;
origin = "{1, 0}";
target = down;
type = TopGhost;
}
);
layerId = "5E1C92F4-866D-4CC0-BA00-538F5374015A";
paths = (
{
closed = 1;
nodes = (
"693 0 LINE",
"529 0 LINE",
"404 322 LINE",
"400 346 LINE",
"385 324 LINE",
"312 243 LINE",
"300 332 OFFCURVE",
"342 433 OFFCURVE",
"397 497 CURVE SMOOTH",
"590 727 LINE",
"747 727 LINE",
"487 436 LINE {name = hr00;}"
);
},
{
closed = 1;
nodes = (
"172 727 LINE",
"315 727 LINE",
"226 0 LINE",
"83 0 LINE"
);
}
);
width = 709;
}
);
unicode = 004B;
userData = {
com.typemytype.robofont.guides = (
{
angle = 0;
isGlobal = 0;
magnetic = 5;
x = 0;
y = 352;
}
);
};
},
{
glyphname = L;
lastChange = "2018-08-09 20:24:58 +0000";
layers = (
{
hints = (
{
horizontal = 1;
origin = "{0, 4}";
target = "{0, 1}";
type = Stem;
},
{
horizontal = 1;
origin = "{0, 5}";
target = down;
type = TopGhost;
},
{
origin = "{0, 4}";
target = "{0, 1}";
type = Stem;
}
);
layerId = "BAA2CE79-BA31-4701-835E-3D9478C3F4B2";
paths = (
{
closed = 1;
nodes = (
"185 727 LINE",
"185 73 LINE",
"489 73 LINE",
"488 0 LINE",
"89 0 LINE",
"89 727 LINE {name = hr00;}"
);
}
);
width = 520;
},
{
hints = (
{
horizontal = 1;
origin = "{0, 4}";
target = "{0, 1}";
type = Stem;
},
{
horizontal = 1;
origin = "{0, 5}";
target = down;
type = TopGhost;
}
);
layerId = "3BBF7C5C-CA4C-45AB-AE18-0528A0ACCA90";
paths = (
{
closed = 1;
nodes = (
"274 727 LINE",
"193 73 LINE",
"497 73 LINE",
"488 0 LINE",
"89 0 LINE",
"178 727 LINE {name = hr00;}"
);
}
);
width = 520;
},
{
hints = (
{
horizontal = 1;
origin = "{0, 4}";
target = "{0, 1}";
type = Stem;
},
{
horizontal = 1;
origin = "{0, 5}";
target = down;
type = TopGhost;
},
{
origin = "{0, 4}";
target = "{0, 1}";
type = Stem;
}
);
layerId = "58254875-FB9E-4C1D-8B15-704836B9A7CF";
paths = (
{
closed = 1;
nodes = (
"226 727 LINE",
"226 104 LINE",
"488 104 LINE",
"488 0 LINE",
"82 0 LINE",
"82 727 LINE {name = hr00;}"
);
}
);
width = 531;
},
{
hints = (
{
horizontal = 1;
origin = "{0, 4}";
target = "{0, 1}";
type = Stem;
},
{
horizontal = 1;
origin = "{0, 5}";
target = down;
type = TopGhost;
}
);
layerId = "5E1C92F4-866D-4CC0-BA00-538F5374015A";
paths = (
{
closed = 1;
nodes = (
"315 727 LINE",
"238 104 LINE",
"500 104 LINE",
"488 0 LINE",
"82 0 LINE",
"171 727 LINE {name = hr00;}"
);
}
);
width = 531;
}
);
unicode = 004C;
},
{
glyphname = M;
lastChange = "2018-08-09 20:24:58 +0000";
layers = (
{
hints = (
{
horizontal = 1;
origin = "{0, 17}";
target = up;
type = BottomGhost;
},
{
horizontal = 1;
origin = "{0, 18}";
target = down;
type = TopGhost;
}
);
layerId = "BAA2CE79-BA31-4701-835E-3D9478C3F4B2";
paths = (
{
closed = 1;
nodes = (
"273 727 LINE",
"468 143 LINE",
"475 112 LINE",
"482 143 LINE",
"677 727 LINE",
"800 727 LINE",
"880 0 LINE",
"789 0 LINE",
"732 582 LINE",
"729 625 LINE",
"717 582 LINE",
"519 10 LINE",
"430 10 LINE",
"231 583 LINE",
"218 625 LINE",
"215 583 LINE",
"159 0 LINE",
"69 0 LINE",
"150 727 LINE {name = hr00;}"
);
}
);
width = 949;
},
{
hints = (
{
horizontal = 1;
origin = "{0, 17}";
target = up;
type = BottomGhost;
},
{
horizontal = 1;
origin = "{0, 18}";
target = down;
type = TopGhost;
}
);
layerId = "3BBF7C5C-CA4C-45AB-AE18-0528A0ACCA90";
paths = (
{
closed = 1;
nodes = (
"362 727 LINE",
"485 143 LINE",
"488 112 LINE",
"499 143 LINE",
"766 727 LINE",
"889 727 LINE",
"880 0 LINE",
"789 0 LINE",
"803 582 LINE",
"805 625 LINE",
"788 582 LINE",
"520 10 LINE",
"431 10 LINE",
"302 583 LINE",
"294 625 LINE",
"286 583 LINE",
"159 0 LINE",
"69 0 LINE",
"239 727 LINE {name = hr00;}"
);
}
);
width = 949;
},
{
hints = (
{
horizontal = 1;
origin = "{0, 17}";
target = up;
type = BottomGhost;
},
{
horizontal = 1;
origin = "{0, 18}";
target = down;
type = TopGhost;
}
);
layerId = "58254875-FB9E-4C1D-8B15-704836B9A7CF";
paths = (
{
closed = 1;
nodes = (
"325 727 LINE",
"484 166 LINE",
"491 130 LINE",
"499 166 LINE",
"657 727 LINE",
"839 727 LINE",
"907 0 LINE",
"776 0 LINE",
"737 548 LINE",
"734 596 LINE",
"722 548 LINE",
"564 10 LINE",
"417 10 LINE",
"257 549 LINE",
"245 596 LINE",
"242 549 LINE",
"205 0 LINE",
"74 0 LINE",
"144 727 LINE {name = hr00;}"
);
}
);
width = 982;
},
{
hints = (
{
horizontal = 1;
origin = "{0, 17}";
target = up;
type = BottomGhost;
},
{
horizontal = 1;
origin = "{0, 18}";
target = down;
type = TopGhost;
}
);
layerId = "5E1C92F4-866D-4CC0-BA00-538F5374015A";
paths = (
{
closed = 1;
nodes = (
"414 727 LINE",
"504 166 LINE",
"506 130 LINE",
"519 166 LINE",
"746 727 LINE",
"928 727 LINE",
"907 0 LINE",
"776 0 LINE",
"804 548 LINE",
"807 596 LINE",
"789 548 LINE",
"565 10 LINE",
"418 10 LINE",
"324 549 LINE",
"318 596 LINE",
"309 549 LINE",
"205 0 LINE",
"74 0 LINE",
"233 727 LINE {name = hr00;}"
);
}
);
width = 982;
}
);
unicode = 004D;
userData = {
com.typemytype.robofont.guides = (
{
angle = 0;
isGlobal = 0;
magnetic = 5;
x = 0;
y = 191;
}
);
};
},
{
glyphname = N;
lastChange = "2018-08-09 20:24:58 +0000";
layers = (
{
hints = (
{
horizontal = 1;
origin = "{0, 3}";
target = up;
type = BottomGhost;
},
{
horizontal = 1;
origin = "{0, 4}";
target = down;
type = TopGhost;
},
{
origin = "{0, 3}";
target = "{0, 2}";
type = Stem;
},
{
origin = "{0, 8}";
target = "{0, 11}";
type = Stem;
}
);
layerId = "BAA2CE79-BA31-4701-835E-3D9478C3F4B2";
paths = (
{
closed = 1;
nodes = (
"183 615 LINE",
"185 581 LINE",
"185 0 LINE",
"104 0 LINE",
"104 727 LINE",
"199 727 LINE",
"552 163 LINE",
"564 130 LINE",
"562 165 LINE",
"562 727 LINE",
"646 727 LINE",
"646 0 LINE",
"561 0 LINE",
"197 581 LINE {name = hr00;}"
);
}
);
width = 749;
},
{
hints = (
{
horizontal = 1;
origin = "{0, 3}";
target = up;
type = BottomGhost;
},
{
horizontal = 1;
origin = "{0, 4}";
target = down;
type = TopGhost;
}
);
layerId = "3BBF7C5C-CA4C-45AB-AE18-0528A0ACCA90";
paths = (
{
closed = 1;
nodes = (
"258 615 LINE",
"256 581 LINE",
"185 0 LINE",
"104 0 LINE",
"193 727 LINE",
"288 727 LINE",
"572 163 LINE",
"579 130 LINE",
"582 165 LINE",
"651 727 LINE",
"735 727 LINE",
"646 0 LINE",
"561 0 LINE",
"268 581 LINE {name = hr00;}"
);
}
);
width = 749;
},
{
hints = (
{
horizontal = 1;
origin = "{0, 3}";
target = up;
type = BottomGhost;
},
{
horizontal = 1;
origin = "{0, 4}";
target = down;
type = TopGhost;
},
{
origin = "{0, 3}";
target = "{0, 2}";
type = Stem;
},
{
origin = "{0, 12}";
target = "{0, 11}";
type = Stem;
}
);
layerId = "58254875-FB9E-4C1D-8B15-704836B9A7CF";
paths = (
{
closed = 1;
nodes = (
"214 545 LINE",
"216 511 LINE",
"216 0 LINE",
"94 0 LINE",
"94 727 LINE",
"232 727 LINE",
"539 238 LINE",
"553 198 LINE",
"551 238 LINE",
"551 727 LINE",
"677 727 LINE",
"677 0 LINE",
"551 0 LINE",
"230 509 LINE {name = hr00;}"
);
}
);
width = 778;
},
{
hints = (
{
horizontal = 1;
origin = "{0, 3}";
target = up;
type = BottomGhost;
},
{
horizontal = 1;
origin = "{0, 4}";
target = down;
type = TopGhost;
}
);
layerId = "5E1C92F4-866D-4CC0-BA00-538F5374015A";
paths = (
{
closed = 1;
nodes = (
"280 545 LINE",
"278 511 LINE",
"216 0 LINE",
"94 0 LINE",
"183 727 LINE",
"321 727 LINE",
"568 238 LINE",
"577 198 LINE",
"580 238 LINE",
"640 727 LINE",
"766 727 LINE",
"677 0 LINE",
"551 0 LINE",
"292 509 LINE {name = hr00;}"
);
}
);
width = 778;
}
);
unicode = 004E;
userData = {
com.typemytype.robofont.guides = (
{
angle = 0;
isGlobal = 0;
magnetic = 5;
x = 0;
y = 579;
},
{
angle = 0;
isGlobal = 0;
magnetic = 5;
x = 0;
y = 148;
}
);
};
},
{
glyphname = Ntilde;
lastChange = "2018-08-09 20:33:40 +0000";
layers = (
{
hints = (
{
horizontal = 1;
origin = "{0, 3}";
target = up;
type = BottomGhost;
},
{
horizontal = 1;
origin = "{0, 4}";
target = down;
type = TopGhost;
},
{
horizontal = 1;
origin = "{1, 21}";
target = "{1, 2}";
type = Stem;
},
{
origin = "{0, 3}";
target = "{0, 2}";
type = Stem;
},
{
origin = "{0, 8}";
target = "{0, 11}";
type = Stem;
}
);
layerId = "BAA2CE79-BA31-4701-835E-3D9478C3F4B2";
paths = (
{
closed = 1;
nodes = (
"185 0 LINE",
"185 581 LINE",
"183 615 LINE",
"197 581 LINE",
"561 0 LINE",
"646 0 LINE",
"646 727 LINE",
"562 727 LINE",
"562 165 LINE",
"564 130 LINE",
"552 163 LINE",
"199 727 LINE",
"104 727 LINE",
"104 0 LINE"
);
},
{
closed = 1;
nodes = (
"291 819 OFFCURVE",
"306 835 OFFCURVE",
"323 835 CURVE SMOOTH",
"346 835 OFFCURVE",
"356 818 OFFCURVE",
"375 802 CURVE SMOOTH",
"392 786 OFFCURVE",
"414 779 OFFCURVE",
"440 779 CURVE SMOOTH",
"478 779 OFFCURVE",
"520 803 OFFCURVE",
"524 887 CURVE",
"471 893 LINE",
"468 856 OFFCURVE",
"458 835 OFFCURVE",
"440 835 CURVE SMOOTH",
"414 835 OFFCURVE",
"404 851 OFFCURVE",
"386 867 CURVE SMOOTH",
"368 883 OFFCURVE",
"346 891 OFFCURVE",
"322 891 CURVE SMOOTH {name = hr01;}",
"274 890 OFFCURVE",
"235 858 OFFCURVE",
"233 783 CURVE",
"288 777 LINE"
);
}
);
width = 749;
},
{
hints = (
{
horizontal = 1;
origin = "{0, 3}";
target = up;
type = BottomGhost;
},
{
horizontal = 1;
origin = "{0, 4}";
target = down;
type = TopGhost;
},
{
horizontal = 1;
origin = "{1, 15}";
target = "{1, 21}";
type = Stem;
},
{
horizontal = 1;
origin = "{1, 11}";
target = up;
type = BottomGhost;
}
);
layerId = "3BBF7C5C-CA4C-45AB-AE18-0528A0ACCA90";
paths = (
{
closed = 1;
nodes = (
"185 0 LINE",
"256 581 LINE",
"258 615 LINE",
"268 581 LINE",
"561 0 LINE",
"646 0 LINE",
"735 727 LINE",
"651 727 LINE",
"582 165 LINE",
"579 130 LINE",
"572 163 LINE",
"288 727 LINE",
"193 727 LINE",
"104 0 LINE"
);
},
{
closed = 1;
nodes = (
"391 819 OFFCURVE",
"408 835 OFFCURVE",
"425 835 CURVE SMOOTH",
"448 835 OFFCURVE",
"456 818 OFFCURVE",
"473 802 CURVE SMOOTH",
"488 786 OFFCURVE",
"509 779 OFFCURVE",
"535 779 CURVE SMOOTH",
"573 779 OFFCURVE",
"618 803 OFFCURVE",
"632 887 CURVE",
"580 893 LINE {name = hr01;}",
"573 856 OFFCURVE",
"560 835 OFFCURVE",
"542 835 CURVE SMOOTH",
"516 835 OFFCURVE",
"508 851 OFFCURVE",
"492 867 CURVE SMOOTH",
"476 883 OFFCURVE",
"455 891 OFFCURVE",
"431 891 CURVE SMOOTH",
"383 890 OFFCURVE",
"340 858 OFFCURVE",
"329 783 CURVE",
"383 777 LINE"
);
}
);
width = 749;
},
{
hints = (
{
horizontal = 1;
origin = "{0, 3}";
target = up;
type = BottomGhost;
},
{
horizontal = 1;
origin = "{0, 4}";
target = down;
type = TopGhost;
},
{
horizontal = 1;
origin = "{1, 12}";
target = "{1, 5}";
type = Stem;
},
{
origin = "{0, 3}";
target = "{0, 2}";
type = Stem;
},
{
origin = "{0, 12}";
target = "{0, 11}";
type = Stem;
},
{
horizontal = 1;
origin = "{1, 15}";
target = "{1, 5}";
type = Stem;
}
);
layerId = "58254875-FB9E-4C1D-8B15-704836B9A7CF";
paths = (
{
closed = 1;
nodes = (
"206 0 LINE",
"206 511 LINE",
"204 545 LINE",
"218 511 LINE",
"541 0 LINE",
"667 0 LINE",
"667 727 LINE",
"541 727 LINE",
"541 238 LINE",
"543 203 LINE",
"531 236 LINE",
"222 727 LINE",
"84 727 LINE",
"84 0 LINE"
);
},
{
closed = 1;
nodes = (
"482 769 OFFCURVE",
"534 803 OFFCURVE",
"538 887 CURVE",
"465 893 LINE",
"462 866 OFFCURVE",
"451 848 OFFCURVE",
"434 848 CURVE SMOOTH {name = hr01;}",
"404 848 OFFCURVE",
"375 901 OFFCURVE",
"316 901 CURVE",
"268 900 OFFCURVE",
"219 858 OFFCURVE",
"217 783 CURVE",
"292 777 LINE",
"295 811 OFFCURVE",
"313 822 OFFCURVE",
"327 822 CURVE SMOOTH {name = hr02;}",
"360 822 OFFCURVE",
"377 769 OFFCURVE",
"444 769 CURVE SMOOTH"
);
}
);
width = 749;
},
{
hints = (
{
horizontal = 1;
origin = "{0, 3}";
target = up;
type = BottomGhost;
},
{
horizontal = 1;
origin = "{0, 4}";
target = down;
type = TopGhost;
},
{
horizontal = 1;
origin = "{1, 12}";
target = "{1, 5}";
type = Stem;
},
{
horizontal = 1;
origin = "{1, 15}";
target = "{1, 5}";
type = Stem;
}
);
layerId = "5E1C92F4-866D-4CC0-BA00-538F5374015A";
paths = (
{
closed = 1;
nodes = (
"206 0 LINE",
"268 511 LINE",
"270 545 LINE",
"280 511 LINE",
"541 0 LINE",
"667 0 LINE",
"756 727 LINE",
"630 727 LINE",
"570 238 LINE",
"567 203 LINE",
"559 236 LINE",
"311 727 LINE",
"173 727 LINE",
"84 0 LINE"
);
},
{
closed = 1;
nodes = (
"576 769 OFFCURVE",
"632 803 OFFCURVE",
"646 887 CURVE",
"574 893 LINE",
"568 866 OFFCURVE",
"555 848 OFFCURVE",
"538 848 CURVE SMOOTH {name = hr01;}",
"508 848 OFFCURVE",
"485 901 OFFCURVE",
"426 901 CURVE",
"378 900 OFFCURVE",
"324 858 OFFCURVE",
"313 783 CURVE",
"387 777 LINE",
"394 811 OFFCURVE",
"413 822 OFFCURVE",
"427 822 CURVE SMOOTH {name = hr02;}",
"460 822 OFFCURVE",
"471 769 OFFCURVE",
"538 769 CURVE SMOOTH"
);
}
);
width = 749;
}
);
unicode = 00D1;
userData = {
com.typemytype.robofont.guides = (
{
angle = 0;
isGlobal = 0;
magnetic = 5;
x = 0;
y = 579;
},
{
angle = 0;
isGlobal = 0;
magnetic = 5;
x = 0;
y = 148;
}
);
};
},
{
glyphname = O;
lastChange = "2018-08-09 20:24:58 +0000";
layers = (
{
hints = (
{
horizontal = 1;
origin = "{0, 8}";
target = "{1, 2}";
type = Stem;
},
{
horizontal = 1;
origin = "{1, 8}";
target = "{0, 2}";
type = Stem;
},
{
origin = "{0, 11}";
target = "{1, 11}";
type = Stem;
},
{
origin = "{1, 5}";
target = "{0, 5}";
type = Stem;
}
);
layerId = "BAA2CE79-BA31-4701-835E-3D9478C3F4B2";
paths = (
{
closed = 1;
nodes = (
"45 619 OFFCURVE",
"226 742 OFFCURVE",
"382 742 CURVE",
"599 742 OFFCURVE",
"719 570 OFFCURVE",
"719 364 CURVE",
"719 133 OFFCURVE",
"563 -14 OFFCURVE",
"382 -14 CURVE SMOOTH",
"195 -14 OFFCURVE",
"45 128 OFFCURVE",
"45 364 CURVE {name = hr00;}"
);
},
{
closed = 1;
nodes = (
"147 183 OFFCURVE",
"247 58 OFFCURVE",
"382 58 CURVE",
"523 58 OFFCURVE",
"617 193 OFFCURVE",
"617 364 CURVE",
"617 552 OFFCURVE",
"511 669 OFFCURVE",
"382 669 CURVE SMOOTH",
"253 669 OFFCURVE",
"147 552 OFFCURVE",
"147 364 CURVE"
);
}
);
width = 791;
},
{
hints = (
{
horizontal = 1;
origin = "{0, 8}";
target = "{1, 2}";
type = Stem;
},
{
horizontal = 1;
origin = "{1, 8}";
target = "{0, 2}";
type = Stem;
}
);
layerId = "3BBF7C5C-CA4C-45AB-AE18-0528A0ACCA90";
paths = (
{
closed = 1;
nodes = (
"121 619 OFFCURVE",
"317 742 OFFCURVE",
"473 742 CURVE",
"690 742 OFFCURVE",
"788 570 OFFCURVE",
"763 364 CURVE",
"735 133 OFFCURVE",
"561 -14 OFFCURVE",
"380 -14 CURVE SMOOTH",
"193 -14 OFFCURVE",
"60 128 OFFCURVE",
"89 364 CURVE {name = hr00;}"
);
},
{
closed = 1;
nodes = (
"169 183 OFFCURVE",
"254 58 OFFCURVE",
"389 58 CURVE",
"530 58 OFFCURVE",
"640 193 OFFCURVE",
"661 364 CURVE",
"684 552 OFFCURVE",
"593 669 OFFCURVE",
"464 669 CURVE SMOOTH",
"335 669 OFFCURVE",
"214 552 OFFCURVE",
"191 364 CURVE"
);
}
);
width = 791;
},
{
hints = (
{
horizontal = 1;
origin = "{1, 11}";
target = "{0, 5}";
type = Stem;
},
{
horizontal = 1;
origin = "{0, 11}";
target = "{1, 5}";
type = Stem;
},
{
origin = "{1, 2}";
target = "{0, 2}";
type = Stem;
},
{
origin = "{0, 8}";
target = "{1, 8}";
type = Stem;
}
);
layerId = "58254875-FB9E-4C1D-8B15-704836B9A7CF";
paths = (
{
closed = 1;
nodes = (
"267 639 OFFCURVE",
"195 512 OFFCURVE",
"195 364 CURVE",
"195 226 OFFCURVE",
"267 89 OFFCURVE",
"405 89 CURVE",
"515 89 OFFCURVE",
"615 189 OFFCURVE",
"615 364 CURVE",
"615 521 OFFCURVE",
"537 639 OFFCURVE",
"405 639 CURVE {name = hr00;}"
);
},
{
closed = 1;
nodes = (
"174 -14 OFFCURVE",
"43 149 OFFCURVE",
"43 364 CURVE",
"43 573 OFFCURVE",
"176 742 OFFCURVE",
"405 742 CURVE",
"666 742 OFFCURVE",
"766 541 OFFCURVE",
"766 364 CURVE",
"766 168 OFFCURVE",
"637 -14 OFFCURVE",
"405 -14 CURVE"
);
}
);
width = 789;
},
{
hints = (
{
horizontal = 1;
origin = "{1, 11}";
target = "{0, 5}";
type = Stem;
},
{
horizontal = 1;
origin = "{0, 11}";
target = "{1, 5}";
type = Stem;
}
);
layerId = "5E1C92F4-866D-4CC0-BA00-538F5374015A";
paths = (
{
closed = 1;
nodes = (
"345 639 OFFCURVE",
"257 512 OFFCURVE",
"239 364 CURVE",
"222 226 OFFCURVE",
"277 89 OFFCURVE",
"415 89 CURVE",
"525 89 OFFCURVE",
"638 189 OFFCURVE",
"659 364 CURVE",
"678 521 OFFCURVE",
"615 639 OFFCURVE",
"483 639 CURVE {name = hr00;}"
);
},
{
closed = 1;
nodes = (
"172 -14 OFFCURVE",
"61 149 OFFCURVE",
"87 364 CURVE",
"113 573 OFFCURVE",
"267 742 OFFCURVE",
"496 742 CURVE",
"757 742 OFFCURVE",
"832 541 OFFCURVE",
"810 364 CURVE",
"786 168 OFFCURVE",
"635 -14 OFFCURVE",
"403 -14 CURVE"
);
}
);
width = 789;
}
);
unicode = 004F;
},
{
glyphname = Oacute;
lastChange = "2018-08-09 20:24:58 +0000";
layers = (
{
hints = (
{
horizontal = 1;
origin = "{0, 2}";
target = "{1, 8}";
type = Stem;
},
{
horizontal = 1;
origin = "{1, 2}";
target = "{2, 3}";
type = Stem;
},
{
origin = "{0, 5}";
target = "{1, 5}";
type = Stem;
},
{
origin = "{1, 11}";
target = "{0, 11}";
type = Stem;
}
);
layerId = "BAA2CE79-BA31-4701-835E-3D9478C3F4B2";
paths = (
{
closed = 1;
nodes = (
"719 133 OFFCURVE",
"563 -14 OFFCURVE",
"382 -14 CURVE SMOOTH",
"195 -14 OFFCURVE",
"45 128 OFFCURVE",
"45 364 CURVE SMOOTH",
"45 595 OFFCURVE",
"202 742 OFFCURVE",
"382 742 CURVE SMOOTH",
"571 742 OFFCURVE",
"719 599 OFFCURVE",
"719 364 CURVE"
);
},
{
closed = 1;
nodes = (
"617 552 OFFCURVE",
"511 669 OFFCURVE",
"382 669 CURVE SMOOTH",
"253 669 OFFCURVE",
"147 552 OFFCURVE",
"147 364 CURVE SMOOTH",
"147 174 OFFCURVE",
"254 58 OFFCURVE",
"382 58 CURVE SMOOTH",
"511 58 OFFCURVE",
"617 174 OFFCURVE",
"617 364 CURVE"
);
},
{
closed = 1;
nodes = (
"416 763 OFFCURVE",
"379 758 OFFCURVE",
"345 766 CURVE",
"434 890 LINE",
"531 890 LINE {name = hr01;}",
"443 792 LINE"
);
}
);
width = 791;
},
{
hints = (
{
horizontal = 1;
origin = "{0, 2}";
target = "{1, 8}";
type = Stem;
},
{
horizontal = 1;
origin = "{1, 2}";
target = "{2, 3}";
type = Stem;
}
);
layerId = "3BBF7C5C-CA4C-45AB-AE18-0528A0ACCA90";
paths = (
{
closed = 1;
nodes = (
"735 133 OFFCURVE",
"561 -14 OFFCURVE",
"380 -14 CURVE SMOOTH",
"193 -14 OFFCURVE",
"60 128 OFFCURVE",
"89 364 CURVE SMOOTH",
"118 595 OFFCURVE",
"293 742 OFFCURVE",
"473 742 CURVE SMOOTH",
"662 742 OFFCURVE",
"792 599 OFFCURVE",
"763 364 CURVE"
);
},
{
closed = 1;
nodes = (
"684 552 OFFCURVE",
"593 669 OFFCURVE",
"464 669 CURVE SMOOTH",
"335 669 OFFCURVE",
"214 552 OFFCURVE",
"191 364 CURVE SMOOTH",
"168 174 OFFCURVE",
"261 58 OFFCURVE",
"389 58 CURVE SMOOTH",
"518 58 OFFCURVE",
"638 174 OFFCURVE",
"661 364 CURVE"
);
},
{
closed = 1;
nodes = (
"509 763 OFFCURVE",
"472 758 OFFCURVE",
"439 766 CURVE",
"543 890 LINE {name = hr01;}",
"640 890 LINE",
"540 792 LINE"
);
}
);
width = 791;
},
{
hints = (
{
horizontal = 1;
origin = "{1, 11}";
target = "{0, 11}";
type = Stem;
},
{
horizontal = 1;
origin = "{0, 5}";
target = "{1, 5}";
type = Stem;
},
{
horizontal = 1;
origin = "{2, 3}";
target = up;
type = BottomGhost;
},
{
origin = "{1, 2}";
target = "{0, 8}";
type = Stem;
},
{
origin = "{0, 2}";
target = "{1, 8}";
type = Stem;
}
);
layerId = "58254875-FB9E-4C1D-8B15-704836B9A7CF";
paths = (
{
closed = 1;
nodes = (
"519 89 OFFCURVE",
"591 226 OFFCURVE",
"591 364 CURVE SMOOTH",
"591 512 OFFCURVE",
"519 639 OFFCURVE",
"381 639 CURVE",
"243 639 OFFCURVE",
"171 512 OFFCURVE",
"171 364 CURVE",
"171 226 OFFCURVE",
"243 89 OFFCURVE",
"381 89 CURVE {name = hr00;}"
);
},
{
closed = 1;
nodes = (
"155 -14 OFFCURVE",
"19 143 OFFCURVE",
"19 364 CURVE",
"19 582 OFFCURVE",
"160 742 OFFCURVE",
"381 742 CURVE",
"606 742 OFFCURVE",
"742 584 OFFCURVE",
"742 364 CURVE SMOOTH",
"742 145 OFFCURVE",
"591 -14 OFFCURVE",
"381 -14 CURVE"
);
},
{
closed = 1;
nodes = (
"437 763 OFFCURVE",
"364 756 OFFCURVE",
"330 765 CURVE",
"416 890 LINE",
"549 890 LINE",
"477 808 LINE"
);
}
);
width = 791;
},
{
hints = (
{
horizontal = 1;
origin = "{1, 11}";
target = "{0, 11}";
type = Stem;
},
{
horizontal = 1;
origin = "{0, 5}";
target = "{1, 5}";
type = Stem;
},
{
horizontal = 1;
origin = "{2, 3}";
target = up;
type = BottomGhost;
}
);
layerId = "5E1C92F4-866D-4CC0-BA00-538F5374015A";
paths = (
{
closed = 1;
nodes = (
"529 89 OFFCURVE",
"618 226 OFFCURVE",
"635 364 CURVE SMOOTH",
"653 512 OFFCURVE",
"597 639 OFFCURVE",
"459 639 CURVE",
"321 639 OFFCURVE",
"233 512 OFFCURVE",
"215 364 CURVE",
"198 226 OFFCURVE",
"253 89 OFFCURVE",
"391 89 CURVE {name = hr00;}"
);
},
{
closed = 1;
nodes = (
"153 -14 OFFCURVE",
"36 143 OFFCURVE",
"63 364 CURVE",
"90 582 OFFCURVE",
"251 742 OFFCURVE",
"472 742 CURVE",
"697 742 OFFCURVE",
"813 584 OFFCURVE",
"786 364 CURVE SMOOTH",
"759 145 OFFCURVE",
"589 -14 OFFCURVE",
"379 -14 CURVE"
);
},
{
closed = 1;
nodes = (
"530 763 OFFCURVE",
"456 756 OFFCURVE",
"423 765 CURVE",
"525 890 LINE",
"658 890 LINE",
"576 808 LINE"
);
}
);
width = 791;
}
);
unicode = 00D3;
},
{
glyphname = Ocircumflex;
lastChange = "2018-08-09 20:24:58 +0000";
layers = (
{
hints = (
{
horizontal = 1;
origin = "{0, 2}";
target = "{1, 8}";
type = Stem;
},
{
horizontal = 1;
origin = "{1, 2}";
target = "{0, 8}";
type = Stem;
},
{
horizontal = 1;
origin = "{2, 5}";
target = up;
type = BottomGhost;
},
{
origin = "{0, 5}";
target = "{1, 5}";
type = Stem;
},
{
origin = "{1, 11}";
target = "{0, 11}";
type = Stem;
}
);
layerId = "BAA2CE79-BA31-4701-835E-3D9478C3F4B2";
paths = (
{
closed = 1;
nodes = (
"719 133 OFFCURVE",
"563 -14 OFFCURVE",
"382 -14 CURVE SMOOTH",
"195 -14 OFFCURVE",
"45 128 OFFCURVE",
"45 364 CURVE SMOOTH",
"45 595 OFFCURVE",
"202 742 OFFCURVE",
"382 742 CURVE SMOOTH",
"571 742 OFFCURVE",
"719 599 OFFCURVE",
"719 364 CURVE {name = hr00;}"
);
},
{
closed = 1;
nodes = (
"617 552 OFFCURVE",
"511 669 OFFCURVE",
"382 669 CURVE SMOOTH",
"253 669 OFFCURVE",
"147 552 OFFCURVE",
"147 364 CURVE SMOOTH",
"147 174 OFFCURVE",
"254 58 OFFCURVE",
"382 58 CURVE SMOOTH",
"511 58 OFFCURVE",
"617 174 OFFCURVE",
"617 364 CURVE"
);
},
{
closed = 1;
nodes = (
"523 770 LINE",
"471 762 LINE",
"383 821 LINE",
"295 761 LINE",
"246 770 LINE",
"355 890 LINE",
"412 890 LINE"
);
}
);
width = 791;
},
{
hints = (
{
horizontal = 1;
origin = "{0, 2}";
target = "{1, 8}";
type = Stem;
},
{
horizontal = 1;
origin = "{1, 2}";
target = "{0, 8}";
type = Stem;
},
{
horizontal = 1;
origin = "{2, 5}";
target = up;
type = BottomGhost;
}
);
layerId = "3BBF7C5C-CA4C-45AB-AE18-0528A0ACCA90";
paths = (
{
closed = 1;
nodes = (
"735 133 OFFCURVE",
"561 -14 OFFCURVE",
"380 -14 CURVE SMOOTH",
"193 -14 OFFCURVE",
"60 128 OFFCURVE",
"89 364 CURVE SMOOTH",
"118 595 OFFCURVE",
"293 742 OFFCURVE",
"473 742 CURVE SMOOTH",
"662 742 OFFCURVE",
"792 599 OFFCURVE",
"763 364 CURVE {name = hr00;}"
);
},
{
closed = 1;
nodes = (
"684 552 OFFCURVE",
"593 669 OFFCURVE",
"464 669 CURVE SMOOTH",
"335 669 OFFCURVE",
"214 552 OFFCURVE",
"191 364 CURVE SMOOTH",
"168 174 OFFCURVE",
"261 58 OFFCURVE",
"389 58 CURVE SMOOTH",
"518 58 OFFCURVE",
"638 174 OFFCURVE",
"661 364 CURVE"
);
},
{
closed = 1;
nodes = (
"617 770 LINE",
"564 762 LINE",
"483 821 LINE",
"388 761 LINE",
"340 770 LINE",
"464 890 LINE",
"521 890 LINE"
);
}
);
width = 791;
},
{
hints = (
{
horizontal = 1;
origin = "{1, 11}";
target = "{0, 11}";
type = Stem;
},
{
horizontal = 1;
origin = "{0, 5}";
target = "{1, 5}";
type = Stem;
},
{
horizontal = 1;
origin = "{2, 5}";
target = up;
type = BottomGhost;
},
{
origin = "{1, 2}";
target = "{0, 8}";
type = Stem;
},
{
origin = "{0, 2}";
target = "{1, 8}";
type = Stem;
}
);
layerId = "58254875-FB9E-4C1D-8B15-704836B9A7CF";
paths = (
{
closed = 1;
nodes = (
"519 89 OFFCURVE",
"591 226 OFFCURVE",
"591 364 CURVE SMOOTH",
"591 512 OFFCURVE",
"519 639 OFFCURVE",
"381 639 CURVE",
"243 639 OFFCURVE",
"171 512 OFFCURVE",
"171 364 CURVE",
"171 226 OFFCURVE",
"243 89 OFFCURVE",
"381 89 CURVE {name = hr00;}"
);
},
{
closed = 1;
nodes = (
"155 -14 OFFCURVE",
"19 143 OFFCURVE",
"19 364 CURVE",
"19 582 OFFCURVE",
"160 742 OFFCURVE",
"381 742 CURVE",
"606 742 OFFCURVE",
"742 584 OFFCURVE",
"742 364 CURVE SMOOTH",
"742 145 OFFCURVE",
"591 -14 OFFCURVE",
"381 -14 CURVE"
);
},
{
closed = 1;
nodes = (
"542 774 LINE",
"461 756 LINE",
"383 812 LINE",
"307 756 LINE",
"227 774 LINE",
"332 890 LINE",
"435 890 LINE"
);
}
);
width = 791;
},
{
hints = (
{
horizontal = 1;
origin = "{1, 11}";
target = "{0, 11}";
type = Stem;
},
{
horizontal = 1;
origin = "{0, 5}";
target = "{1, 5}";
type = Stem;
},
{
horizontal = 1;
origin = "{2, 5}";
target = up;
type = BottomGhost;
}
);
layerId = "5E1C92F4-866D-4CC0-BA00-538F5374015A";
paths = (
{
closed = 1;
nodes = (
"529 89 OFFCURVE",
"618 226 OFFCURVE",
"635 364 CURVE SMOOTH",
"653 512 OFFCURVE",
"597 639 OFFCURVE",
"459 639 CURVE",
"321 639 OFFCURVE",
"233 512 OFFCURVE",
"215 364 CURVE",
"198 226 OFFCURVE",
"253 89 OFFCURVE",
"391 89 CURVE {name = hr00;}"
);
},
{
closed = 1;
nodes = (
"153 -14 OFFCURVE",
"36 143 OFFCURVE",
"63 364 CURVE",
"90 582 OFFCURVE",
"251 742 OFFCURVE",
"472 742 CURVE",
"697 742 OFFCURVE",
"813 584 OFFCURVE",
"786 364 CURVE SMOOTH",
"759 145 OFFCURVE",
"589 -14 OFFCURVE",
"379 -14 CURVE"
);
},
{
closed = 1;
nodes = (
"637 774 LINE",
"553 756 LINE",
"482 812 LINE",
"399 756 LINE",
"322 774 LINE",
"441 890 LINE",
"544 890 LINE"
);
}
);
width = 791;
}
);
unicode = 00D4;
},
{
glyphname = Odieresis;
lastChange = "2018-08-09 20:24:58 +0000";
layers = (
{
hints = (
{
horizontal = 1;
origin = "{0, 2}";
target = "{1, 8}";
type = Stem;
},
{
horizontal = 1;
origin = "{1, 2}";
target = "{0, 8}";
type = Stem;
},
{
horizontal = 1;
origin = "{2, 8}";
target = "{2, 2}";
type = Stem;
},
{
origin = "{0, 5}";
target = "{1, 5}";
type = Stem;
},
{
origin = "{2, 11}";
target = "{2, 5}";
type = Stem;
},
{
origin = "{3, 11}";
target = "{3, 5}";
type = Stem;
},
{
origin = "{1, 11}";
target = "{0, 11}";
type = Stem;
}
);
layerId = "BAA2CE79-BA31-4701-835E-3D9478C3F4B2";
paths = (
{
closed = 1;
nodes = (
"719 133 OFFCURVE",
"563 -14 OFFCURVE",
"382 -14 CURVE SMOOTH",
"195 -14 OFFCURVE",
"45 128 OFFCURVE",
"45 364 CURVE SMOOTH",
"45 595 OFFCURVE",
"202 742 OFFCURVE",
"382 742 CURVE SMOOTH",
"571 742 OFFCURVE",
"719 599 OFFCURVE",
"719 364 CURVE {name = hr00;}"
);
},
{
closed = 1;
nodes = (
"617 552 OFFCURVE",
"511 669 OFFCURVE",
"382 669 CURVE SMOOTH",
"253 669 OFFCURVE",
"147 552 OFFCURVE",
"147 364 CURVE SMOOTH",
"147 174 OFFCURVE",
"254 58 OFFCURVE",
"382 58 CURVE SMOOTH",
"511 58 OFFCURVE",
"617 174 OFFCURVE",
"617 364 CURVE"
);
},
{
closed = 1;
nodes = (
"234 869 OFFCURVE",
"258 892 OFFCURVE",
"286 892 CURVE SMOOTH",
"315 892 OFFCURVE",
"339 869 OFFCURVE",
"339 840 CURVE SMOOTH",
"339 811 OFFCURVE",
"315 788 OFFCURVE",
"286 788 CURVE SMOOTH",
"258 788 OFFCURVE",
"234 811 OFFCURVE",
"234 840 CURVE SMOOTH"
);
},
{
closed = 1;
nodes = (
"428 869 OFFCURVE",
"452 892 OFFCURVE",
"481 892 CURVE SMOOTH",
"509 892 OFFCURVE",
"533 869 OFFCURVE",
"533 840 CURVE SMOOTH",
"533 811 OFFCURVE",
"509 788 OFFCURVE",
"481 788 CURVE SMOOTH",
"452 788 OFFCURVE",
"428 811 OFFCURVE",
"428 840 CURVE SMOOTH"
);
}
);
width = 791;
},
{
hints = (
{
horizontal = 1;
origin = "{0, 2}";
target = "{1, 8}";
type = Stem;
},
{
horizontal = 1;
origin = "{1, 2}";
target = "{0, 8}";
type = Stem;
},
{
horizontal = 1;
origin = "{2, 8}";
target = "{2, 2}";
type = Stem;
}
);
layerId = "3BBF7C5C-CA4C-45AB-AE18-0528A0ACCA90";
paths = (
{
closed = 1;
nodes = (
"735 133 OFFCURVE",
"561 -14 OFFCURVE",
"380 -14 CURVE SMOOTH",
"193 -14 OFFCURVE",
"60 128 OFFCURVE",
"89 364 CURVE SMOOTH",
"118 595 OFFCURVE",
"293 742 OFFCURVE",
"473 742 CURVE SMOOTH",
"662 742 OFFCURVE",
"792 599 OFFCURVE",
"763 364 CURVE {name = hr00;}"
);
},
{
closed = 1;
nodes = (
"684 552 OFFCURVE",
"593 669 OFFCURVE",
"464 669 CURVE SMOOTH",
"335 669 OFFCURVE",
"214 552 OFFCURVE",
"191 364 CURVE SMOOTH",
"168 174 OFFCURVE",
"261 58 OFFCURVE",
"389 58 CURVE SMOOTH",
"518 58 OFFCURVE",
"638 174 OFFCURVE",
"661 364 CURVE"
);
},
{
closed = 1;
nodes = (
"340 869 OFFCURVE",
"367 892 OFFCURVE",
"395 892 CURVE SMOOTH",
"424 892 OFFCURVE",
"445 869 OFFCURVE",
"442 840 CURVE SMOOTH",
"438 811 OFFCURVE",
"411 788 OFFCURVE",
"382 788 CURVE SMOOTH",
"354 788 OFFCURVE",
"333 811 OFFCURVE",
"337 840 CURVE SMOOTH"
);
},
{
closed = 1;
nodes = (
"534 869 OFFCURVE",
"561 892 OFFCURVE",
"590 892 CURVE SMOOTH",
"618 892 OFFCURVE",
"639 869 OFFCURVE",
"636 840 CURVE SMOOTH",
"632 811 OFFCURVE",
"605 788 OFFCURVE",
"577 788 CURVE SMOOTH",
"548 788 OFFCURVE",
"527 811 OFFCURVE",
"531 840 CURVE SMOOTH"
);
}
);
width = 791;
},
{
hints = (
{
horizontal = 1;
origin = "{1, 11}";
target = "{0, 11}";
type = Stem;
},
{
horizontal = 1;
origin = "{0, 5}";
target = "{1, 5}";
type = Stem;
},
{
horizontal = 1;
origin = "{2, 8}";
target = "{2, 2}";
type = Stem;
},
{
origin = "{1, 2}";
target = "{0, 8}";
type = Stem;
},
{
origin = "{2, 11}";
target = "{2, 5}";
type = Stem;
},
{
origin = "{3, 11}";
target = "{3, 5}";
type = Stem;
},
{
origin = "{0, 2}";
target = "{1, 8}";
type = Stem;
}
);
layerId = "58254875-FB9E-4C1D-8B15-704836B9A7CF";
paths = (
{
closed = 1;
nodes = (
"520 89 OFFCURVE",
"592 226 OFFCURVE",
"592 364 CURVE SMOOTH",
"592 512 OFFCURVE",
"520 639 OFFCURVE",
"382 639 CURVE",
"244 639 OFFCURVE",
"172 512 OFFCURVE",
"172 364 CURVE",
"172 226 OFFCURVE",
"244 89 OFFCURVE",
"382 89 CURVE {name = hr00;}"
);
},
{
closed = 1;
nodes = (
"156 -14 OFFCURVE",
"20 143 OFFCURVE",
"20 364 CURVE",
"20 582 OFFCURVE",
"161 742 OFFCURVE",
"382 742 CURVE",
"607 742 OFFCURVE",
"743 584 OFFCURVE",
"743 364 CURVE SMOOTH",
"743 145 OFFCURVE",
"592 -14 OFFCURVE",
"382 -14 CURVE"
);
},
{
closed = 1;
nodes = (
"223 875 OFFCURVE",
"252 903 OFFCURVE",
"286 903 CURVE SMOOTH",
"321 903 OFFCURVE",
"350 875 OFFCURVE",
"350 840 CURVE SMOOTH",
"350 805 OFFCURVE",
"321 777 OFFCURVE",
"286 777 CURVE SMOOTH",
"252 777 OFFCURVE",
"223 805 OFFCURVE",
"223 840 CURVE SMOOTH"
);
},
{
closed = 1;
nodes = (
"418 875 OFFCURVE",
"447 903 OFFCURVE",
"481 903 CURVE SMOOTH",
"516 903 OFFCURVE",
"545 875 OFFCURVE",
"545 840 CURVE SMOOTH",
"545 805 OFFCURVE",
"516 777 OFFCURVE",
"481 777 CURVE SMOOTH",
"447 777 OFFCURVE",
"418 805 OFFCURVE",
"418 840 CURVE SMOOTH"
);
}
);
width = 791;
},
{
hints = (
{
horizontal = 1;
origin = "{1, 11}";
target = "{0, 11}";
type = Stem;
},
{
horizontal = 1;
origin = "{0, 5}";
target = "{1, 5}";
type = Stem;
},
{
horizontal = 1;
origin = "{2, 8}";
target = "{2, 2}";
type = Stem;
}
);
layerId = "5E1C92F4-866D-4CC0-BA00-538F5374015A";
paths = (
{
closed = 1;
nodes = (
"530 89 OFFCURVE",
"619 226 OFFCURVE",
"636 364 CURVE SMOOTH",
"654 512 OFFCURVE",
"598 639 OFFCURVE",
"460 639 CURVE",
"322 639 OFFCURVE",
"234 512 OFFCURVE",
"216 364 CURVE",
"199 226 OFFCURVE",
"254 89 OFFCURVE",
"392 89 CURVE {name = hr00;}"
);
},
{
closed = 1;
nodes = (
"154 -14 OFFCURVE",
"37 143 OFFCURVE",
"64 364 CURVE",
"91 582 OFFCURVE",
"252 742 OFFCURVE",
"473 742 CURVE",
"698 742 OFFCURVE",
"814 584 OFFCURVE",
"787 364 CURVE SMOOTH",
"760 145 OFFCURVE",
"590 -14 OFFCURVE",
"380 -14 CURVE"
);
},
{
closed = 1;
nodes = (
"330 875 OFFCURVE",
"362 903 OFFCURVE",
"396 903 CURVE SMOOTH",
"431 903 OFFCURVE",
"457 875 OFFCURVE",
"453 840 CURVE SMOOTH",
"448 805 OFFCURVE",
"416 777 OFFCURVE",
"381 777 CURVE SMOOTH",
"347 777 OFFCURVE",
"321 805 OFFCURVE",
"326 840 CURVE SMOOTH"
);
},
{
closed = 1;
nodes = (
"525 875 OFFCURVE",
"557 903 OFFCURVE",
"591 903 CURVE SMOOTH",
"626 903 OFFCURVE",
"652 875 OFFCURVE",
"648 840 CURVE SMOOTH",
"643 805 OFFCURVE",
"611 777 OFFCURVE",
"576 777 CURVE SMOOTH",
"542 777 OFFCURVE",
"516 805 OFFCURVE",
"521 840 CURVE SMOOTH"
);
}
);
width = 791;
}
);
unicode = 00D6;
},
{
glyphname = Ograve;
lastChange = "2018-08-09 20:24:58 +0000";
layers = (
{
hints = (
{
horizontal = 1;
origin = "{0, 2}";
target = "{1, 8}";
type = Stem;
},
{
horizontal = 1;
origin = "{1, 2}";
target = "{2, 5}";
type = Stem;
},
{
origin = "{0, 5}";
target = "{1, 5}";
type = Stem;
},
{
origin = "{1, 11}";
target = "{0, 11}";
type = Stem;
}
);
layerId = "BAA2CE79-BA31-4701-835E-3D9478C3F4B2";
paths = (
{
closed = 1;
nodes = (
"719 133 OFFCURVE",
"563 -14 OFFCURVE",
"382 -14 CURVE SMOOTH",
"195 -14 OFFCURVE",
"45 128 OFFCURVE",
"45 364 CURVE SMOOTH",
"45 595 OFFCURVE",
"202 742 OFFCURVE",
"382 742 CURVE SMOOTH",
"571 742 OFFCURVE",
"719 599 OFFCURVE",
"719 364 CURVE"
);
},
{
closed = 1;
nodes = (
"617 552 OFFCURVE",
"511 669 OFFCURVE",
"382 669 CURVE SMOOTH",
"253 669 OFFCURVE",
"147 552 OFFCURVE",
"147 364 CURVE SMOOTH",
"147 174 OFFCURVE",
"254 58 OFFCURVE",
"382 58 CURVE SMOOTH",
"511 58 OFFCURVE",
"617 174 OFFCURVE",
"617 364 CURVE"
);
},
{
closed = 1;
nodes = (
"331 890 LINE {name = hr01;}",
"405 766 LINE",
"371 758 OFFCURVE",
"332 763 OFFCURVE",
"310 792 CURVE",
"237 890 LINE"
);
}
);
width = 791;
},
{
hints = (
{
horizontal = 1;
origin = "{0, 2}";
target = "{1, 8}";
type = Stem;
},
{
horizontal = 1;
origin = "{1, 2}";
target = "{2, 5}";
type = Stem;
}
);
layerId = "3BBF7C5C-CA4C-45AB-AE18-0528A0ACCA90";
paths = (
{
closed = 1;
nodes = (
"735 133 OFFCURVE",
"561 -14 OFFCURVE",
"380 -14 CURVE SMOOTH",
"193 -14 OFFCURVE",
"60 128 OFFCURVE",
"89 364 CURVE SMOOTH",
"118 595 OFFCURVE",
"293 742 OFFCURVE",
"473 742 CURVE SMOOTH",
"662 742 OFFCURVE",
"792 599 OFFCURVE",
"763 364 CURVE"
);
},
{
closed = 1;
nodes = (
"684 552 OFFCURVE",
"593 669 OFFCURVE",
"464 669 CURVE SMOOTH",
"335 669 OFFCURVE",
"214 552 OFFCURVE",
"191 364 CURVE SMOOTH",
"168 174 OFFCURVE",
"261 58 OFFCURVE",
"389 58 CURVE SMOOTH",
"518 58 OFFCURVE",
"638 174 OFFCURVE",
"661 364 CURVE"
);
},
{
closed = 1;
nodes = (
"440 890 LINE",
"499 766 LINE",
"464 758 OFFCURVE",
"425 763 OFFCURVE",
"407 792 CURVE",
"346 890 LINE {name = hr01;}"
);
}
);
width = 791;
},
{
hints = (
{
horizontal = 1;
origin = "{1, 11}";
target = "{0, 11}";
type = Stem;
},
{
horizontal = 1;
origin = "{0, 5}";
target = "{1, 5}";
type = Stem;
},
{
horizontal = 1;
origin = "{2, 5}";
target = up;
type = BottomGhost;
},
{
origin = "{1, 2}";
target = "{0, 8}";
type = Stem;
},
{
origin = "{0, 2}";
target = "{1, 8}";
type = Stem;
}
);
layerId = "58254875-FB9E-4C1D-8B15-704836B9A7CF";
paths = (
{
closed = 1;
nodes = (
"521 89 OFFCURVE",
"593 226 OFFCURVE",
"593 364 CURVE SMOOTH",
"593 512 OFFCURVE",
"521 639 OFFCURVE",
"383 639 CURVE",
"245 639 OFFCURVE",
"173 512 OFFCURVE",
"173 364 CURVE",
"173 226 OFFCURVE",
"245 89 OFFCURVE",
"383 89 CURVE {name = hr00;}"
);
},
{
closed = 1;
nodes = (
"157 -14 OFFCURVE",
"21 143 OFFCURVE",
"21 364 CURVE",
"21 582 OFFCURVE",
"162 742 OFFCURVE",
"383 742 CURVE",
"608 742 OFFCURVE",
"744 584 OFFCURVE",
"744 364 CURVE SMOOTH",
"744 145 OFFCURVE",
"593 -14 OFFCURVE",
"383 -14 CURVE"
);
},
{
closed = 1;
nodes = (
"350 890 LINE",
"424 765 LINE",
"390 756 OFFCURVE",
"312 762 OFFCURVE",
"278 808 CURVE",
"217 890 LINE"
);
}
);
width = 791;
},
{
hints = (
{
horizontal = 1;
origin = "{1, 11}";
target = "{0, 11}";
type = Stem;
},
{
horizontal = 1;
origin = "{0, 5}";
target = "{1, 5}";
type = Stem;
},
{
horizontal = 1;
origin = "{2, 5}";
target = up;
type = BottomGhost;
}
);
layerId = "5E1C92F4-866D-4CC0-BA00-538F5374015A";
paths = (
{
closed = 1;
nodes = (
"531 89 OFFCURVE",
"620 226 OFFCURVE",
"637 364 CURVE SMOOTH",
"655 512 OFFCURVE",
"599 639 OFFCURVE",
"461 639 CURVE",
"323 639 OFFCURVE",
"235 512 OFFCURVE",
"217 364 CURVE",
"200 226 OFFCURVE",
"255 89 OFFCURVE",
"393 89 CURVE {name = hr00;}"
);
},
{
closed = 1;
nodes = (
"155 -14 OFFCURVE",
"38 143 OFFCURVE",
"65 364 CURVE",
"92 582 OFFCURVE",
"253 742 OFFCURVE",
"474 742 CURVE",
"699 742 OFFCURVE",
"815 584 OFFCURVE",
"788 364 CURVE SMOOTH",
"761 145 OFFCURVE",
"591 -14 OFFCURVE",
"381 -14 CURVE"
);
},
{
closed = 1;
nodes = (
"459 890 LINE",
"517 765 LINE",
"482 756 OFFCURVE",
"405 762 OFFCURVE",
"377 808 CURVE",
"326 890 LINE"
);
}
);
width = 791;
}
);
unicode = 00D2;
},
{
glyphname = Oslash;
lastChange = "2018-08-09 20:33:40 +0000";
layers = (
{
hints = (
{
horizontal = 1;
origin = "{0, 5}";
target = "{1, 16}";
type = Stem;
},
{
horizontal = 1;
origin = "{1, 10}";
target = "{0, 17}";
type = Stem;
},
{
horizontal = 1;
origin = "{0, 21}";
target = up;
type = BottomGhost;
},
{
origin = "{0, 14}";
target = "{1, 13}";
type = Stem;
},
{
origin = "{1, 19}";
target = "{0, 2}";
type = Stem;
}
);
layerId = "BAA2CE79-BA31-4701-835E-3D9478C3F4B2";
paths = (
{
closed = 1;
nodes = (
"176 -60 LINE",
"225 24 LINE",
"272 -1 OFFCURVE",
"325 -14 OFFCURVE",
"382 -14 CURVE SMOOTH {name = hr01;}",
"563 -14 OFFCURVE",
"719 133 OFFCURVE",
"719 364 CURVE SMOOTH",
"719 497 OFFCURVE",
"671 600 OFFCURVE",
"596 665 CURVE",
"669 789 LINE",
"590 789 LINE",
"539 704 LINE",
"492 729 OFFCURVE",
"439 742 OFFCURVE",
"382 742 CURVE SMOOTH",
"202 742 OFFCURVE",
"45 595 OFFCURVE",
"45 364 CURVE SMOOTH",
"45 230 OFFCURVE",
"93 126 OFFCURVE",
"169 62 CURVE",
"97 -60 LINE"
);
},
{
closed = 1;
nodes = (
"254 56 OFFCURVE",
"144 174 OFFCURVE",
"144 364 CURVE SMOOTH",
"144 552 OFFCURVE",
"253 671 OFFCURVE",
"382 671 CURVE SMOOTH",
"424 671 OFFCURVE",
"465 658 OFFCURVE",
"499 635 CURVE",
"263 240 LINE",
"242 202 OFFCURVE",
"258 159 OFFCURVE",
"281 133 CURVE",
"549 586 LINE",
"591 533 OFFCURVE",
"620 457 OFFCURVE",
"620 364 CURVE SMOOTH",
"620 174 OFFCURVE",
"511 56 OFFCURVE",
"382 56 CURVE SMOOTH"
);
}
);
width = 791;
},
{
hints = (
{
horizontal = 1;
origin = "{0, 10}";
target = "{1, 16}";
type = Stem;
},
{
horizontal = 1;
origin = "{1, 10}";
target = "{0, 17}";
type = Stem;
},
{
horizontal = 1;
origin = "{0, 21}";
target = up;
type = BottomGhost;
}
);
layerId = "3BBF7C5C-CA4C-45AB-AE18-0528A0ACCA90";
paths = (
{
closed = 1;
nodes = (
"168 -60 LINE {name = hr01;}",
"227 24 LINE",
"271 -1 OFFCURVE",
"323 -14 OFFCURVE",
"380 -14 CURVE SMOOTH",
"561 -14 OFFCURVE",
"735 133 OFFCURVE",
"763 364 CURVE SMOOTH",
"780 497 OFFCURVE",
"744 600 OFFCURVE",
"677 665 CURVE",
"765 789 LINE",
"686 789 LINE",
"625 704 LINE",
"581 729 OFFCURVE",
"530 742 OFFCURVE",
"473 742 CURVE SMOOTH",
"293 742 OFFCURVE",
"118 595 OFFCURVE",
"89 364 CURVE SMOOTH",
"73 230 OFFCURVE",
"108 126 OFFCURVE",
"176 62 CURVE",
"89 -60 LINE"
);
},
{
closed = 1;
nodes = (
"260 56 OFFCURVE",
"165 174 OFFCURVE",
"188 364 CURVE SMOOTH",
"211 552 OFFCURVE",
"335 671 OFFCURVE",
"464 671 CURVE SMOOTH",
"506 671 OFFCURVE",
"545 658 OFFCURVE",
"576 635 CURVE",
"292 240 LINE",
"266 202 OFFCURVE",
"277 159 OFFCURVE",
"297 133 CURVE",
"620 586 LINE",
"656 533 OFFCURVE",
"676 457 OFFCURVE",
"664 364 CURVE SMOOTH",
"641 174 OFFCURVE",
"517 56 OFFCURVE",
"388 56 CURVE SMOOTH"
);
}
);
width = 791;
},
{
hints = (
{
horizontal = 1;
origin = "{0, 10}";
target = up;
type = BottomGhost;
},
{
horizontal = 1;
origin = "{0, 5}";
target = "{1, 19}";
type = Stem;
},
{
horizontal = 1;
origin = "{1, 13}";
target = "{0, 17}";
type = Stem;
},
{
horizontal = 1;
origin = "{0, 21}";
target = up;
type = BottomGhost;
},
{
origin = "{0, 14}";
target = "{1, 16}";
type = Stem;
},
{
origin = "{1, 2}";
target = "{0, 2}";
type = Stem;
}
);
layerId = "58254875-FB9E-4C1D-8B15-704836B9A7CF";
paths = (
{
closed = 1;
nodes = (
"196 -60 LINE",
"237 11 LINE",
"280 -5 OFFCURVE",
"328 -14 OFFCURVE",
"382 -14 CURVE SMOOTH",
"592 -14 OFFCURVE",
"743 145 OFFCURVE",
"743 364 CURVE SMOOTH",
"743 491 OFFCURVE",
"697 598 OFFCURVE",
"616 665 CURVE {name = hr00;}",
"689 789 LINE",
"570 789 LINE",
"526 716 LINE",
"484 733 OFFCURVE",
"435 742 OFFCURVE",
"382 742 CURVE SMOOTH",
"161 742 OFFCURVE",
"20 582 OFFCURVE",
"20 364 CURVE SMOOTH",
"20 235 OFFCURVE",
"66 129 OFFCURVE",
"149 62 CURVE",
"77 -60 LINE"
);
},
{
closed = 1;
nodes = (
"244 89 OFFCURVE",
"172 226 OFFCURVE",
"172 364 CURVE SMOOTH",
"172 512 OFFCURVE",
"244 639 OFFCURVE",
"382 639 CURVE SMOOTH",
"415 639 OFFCURVE",
"444 632 OFFCURVE",
"469 619 CURVE",
"275 294 LINE",
"246 235 OFFCURVE",
"278 184 OFFCURVE",
"308 144 CURVE",
"546 546 LINE",
"576 497 OFFCURVE",
"592 433 OFFCURVE",
"592 364 CURVE SMOOTH",
"592 226 OFFCURVE",
"520 89 OFFCURVE",
"382 89 CURVE SMOOTH"
);
}
);
width = 791;
},
{
hints = (
{
horizontal = 1;
origin = "{0, 10}";
target = up;
type = BottomGhost;
},
{
horizontal = 1;
origin = "{0, 5}";
target = "{1, 19}";
type = Stem;
},
{
horizontal = 1;
origin = "{1, 13}";
target = "{0, 17}";
type = Stem;
},
{
horizontal = 1;
origin = "{0, 21}";
target = up;
type = BottomGhost;
}
);
layerId = "5E1C92F4-866D-4CC0-BA00-538F5374015A";
paths = (
{
closed = 1;
nodes = (
"188 -60 LINE",
"238 11 LINE",
"279 -5 OFFCURVE",
"326 -14 OFFCURVE",
"380 -14 CURVE SMOOTH",
"590 -14 OFFCURVE",
"760 145 OFFCURVE",
"787 364 CURVE SMOOTH",
"803 491 OFFCURVE",
"770 598 OFFCURVE",
"697 665 CURVE {name = hr00;}",
"785 789 LINE",
"666 789 LINE",
"613 716 LINE",
"574 733 OFFCURVE",
"526 742 OFFCURVE",
"473 742 CURVE SMOOTH",
"252 742 OFFCURVE",
"91 582 OFFCURVE",
"64 364 CURVE SMOOTH",
"48 235 OFFCURVE",
"81 129 OFFCURVE",
"156 62 CURVE",
"69 -60 LINE"
);
},
{
closed = 1;
nodes = (
"254 89 OFFCURVE",
"199 226 OFFCURVE",
"216 364 CURVE SMOOTH",
"234 512 OFFCURVE",
"322 639 OFFCURVE",
"460 639 CURVE SMOOTH",
"493 639 OFFCURVE",
"521 632 OFFCURVE",
"545 619 CURVE",
"311 294 LINE",
"274 235 OFFCURVE",
"300 184 OFFCURVE",
"325 144 CURVE",
"613 546 LINE",
"637 497 OFFCURVE",
"645 433 OFFCURVE",
"636 364 CURVE SMOOTH",
"619 226 OFFCURVE",
"530 89 OFFCURVE",
"392 89 CURVE SMOOTH"
);
}
);
width = 791;
}
);
unicode = 00D8;
},
{
glyphname = Otilde;
lastChange = "2018-08-09 20:33:40 +0000";
layers = (
{
hints = (
{
horizontal = 1;
origin = "{0, 2}";
target = "{1, 8}";
type = Stem;
},
{
horizontal = 1;
origin = "{1, 2}";
target = "{0, 8}";
type = Stem;
},
{
horizontal = 1;
origin = "{2, 21}";
target = "{2, 2}";
type = Stem;
},
{
origin = "{0, 5}";
target = "{1, 5}";
type = Stem;
},
{
origin = "{1, 11}";
target = "{0, 11}";
type = Stem;
}
);
layerId = "BAA2CE79-BA31-4701-835E-3D9478C3F4B2";
paths = (
{
closed = 1;
nodes = (
"563 -14 OFFCURVE",
"719 133 OFFCURVE",
"719 364 CURVE",
"719 599 OFFCURVE",
"571 742 OFFCURVE",
"382 742 CURVE SMOOTH",
"202 742 OFFCURVE",
"45 595 OFFCURVE",
"45 364 CURVE SMOOTH",
"45 128 OFFCURVE",
"195 -14 OFFCURVE",
"382 -14 CURVE SMOOTH"
);
},
{
closed = 1;
nodes = (
"254 58 OFFCURVE",
"147 174 OFFCURVE",
"147 364 CURVE SMOOTH",
"147 552 OFFCURVE",
"253 669 OFFCURVE",
"382 669 CURVE SMOOTH",
"511 669 OFFCURVE",
"617 552 OFFCURVE",
"617 364 CURVE",
"617 174 OFFCURVE",
"511 58 OFFCURVE",
"382 58 CURVE SMOOTH"
);
},
{
closed = 1;
nodes = (
"300 819 OFFCURVE",
"315 835 OFFCURVE",
"332 835 CURVE SMOOTH",
"355 835 OFFCURVE",
"365 818 OFFCURVE",
"384 802 CURVE SMOOTH",
"401 786 OFFCURVE",
"423 779 OFFCURVE",
"449 779 CURVE SMOOTH",
"487 779 OFFCURVE",
"529 803 OFFCURVE",
"533 887 CURVE",
"480 893 LINE",
"477 856 OFFCURVE",
"467 835 OFFCURVE",
"449 835 CURVE SMOOTH",
"423 835 OFFCURVE",
"413 851 OFFCURVE",
"395 867 CURVE SMOOTH",
"377 883 OFFCURVE",
"355 891 OFFCURVE",
"331 891 CURVE SMOOTH {name = hr01;}",
"283 890 OFFCURVE",
"244 858 OFFCURVE",
"242 783 CURVE",
"297 777 LINE"
);
}
);
width = 791;
},
{
hints = (
{
horizontal = 1;
origin = "{0, 2}";
target = "{1, 8}";
type = Stem;
},
{
horizontal = 1;
origin = "{1, 2}";
target = "{0, 8}";
type = Stem;
},
{
horizontal = 1;
origin = "{2, 15}";
target = "{2, 21}";
type = Stem;
},
{
horizontal = 1;
origin = "{2, 11}";
target = up;
type = BottomGhost;
}
);
layerId = "3BBF7C5C-CA4C-45AB-AE18-0528A0ACCA90";
paths = (
{
closed = 1;
nodes = (
"561 -14 OFFCURVE",
"735 133 OFFCURVE",
"763 364 CURVE",
"792 599 OFFCURVE",
"662 742 OFFCURVE",
"473 742 CURVE SMOOTH",
"293 742 OFFCURVE",
"118 595 OFFCURVE",
"89 364 CURVE SMOOTH",
"60 128 OFFCURVE",
"193 -14 OFFCURVE",
"380 -14 CURVE SMOOTH"
);
},
{
closed = 1;
nodes = (
"261 58 OFFCURVE",
"168 174 OFFCURVE",
"191 364 CURVE SMOOTH",
"214 552 OFFCURVE",
"335 669 OFFCURVE",
"464 669 CURVE SMOOTH",
"593 669 OFFCURVE",
"684 552 OFFCURVE",
"661 364 CURVE",
"638 174 OFFCURVE",
"518 58 OFFCURVE",
"389 58 CURVE SMOOTH"
);
},
{
closed = 1;
nodes = (
"400 819 OFFCURVE",
"417 835 OFFCURVE",
"434 835 CURVE SMOOTH",
"457 835 OFFCURVE",
"465 818 OFFCURVE",
"482 802 CURVE SMOOTH",
"497 786 OFFCURVE",
"518 779 OFFCURVE",
"544 779 CURVE SMOOTH",
"582 779 OFFCURVE",
"627 803 OFFCURVE",
"641 887 CURVE",
"589 893 LINE {name = hr01;}",
"582 856 OFFCURVE",
"569 835 OFFCURVE",
"551 835 CURVE SMOOTH",
"525 835 OFFCURVE",
"517 851 OFFCURVE",
"501 867 CURVE SMOOTH",
"485 883 OFFCURVE",
"464 891 OFFCURVE",
"440 891 CURVE SMOOTH",
"392 890 OFFCURVE",
"349 858 OFFCURVE",
"338 783 CURVE",
"392 777 LINE"
);
}
);
width = 791;
},
{
hints = (
{
horizontal = 1;
origin = "{1, 11}";
target = "{0, 11}";
type = Stem;
},
{
horizontal = 1;
origin = "{0, 5}";
target = "{1, 5}";
type = Stem;
},
{
horizontal = 1;
origin = "{2, 12}";
target = "{2, 5}";
type = Stem;
},
{
origin = "{1, 2}";
target = "{0, 8}";
type = Stem;
},
{
origin = "{0, 2}";
target = "{1, 8}";
type = Stem;
},
{
horizontal = 1;
origin = "{2, 15}";
target = "{2, 5}";
type = Stem;
}
);
layerId = "58254875-FB9E-4C1D-8B15-704836B9A7CF";
paths = (
{
closed = 1;
nodes = (
"592 -14 OFFCURVE",
"743 145 OFFCURVE",
"743 364 CURVE SMOOTH",
"743 584 OFFCURVE",
"607 742 OFFCURVE",
"382 742 CURVE",
"161 742 OFFCURVE",
"20 582 OFFCURVE",
"20 364 CURVE",
"20 143 OFFCURVE",
"156 -14 OFFCURVE",
"382 -14 CURVE"
);
},
{
closed = 1;
nodes = (
"244 89 OFFCURVE",
"172 226 OFFCURVE",
"172 364 CURVE",
"172 512 OFFCURVE",
"244 639 OFFCURVE",
"382 639 CURVE",
"520 639 OFFCURVE",
"592 512 OFFCURVE",
"592 364 CURVE SMOOTH",
"592 226 OFFCURVE",
"520 89 OFFCURVE",
"382 89 CURVE"
);
},
{
closed = 1;
nodes = (
"491 769 OFFCURVE",
"543 803 OFFCURVE",
"547 887 CURVE",
"474 893 LINE",
"471 866 OFFCURVE",
"460 848 OFFCURVE",
"443 848 CURVE SMOOTH {name = hr01;}",
"413 848 OFFCURVE",
"384 901 OFFCURVE",
"325 901 CURVE",
"277 900 OFFCURVE",
"228 858 OFFCURVE",
"226 783 CURVE",
"301 777 LINE",
"304 811 OFFCURVE",
"322 822 OFFCURVE",
"336 822 CURVE SMOOTH {name = hr02;}",
"369 822 OFFCURVE",
"386 769 OFFCURVE",
"453 769 CURVE SMOOTH"
);
}
);
width = 791;
},
{
hints = (
{
horizontal = 1;
origin = "{1, 11}";
target = "{0, 11}";
type = Stem;
},
{
horizontal = 1;
origin = "{0, 5}";
target = "{1, 5}";
type = Stem;
},
{
horizontal = 1;
origin = "{2, 12}";
target = "{2, 5}";
type = Stem;
},
{
horizontal = 1;
origin = "{2, 15}";
target = "{2, 5}";
type = Stem;
}
);
layerId = "5E1C92F4-866D-4CC0-BA00-538F5374015A";
paths = (
{
closed = 1;
nodes = (
"590 -14 OFFCURVE",
"760 145 OFFCURVE",
"787 364 CURVE SMOOTH",
"814 584 OFFCURVE",
"698 742 OFFCURVE",
"473 742 CURVE",
"252 742 OFFCURVE",
"91 582 OFFCURVE",
"64 364 CURVE",
"37 143 OFFCURVE",
"154 -14 OFFCURVE",
"380 -14 CURVE"
);
},
{
closed = 1;
nodes = (
"254 89 OFFCURVE",
"199 226 OFFCURVE",
"216 364 CURVE",
"234 512 OFFCURVE",
"322 639 OFFCURVE",
"460 639 CURVE",
"598 639 OFFCURVE",
"654 512 OFFCURVE",
"636 364 CURVE SMOOTH",
"619 226 OFFCURVE",
"530 89 OFFCURVE",
"392 89 CURVE"
);
},
{
closed = 1;
nodes = (
"585 769 OFFCURVE",
"641 803 OFFCURVE",
"655 887 CURVE",
"583 893 LINE",
"577 866 OFFCURVE",
"564 848 OFFCURVE",
"547 848 CURVE SMOOTH {name = hr01;}",
"517 848 OFFCURVE",
"494 901 OFFCURVE",
"435 901 CURVE",
"387 900 OFFCURVE",
"333 858 OFFCURVE",
"322 783 CURVE",
"396 777 LINE",
"403 811 OFFCURVE",
"422 822 OFFCURVE",
"436 822 CURVE SMOOTH {name = hr02;}",
"469 822 OFFCURVE",
"480 769 OFFCURVE",
"547 769 CURVE SMOOTH"
);
}
);
width = 791;
}
);
unicode = 00D5;
},
{
glyphname = OE;
lastChange = "2018-08-09 20:33:40 +0000";
layers = (
{
hints = (
{
horizontal = 1;
origin = "{0, 15}";
target = "{0, 12}";
type = Stem;
},
{
horizontal = 1;
origin = "{2, 1}";
target = "{2, 4}";
type = Stem;
},
{
horizontal = 1;
origin = "{0, 11}";
target = "{0, 8}";
type = Stem;
},
{
origin = "{0, 2}";
target = "{1, 2}";
type = Stem;
},
{
origin = "{1, 8}";
target = "{0, 12}";
type = Stem;
},
{
horizontal = 1;
origin = "{0, 18}";
target = "{1, 5}";
type = Stem;
},
{
horizontal = 1;
origin = "{1, 12}";
target = "{0, 5}";
type = Stem;
}
);
layerId = "BAA2CE79-BA31-4701-835E-3D9478C3F4B2";
paths = (
{
closed = 1;
nodes = (
"415 -14 OFFCURVE",
"476 0 OFFCURVE",
"530 0 CURVE {name = hr01;}",
"929 0 LINE",
"929 72 LINE",
"595 72 LINE",
"595 655 LINE",
"914 655 LINE",
"914 727 LINE",
"530 727 LINE",
"480 727 OFFCURVE",
"420 742 OFFCURVE",
"382 742 CURVE SMOOTH {name = hr02;}",
"202 742 OFFCURVE",
"45 595 OFFCURVE",
"45 364 CURVE SMOOTH",
"45 128 OFFCURVE",
"195 -14 OFFCURVE",
"382 -14 CURVE"
);
},
{
closed = 1;
nodes = (
"254 58 OFFCURVE",
"147 174 OFFCURVE",
"147 364 CURVE SMOOTH",
"147 552 OFFCURVE",
"253 669 OFFCURVE",
"382 669 CURVE",
"416 669 OFFCURVE",
"463 662 OFFCURVE",
"500 650 CURVE",
"500 77 LINE",
"458 63 OFFCURVE",
"416 58 OFFCURVE",
"382 58 CURVE SMOOTH"
);
},
{
closed = 1;
nodes = (
"880 346 LINE",
"880 416 LINE",
"719 416 LINE",
"671 416 OFFCURVE",
"647 384 OFFCURVE",
"633 346 CURVE"
);
}
);
width = 959;
},
{
hints = (
{
horizontal = 1;
origin = "{0, 15}";
target = "{0, 12}";
type = Stem;
},
{
horizontal = 1;
origin = "{2, 1}";
target = "{2, 4}";
type = Stem;
},
{
horizontal = 1;
origin = "{0, 11}";
target = "{0, 8}";
type = Stem;
},
{
horizontal = 1;
origin = "{0, 18}";
target = "{1, 5}";
type = Stem;
},
{
horizontal = 1;
origin = "{1, 12}";
target = "{0, 5}";
type = Stem;
}
);
layerId = "3BBF7C5C-CA4C-45AB-AE18-0528A0ACCA90";
paths = (
{
closed = 1;
nodes = (
"413 -14 OFFCURVE",
"476 0 OFFCURVE",
"530 0 CURVE",
"929 0 LINE",
"937 72 LINE",
"603 72 LINE",
"675 655 LINE",
"994 655 LINE",
"1003 727 LINE",
"619 727 LINE {name = hr01;}",
"569 727 OFFCURVE",
"511 742 OFFCURVE",
"473 742 CURVE SMOOTH",
"293 742 OFFCURVE",
"118 595 OFFCURVE",
"89 364 CURVE SMOOTH",
"60 128 OFFCURVE",
"193 -14 OFFCURVE",
"380 -14 CURVE"
);
},
{
closed = 1;
nodes = (
"261 58 OFFCURVE",
"168 174 OFFCURVE",
"191 364 CURVE SMOOTH",
"214 552 OFFCURVE",
"335 669 OFFCURVE",
"464 669 CURVE",
"498 669 OFFCURVE",
"544 662 OFFCURVE",
"579 650 CURVE",
"509 77 LINE",
"465 63 OFFCURVE",
"423 58 OFFCURVE",
"389 58 CURVE SMOOTH"
);
},
{
closed = 1;
nodes = (
"922 346 LINE",
"931 416 LINE",
"770 416 LINE",
"722 416 OFFCURVE",
"694 384 OFFCURVE",
"675 346 CURVE"
);
}
);
width = 959;
},
{
hints = (
{
horizontal = 1;
origin = "{0, 9}";
target = "{0, 6}";
type = Stem;
},
{
horizontal = 1;
origin = "{2, 5}";
target = "{2, 2}";
type = Stem;
},
{
horizontal = 1;
origin = "{0, 5}";
target = "{0, 2}";
type = Stem;
},
{
origin = "{0, 15}";
target = "{1, 9}";
type = Stem;
},
{
origin = "{1, 2}";
target = "{0, 6}";
type = Stem;
},
{
horizontal = 1;
origin = "{0, 12}";
target = "{1, 12}";
type = Stem;
},
{
horizontal = 1;
origin = "{1, 6}";
target = "{0, 18}";
type = Stem;
}
);
layerId = "58254875-FB9E-4C1D-8B15-704836B9A7CF";
paths = (
{
closed = 1;
nodes = (
"430 -14 OFFCURVE",
"475 0 OFFCURVE",
"541 0 CURVE SMOOTH",
"930 0 LINE",
"930 103 LINE",
"621 103 LINE",
"621 624 LINE",
"914 624 LINE",
"914 727 LINE",
"541 727 LINE SMOOTH {name = hr01;}",
"480 727 OFFCURVE",
"436 742 OFFCURVE",
"382 742 CURVE SMOOTH",
"161 742 OFFCURVE",
"20 582 OFFCURVE",
"20 364 CURVE SMOOTH",
"20 143 OFFCURVE",
"156 -14 OFFCURVE",
"382 -14 CURVE SMOOTH {name = hr02;}"
);
},
{
closed = 1;
nodes = (
"244 89 OFFCURVE",
"172 226 OFFCURVE",
"172 364 CURVE SMOOTH",
"172 512 OFFCURVE",
"244 639 OFFCURVE",
"382 639 CURVE SMOOTH",
"417 639 OFFCURVE",
"449 633 OFFCURVE",
"478 622 CURVE",
"478 105 LINE",
"449 94 OFFCURVE",
"417 89 OFFCURVE",
"382 89 CURVE SMOOTH"
);
},
{
closed = 1;
nodes = (
"880 331 LINE",
"880 432 LINE",
"759 432 LINE SMOOTH",
"701 432 OFFCURVE",
"672 375 OFFCURVE",
"659 331 CURVE"
);
}
);
width = 959;
},
{
hints = (
{
horizontal = 1;
origin = "{0, 9}";
target = "{0, 6}";
type = Stem;
},
{
horizontal = 1;
origin = "{2, 5}";
target = "{2, 2}";
type = Stem;
},
{
horizontal = 1;
origin = "{0, 5}";
target = "{0, 2}";
type = Stem;
},
{
horizontal = 1;
origin = "{0, 12}";
target = "{1, 12}";
type = Stem;
},
{
horizontal = 1;
origin = "{1, 6}";
target = "{0, 18}";
type = Stem;
}
);
layerId = "5E1C92F4-866D-4CC0-BA00-538F5374015A";
paths = (
{
closed = 1;
nodes = (
"428 -14 OFFCURVE",
"475 0 OFFCURVE",
"541 0 CURVE SMOOTH",
"930 0 LINE",
"942 103 LINE",
"633 103 LINE",
"697 624 LINE",
"990 624 LINE",
"1003 727 LINE",
"630 727 LINE SMOOTH {name = hr01;}",
"569 727 OFFCURVE",
"527 742 OFFCURVE",
"473 742 CURVE SMOOTH",
"252 742 OFFCURVE",
"91 582 OFFCURVE",
"64 364 CURVE SMOOTH",
"37 143 OFFCURVE",
"154 -14 OFFCURVE",
"380 -14 CURVE SMOOTH {name = hr02;}"
);
},
{
closed = 1;
nodes = (
"254 89 OFFCURVE",
"199 226 OFFCURVE",
"216 364 CURVE SMOOTH",
"234 512 OFFCURVE",
"322 639 OFFCURVE",
"460 639 CURVE SMOOTH",
"495 639 OFFCURVE",
"526 633 OFFCURVE",
"554 622 CURVE",
"490 105 LINE",
"460 94 OFFCURVE",
"427 89 OFFCURVE",
"392 89 CURVE SMOOTH"
);
},
{
closed = 1;
nodes = (
"920 331 LINE",
"933 432 LINE",
"812 432 LINE SMOOTH",
"754 432 OFFCURVE",
"718 375 OFFCURVE",
"699 331 CURVE"
);
}
);
width = 959;
}
);
unicode = 0152;
},
{
glyphname = P;
lastChange = "2018-08-09 20:24:58 +0000";
layers = (
{
hints = (
{
horizontal = 1;
origin = "{0, 18}";
target = up;
type = BottomGhost;
},
{
horizontal = 1;
origin = "{0, 14}";
target = "{0, 23}";
type = Stem;
},
{
origin = "{0, 19}";
target = "{0, 18}";
type = Stem;
},
{
origin = "{0, 11}";
target = "{0, 26}";
type = Stem;
}
);
layerId = "BAA2CE79-BA31-4701-835E-3D9478C3F4B2";
paths = (
{
closed = 1;
nodes = (
"558 392 OFFCURVE",
"444 315 OFFCURVE",
"324 305 CURVE SMOOTH",
"295 302 OFFCURVE",
"261 303 OFFCURVE",
"224 313 CURVE",
"239 347 OFFCURVE",
"270 374 OFFCURVE",
"312 374 CURVE SMOOTH",
"381 374 OFFCURVE",
"457 435 OFFCURVE",
"457 520 CURVE",
"457 604 OFFCURVE",
"384 667 OFFCURVE",
"294 667 CURVE SMOOTH",
"257 667 OFFCURVE",
"220 665 OFFCURVE",
"184 661 CURVE",
"184 0 LINE",
"89 2 LINE",
"89 720 LINE",
"164 735 OFFCURVE",
"221 740 OFFCURVE",
"294 740 CURVE",
"455 740 OFFCURVE",
"558 641 OFFCURVE",
"558 520 CURVE SMOOTH {name = hr00;}"
);
}
);
width = 609;
},
{
hints = (
{
horizontal = 1;
origin = "{0, 18}";
target = up;
type = BottomGhost;
},
{
horizontal = 1;
origin = "{0, 14}";
target = "{0, 23}";
type = Stem;
}
);
layerId = "3BBF7C5C-CA4C-45AB-AE18-0528A0ACCA90";
paths = (
{
closed = 1;
nodes = (
"606 392 OFFCURVE",
"482 315 OFFCURVE",
"361 305 CURVE SMOOTH",
"332 302 OFFCURVE",
"298 303 OFFCURVE",
"262 313 CURVE",
"281 347 OFFCURVE",
"315 374 OFFCURVE",
"357 374 CURVE SMOOTH",
"426 374 OFFCURVE",
"510 435 OFFCURVE",
"520 520 CURVE",
"531 604 OFFCURVE",
"465 667 OFFCURVE",
"375 667 CURVE SMOOTH",
"338 667 OFFCURVE",
"301 665 OFFCURVE",
"265 661 CURVE",
"184 0 LINE",
"89 2 LINE",
"177 720 LINE",
"254 735 OFFCURVE",
"311 740 OFFCURVE",
"384 740 CURVE",
"545 740 OFFCURVE",
"636 641 OFFCURVE",
"621 520 CURVE SMOOTH {name = hr00;}"
);
}
);
width = 609;
},
{
hints = (
{
horizontal = 1;
origin = "{0, 19}";
target = up;
type = BottomGhost;
},
{
horizontal = 1;
origin = "{0, 14}";
target = "{0, 23}";
type = Stem;
},
{
origin = "{0, 19}";
target = "{0, 18}";
type = Stem;
},
{
origin = "{0, 11}";
target = "{0, 26}";
type = Stem;
}
);
layerId = "58254875-FB9E-4C1D-8B15-704836B9A7CF";
paths = (
{
closed = 1;
nodes = (
"597 380 OFFCURVE",
"484 300 OFFCURVE",
"365 289 CURVE SMOOTH",
"335 286 OFFCURVE",
"301 287 OFFCURVE",
"264 298 CURVE",
"279 336 OFFCURVE",
"305 385 OFFCURVE",
"350 389 CURVE SMOOTH",
"405 394 OFFCURVE",
"450 448 OFFCURVE",
"450 513 CURVE",
"450 582 OFFCURVE",
"394 638 OFFCURVE",
"311 638 CURVE SMOOTH",
"275 638 OFFCURVE",
"263 636 OFFCURVE",
"227 632 CURVE",
"227 0 LINE",
"83 0 LINE",
"83 718 LINE",
"191 736 OFFCURVE",
"239 741 OFFCURVE",
"311 741 CURVE",
"473 741 OFFCURVE",
"597 654 OFFCURVE",
"597 513 CURVE SMOOTH {name = hr00;}"
);
}
);
width = 643;
},
{
hints = (
{
horizontal = 1;
origin = "{0, 19}";
target = up;
type = BottomGhost;
},
{
horizontal = 1;
origin = "{0, 14}";
target = "{0, 23}";
type = Stem;
}
);
layerId = "5E1C92F4-866D-4CC0-BA00-538F5374015A";
paths = (
{
closed = 1;
nodes = (
"643 380 OFFCURVE",
"520 300 OFFCURVE",
"400 289 CURVE SMOOTH",
"370 286 OFFCURVE",
"336 287 OFFCURVE",
"300 298 CURVE",
"320 336 OFFCURVE",
"352 385 OFFCURVE",
"397 389 CURVE SMOOTH",
"453 394 OFFCURVE",
"505 448 OFFCURVE",
"512 513 CURVE",
"521 582 OFFCURVE",
"472 638 OFFCURVE",
"389 638 CURVE SMOOTH",
"353 638 OFFCURVE",
"341 636 OFFCURVE",
"304 632 CURVE",
"227 0 LINE",
"83 0 LINE",
"171 718 LINE",
"281 736 OFFCURVE",
"329 741 OFFCURVE",
"401 741 CURVE",
"563 741 OFFCURVE",
"677 654 OFFCURVE",
"659 513 CURVE SMOOTH {name = hr00;}"
);
}
);
width = 643;
}
);
unicode = 0050;
},
{
glyphname = Thorn;
lastChange = "2018-08-09 20:24:58 +0000";
layers = (
{
hints = (
{
horizontal = 1;
origin = "{0, 19}";
target = up;
type = BottomGhost;
},
{
horizontal = 1;
origin = "{0, 14}";
target = "{0, 25}";
type = Stem;
},
{
horizontal = 1;
origin = "{0, 20}";
target = down;
type = TopGhost;
},
{
origin = "{0, 19}";
target = "{0, 18}";
type = Stem;
},
{
origin = "{0, 11}";
target = "{0, 28}";
type = Stem;
}
);
layerId = "BAA2CE79-BA31-4701-835E-3D9478C3F4B2";
paths = (
{
closed = 1;
nodes = (
"558 235 OFFCURVE",
"444 158 OFFCURVE",
"324 148 CURVE SMOOTH",
"295 145 OFFCURVE",
"261 146 OFFCURVE",
"224 156 CURVE",
"239 190 OFFCURVE",
"270 217 OFFCURVE",
"312 217 CURVE SMOOTH",
"381 217 OFFCURVE",
"457 278 OFFCURVE",
"457 363 CURVE SMOOTH",
"457 447 OFFCURVE",
"384 510 OFFCURVE",
"294 510 CURVE SMOOTH",
"257 510 OFFCURVE",
"220 508 OFFCURVE",
"184 504 CURVE",
"184 0 LINE",
"92 0 LINE",
"92 727 LINE",
"184 727 LINE",
"184 577 LINE",
"219 581 OFFCURVE",
"254 583 OFFCURVE",
"294 583 CURVE SMOOTH",
"455 583 OFFCURVE",
"558 484 OFFCURVE",
"558 363 CURVE SMOOTH {name = hr00;}"
);
}
);
width = 609;
},
{
hints = (
{
horizontal = 1;
origin = "{0, 19}";
target = up;
type = BottomGhost;
},
{
horizontal = 1;
origin = "{0, 14}";
target = "{0, 25}";
type = Stem;
},
{
horizontal = 1;
origin = "{0, 20}";
target = down;
type = TopGhost;
}
);
layerId = "3BBF7C5C-CA4C-45AB-AE18-0528A0ACCA90";
paths = (
{
closed = 1;
nodes = (
"586 235 OFFCURVE",
"463 158 OFFCURVE",
"342 148 CURVE SMOOTH",
"312 145 OFFCURVE",
"278 146 OFFCURVE",
"243 156 CURVE",
"262 190 OFFCURVE",
"296 217 OFFCURVE",
"338 217 CURVE SMOOTH",
"407 217 OFFCURVE",
"491 278 OFFCURVE",
"501 363 CURVE SMOOTH",
"511 447 OFFCURVE",
"446 510 OFFCURVE",
"356 510 CURVE SMOOTH",
"319 510 OFFCURVE",
"282 508 OFFCURVE",
"245 504 CURVE",
"184 0 LINE",
"92 0 LINE",
"181 727 LINE",
"273 727 LINE",
"254 577 LINE",
"290 581 OFFCURVE",
"325 583 OFFCURVE",
"365 583 CURVE SMOOTH",
"526 583 OFFCURVE",
"617 484 OFFCURVE",
"602 363 CURVE SMOOTH {name = hr00;}"
);
}
);
width = 609;
},
{
hints = (
{
horizontal = 1;
origin = "{0, 19}";
target = up;
type = BottomGhost;
},
{
horizontal = 1;
origin = "{0, 14}";
target = "{0, 25}";
type = Stem;
},
{
horizontal = 1;
origin = "{0, 20}";
target = down;
type = TopGhost;
},
{
origin = "{0, 19}";
target = "{0, 18}";
type = Stem;
},
{
origin = "{0, 11}";
target = "{0, 28}";
type = Stem;
}
);
layerId = "58254875-FB9E-4C1D-8B15-704836B9A7CF";
paths = (
{
closed = 1;
nodes = (
"577 226 OFFCURVE",
"464 146 OFFCURVE",
"345 135 CURVE SMOOTH",
"315 132 OFFCURVE",
"281 133 OFFCURVE",
"244 144 CURVE",
"259 182 OFFCURVE",
"285 231 OFFCURVE",
"330 235 CURVE SMOOTH",
"385 240 OFFCURVE",
"430 294 OFFCURVE",
"430 364 CURVE SMOOTH",
"430 438 OFFCURVE",
"374 494 OFFCURVE",
"291 494 CURVE SMOOTH",
"255 494 OFFCURVE",
"243 492 OFFCURVE",
"207 488 CURVE",
"207 0 LINE",
"71 0 LINE",
"71 727 LINE",
"207 727 LINE",
"207 594 LINE",
"235 596 OFFCURVE",
"261 597 OFFCURVE",
"291 597 CURVE SMOOTH",
"453 597 OFFCURVE",
"577 511 OFFCURVE",
"577 364 CURVE SMOOTH {name = hr00;}"
);
}
);
width = 609;
},
{
hints = (
{
horizontal = 1;
origin = "{0, 19}";
target = up;
type = BottomGhost;
},
{
horizontal = 1;
origin = "{0, 14}";
target = "{0, 25}";
type = Stem;
},
{
horizontal = 1;
origin = "{0, 20}";
target = down;
type = TopGhost;
}
);
layerId = "5E1C92F4-866D-4CC0-BA00-538F5374015A";
paths = (
{
closed = 1;
nodes = (
"604 226 OFFCURVE",
"481 146 OFFCURVE",
"361 135 CURVE SMOOTH",
"331 132 OFFCURVE",
"297 133 OFFCURVE",
"261 144 CURVE",
"281 182 OFFCURVE",
"313 231 OFFCURVE",
"358 235 CURVE SMOOTH",
"414 240 OFFCURVE",
"466 294 OFFCURVE",
"474 364 CURVE SMOOTH",
"483 438 OFFCURVE",
"434 494 OFFCURVE",
"351 494 CURVE SMOOTH",
"315 494 OFFCURVE",
"303 492 OFFCURVE",
"266 488 CURVE",
"207 0 LINE",
"71 0 LINE",
"160 727 LINE",
"296 727 LINE",
"279 594 LINE",
"308 596 OFFCURVE",
"334 597 OFFCURVE",
"364 597 CURVE SMOOTH",
"526 597 OFFCURVE",
"639 511 OFFCURVE",
"621 364 CURVE SMOOTH {name = hr00;}"
);
}
);
width = 609;
}
);
unicode = 00DE;
},
{
glyphname = Q;
lastChange = "2018-08-09 20:33:40 +0000";
layers = (
{
hints = (
{
horizontal = 1;
origin = "{0, 26}";
target = "{0, 17}";
type = Stem;
},
{
horizontal = 1;
origin = "{0, 11}";
target = "{0, 32}";
type = Stem;
},
{
origin = "{0, 29}";
target = "{0, 14}";
type = Stem;
},
{
origin = "{0, 8}";
target = "{0, 35}";
type = Stem;
}
);
layerId = "BAA2CE79-BA31-4701-835E-3D9478C3F4B2";
paths = (
{
closed = 1;
nodes = (
"441 -14 OFFCURVE",
"493 3 OFFCURVE",
"548 43 CURVE",
"526 67 OFFCURVE",
"481 76 OFFCURVE",
"446 67 CURVE SMOOTH",
"426 62 OFFCURVE",
"411 59 OFFCURVE",
"387 59 CURVE",
"256 59 OFFCURVE",
"154 178 OFFCURVE",
"154 364 CURVE SMOOTH",
"154 552 OFFCURVE",
"262 669 OFFCURVE",
"390 669 CURVE SMOOTH",
"519 669 OFFCURVE",
"624 552 OFFCURVE",
"624 364 CURVE",
"624 306 OFFCURVE",
"615 246 OFFCURVE",
"586 192 CURVE",
"579 168 LINE",
"566 187 LINE",
"466 291 LINE",
"412 238 LINE",
"659 -13 LINE",
"713 39 LINE {name = hr00;}",
"637 116 LINE",
"699 204 OFFCURVE",
"726 273 OFFCURVE",
"726 364 CURVE",
"726 599 OFFCURVE",
"579 742 OFFCURVE",
"390 742 CURVE SMOOTH",
"210 742 OFFCURVE",
"53 595 OFFCURVE",
"53 364 CURVE SMOOTH",
"53 134 OFFCURVE",
"197 -14 OFFCURVE",
"387 -14 CURVE"
);
}
);
width = 788;
},
{
hints = (
{
horizontal = 1;
origin = "{0, 26}";
target = "{0, 17}";
type = Stem;
},
{
horizontal = 1;
origin = "{0, 11}";
target = "{0, 32}";
type = Stem;
}
);
layerId = "3BBF7C5C-CA4C-45AB-AE18-0528A0ACCA90";
paths = (
{
closed = 1;
nodes = (
"439 -14 OFFCURVE",
"493 3 OFFCURVE",
"553 43 CURVE",
"534 67 OFFCURVE",
"490 76 OFFCURVE",
"454 67 CURVE SMOOTH",
"433 62 OFFCURVE",
"418 59 OFFCURVE",
"394 59 CURVE",
"263 59 OFFCURVE",
"175 178 OFFCURVE",
"198 364 CURVE SMOOTH",
"221 552 OFFCURVE",
"344 669 OFFCURVE",
"472 669 CURVE SMOOTH",
"601 669 OFFCURVE",
"691 552 OFFCURVE",
"668 364 CURVE",
"661 306 OFFCURVE",
"645 246 OFFCURVE",
"609 192 CURVE",
"599 168 LINE",
"588 187 LINE",
"501 291 LINE",
"441 238 LINE",
"657 -13 LINE",
"717 39 LINE {name = hr00;}",
"651 116 LINE",
"724 204 OFFCURVE",
"759 273 OFFCURVE",
"770 364 CURVE",
"799 599 OFFCURVE",
"670 742 OFFCURVE",
"481 742 CURVE SMOOTH",
"301 742 OFFCURVE",
"126 595 OFFCURVE",
"97 364 CURVE SMOOTH",
"69 134 OFFCURVE",
"195 -14 OFFCURVE",
"385 -14 CURVE"
);
}
);
width = 788;
},
{
hints = (
{
horizontal = 1;
origin = "{0, 13}";
target = up;
type = BottomGhost;
},
{
horizontal = 1;
origin = "{0, 24}";
target = "{0, 5}";
type = Stem;
},
{
origin = "{0, 2}";
target = "{0, 27}";
type = Stem;
},
{
origin = "{0, 21}";
target = "{0, 8}";
type = Stem;
},
{
horizontal = 1;
origin = "{0, 39}";
target = "{0, 30}";
type = Stem;
}
);
layerId = "58254875-FB9E-4C1D-8B15-704836B9A7CF";
paths = (
{
closed = 1;
nodes = (
"737 50 LINE",
"675 114 LINE",
"729 183 OFFCURVE",
"766 273 OFFCURVE",
"766 364 CURVE SMOOTH",
"766 584 OFFCURVE",
"630 742 OFFCURVE",
"405 742 CURVE",
"184 742 OFFCURVE",
"43 582 OFFCURVE",
"43 364 CURVE",
"43 143 OFFCURVE",
"179 -14 OFFCURVE",
"394 -14 CURVE",
"440 -14 OFFCURVE",
"492 2 OFFCURVE",
"540 34 CURVE",
"519 58 OFFCURVE",
"479 91 OFFCURVE",
"435 91 CURVE SMOOTH",
"423 91 OFFCURVE",
"403 89 OFFCURVE",
"394 89 CURVE {name = hr02;}",
"267 89 OFFCURVE",
"195 226 OFFCURVE",
"195 364 CURVE",
"195 512 OFFCURVE",
"267 639 OFFCURVE",
"405 639 CURVE",
"543 639 OFFCURVE",
"615 512 OFFCURVE",
"615 364 CURVE SMOOTH",
"615 319 OFFCURVE",
"607 268 OFFCURVE",
"589 226 CURVE",
"583 200 LINE",
"570 221 LINE",
"490 303 LINE",
"414 226 LINE",
"661 -26 LINE {name = hr01;}"
);
}
);
width = 781;
},
{
hints = (
{
horizontal = 1;
origin = "{0, 13}";
target = up;
type = BottomGhost;
},
{
horizontal = 1;
origin = "{0, 24}";
target = "{0, 5}";
type = Stem;
},
{
horizontal = 1;
origin = "{0, 39}";
target = "{0, 30}";
type = Stem;
}
);
layerId = "5E1C92F4-866D-4CC0-BA00-538F5374015A";
paths = (
{
closed = 1;
nodes = (
"743 50 LINE",
"688 114 LINE",
"751 183 OFFCURVE",
"799 273 OFFCURVE",
"810 364 CURVE SMOOTH",
"837 584 OFFCURVE",
"721 742 OFFCURVE",
"496 742 CURVE",
"275 742 OFFCURVE",
"114 582 OFFCURVE",
"87 364 CURVE",
"60 143 OFFCURVE",
"177 -14 OFFCURVE",
"392 -14 CURVE",
"438 -14 OFFCURVE",
"492 2 OFFCURVE",
"544 34 CURVE",
"526 58 OFFCURVE",
"490 91 OFFCURVE",
"446 91 CURVE SMOOTH",
"434 91 OFFCURVE",
"413 89 OFFCURVE",
"404 89 CURVE {name = hr02;}",
"277 89 OFFCURVE",
"222 226 OFFCURVE",
"239 364 CURVE",
"257 512 OFFCURVE",
"345 639 OFFCURVE",
"483 639 CURVE",
"621 639 OFFCURVE",
"677 512 OFFCURVE",
"659 364 CURVE SMOOTH",
"654 319 OFFCURVE",
"639 268 OFFCURVE",
"616 226 CURVE",
"607 200 LINE",
"597 221 LINE",
"527 303 LINE",
"441 226 LINE",
"657 -26 LINE {name = hr01;}"
);
}
);
width = 781;
}
);
unicode = 0051;
userData = {
com.typemytype.robofont.guides = (
{
angle = 0;
isGlobal = 0;
magnetic = 5;
x = 0;
y = 204;
}
);
};
},
{
glyphname = R;
lastChange = "2018-08-09 20:33:40 +0000";
layers = (
{
hints = (
{
horizontal = 1;
origin = "{0, 31}";
target = up;
type = BottomGhost;
},
{
horizontal = 1;
origin = "{0, 26}";
target = "{0, 35}";
type = Stem;
},
{
origin = "{0, 31}";
target = "{0, 30}";
type = Stem;
},
{
origin = "{0, 23}";
target = "{0, 39}";
type = Stem;
}
);
layerId = "BAA2CE79-BA31-4701-835E-3D9478C3F4B2";
paths = (
{
closed = 1;
nodes = (
"184 0 LINE",
"184 659 LINE",
"232 668 OFFCURVE",
"257 668 OFFCURVE",
"294 668 CURVE SMOOTH",
"384 668 OFFCURVE",
"457 606 OFFCURVE",
"457 527 CURVE SMOOTH",
"457 445 OFFCURVE",
"381 386 OFFCURVE",
"312 384 CURVE SMOOTH",
"270 383 OFFCURVE",
"239 357 OFFCURVE",
"224 323 CURVE",
"261 314 OFFCURVE",
"295 312 OFFCURVE",
"324 315 CURVE SMOOTH",
"327 315 OFFCURVE",
"330 315 OFFCURVE",
"333 316 CURVE",
"438 276 OFFCURVE",
"433 115 OFFCURVE",
"486 0 CURVE",
"586 0 LINE",
"525 135 OFFCURVE",
"533 266 OFFCURVE",
"435 332 CURVE",
"415 340 LINE",
"439 348 LINE",
"508 383 OFFCURVE",
"558 445 OFFCURVE",
"558 525 CURVE {name = hr00;}",
"558 527 LINE",
"558 643 OFFCURVE",
"455 741 OFFCURVE",
"294 741 CURVE SMOOTH",
"221 741 OFFCURVE",
"164 733 OFFCURVE",
"89 718 CURVE",
"89 0 LINE"
);
}
);
width = 648;
},
{
hints = (
{
horizontal = 1;
origin = "{0, 31}";
target = up;
type = BottomGhost;
},
{
horizontal = 1;
origin = "{0, 26}";
target = "{0, 35}";
type = Stem;
}
);
layerId = "3BBF7C5C-CA4C-45AB-AE18-0528A0ACCA90";
paths = (
{
closed = 1;
nodes = (
"184 0 LINE",
"264 659 LINE",
"314 668 OFFCURVE",
"339 668 OFFCURVE",
"376 668 CURVE SMOOTH",
"466 668 OFFCURVE",
"531 606 OFFCURVE",
"521 527 CURVE SMOOTH",
"511 445 OFFCURVE",
"428 386 OFFCURVE",
"359 384 CURVE SMOOTH",
"317 383 OFFCURVE",
"282 357 OFFCURVE",
"263 323 CURVE",
"299 314 OFFCURVE",
"333 312 OFFCURVE",
"362 315 CURVE SMOOTH",
"365 315 OFFCURVE",
"368 315 OFFCURVE",
"371 316 CURVE",
"471 276 OFFCURVE",
"447 115 OFFCURVE",
"486 0 CURVE",
"586 0 LINE",
"541 135 OFFCURVE",
"565 266 OFFCURVE",
"475 332 CURVE",
"456 340 LINE",
"481 348 LINE",
"555 383 OFFCURVE",
"612 445 OFFCURVE",
"622 525 CURVE {name = hr00;}",
"622 527 LINE",
"636 643 OFFCURVE",
"545 741 OFFCURVE",
"384 741 CURVE SMOOTH",
"311 741 OFFCURVE",
"254 733 OFFCURVE",
"177 718 CURVE",
"89 0 LINE"
);
}
);
width = 648;
},
{
hints = (
{
horizontal = 1;
origin = "{0, 30}";
target = up;
type = BottomGhost;
},
{
horizontal = 1;
origin = "{0, 25}";
target = "{0, 34}";
type = Stem;
},
{
origin = "{0, 30}";
target = "{0, 29}";
type = Stem;
},
{
origin = "{0, 22}";
target = "{0, 37}";
type = Stem;
}
);
layerId = "58254875-FB9E-4C1D-8B15-704836B9A7CF";
paths = (
{
closed = 1;
nodes = (
"227 0 LINE",
"227 632 LINE",
"263 636 OFFCURVE",
"275 638 OFFCURVE",
"311 638 CURVE SMOOTH",
"389 638 OFFCURVE",
"450 587 OFFCURVE",
"450 518 CURVE SMOOTH",
"450 453 OFFCURVE",
"405 405 OFFCURVE",
"350 400 CURVE SMOOTH",
"305 396 OFFCURVE",
"279 346 OFFCURVE",
"264 308 CURVE",
"298 298 OFFCURVE",
"330 297 OFFCURVE",
"358 299 CURVE",
"433 241 OFFCURVE",
"434 102 OFFCURVE",
"481 0 CURVE",
"628 0 LINE",
"569 128 OFFCURVE",
"573 252 OFFCURVE",
"492 321 CURVE SMOOTH",
"487 325 OFFCURVE",
"475 329 OFFCURVE",
"470 332 CURVE",
"498 343 LINE",
"557 379 OFFCURVE",
"597 439 OFFCURVE",
"597 518 CURVE SMOOTH {name = hr00;}",
"597 659 OFFCURVE",
"468 741 OFFCURVE",
"311 741 CURVE SMOOTH",
"239 741 OFFCURVE",
"191 736 OFFCURVE",
"83 718 CURVE",
"83 0 LINE"
);
}
);
width = 684;
},
{
hints = (
{
horizontal = 1;
origin = "{0, 30}";
target = up;
type = BottomGhost;
},
{
horizontal = 1;
origin = "{0, 25}";
target = "{0, 34}";
type = Stem;
}
);
layerId = "5E1C92F4-866D-4CC0-BA00-538F5374015A";
paths = (
{
closed = 1;
nodes = (
"227 0 LINE",
"304 632 LINE",
"341 636 OFFCURVE",
"353 638 OFFCURVE",
"389 638 CURVE SMOOTH",
"467 638 OFFCURVE",
"522 587 OFFCURVE",
"513 518 CURVE SMOOTH",
"505 453 OFFCURVE",
"454 405 OFFCURVE",
"399 400 CURVE SMOOTH",
"353 396 OFFCURVE",
"321 346 OFFCURVE",
"301 308 CURVE",
"334 298 OFFCURVE",
"366 297 OFFCURVE",
"394 299 CURVE",
"462 241 OFFCURVE",
"446 102 OFFCURVE",
"481 0 CURVE",
"628 0 LINE",
"584 128 OFFCURVE",
"603 252 OFFCURVE",
"531 321 CURVE SMOOTH",
"526 325 OFFCURVE",
"515 329 OFFCURVE",
"510 332 CURVE",
"540 343 LINE",
"603 379 OFFCURVE",
"650 439 OFFCURVE",
"660 518 CURVE SMOOTH {name = hr00;}",
"677 659 OFFCURVE",
"558 741 OFFCURVE",
"401 741 CURVE SMOOTH",
"329 741 OFFCURVE",
"281 736 OFFCURVE",
"171 718 CURVE",
"83 0 LINE"
);
}
);
width = 684;
}
);
unicode = 0052;
},
{
glyphname = S;
lastChange = "2018-08-09 20:24:58 +0000";
layers = (
{
hints = (
{
horizontal = 1;
origin = "{0, 8}";
target = "{0, 15}";
type = Stem;
},
{
horizontal = 1;
origin = "{0, 31}";
target = "{0, 24}";
type = Stem;
},
{
origin = "{0, 21}";
target = "{0, 2}";
type = Stem;
},
{
origin = "{0, 18}";
target = "{0, 5}";
type = Stem;
}
);
layerId = "BAA2CE79-BA31-4701-835E-3D9478C3F4B2";
paths = (
{
closed = 1;
nodes = (
"206 667 OFFCURVE",
"165 617 OFFCURVE",
"165 559 CURVE SMOOTH",
"165 402 OFFCURVE",
"504 408 OFFCURVE",
"504 181 CURVE SMOOTH",
"504 82 OFFCURVE",
"419 -12 OFFCURVE",
"267 -12 CURVE",
"210 -12 OFFCURVE",
"127 0 OFFCURVE",
"59 33 CURVE",
"85 98 LINE",
"145 71 OFFCURVE",
"210 60 OFFCURVE",
"256 60 CURVE",
"350 60 OFFCURVE",
"405 114 OFFCURVE",
"405 183 CURVE SMOOTH",
"405 354 OFFCURVE",
"69 333 OFFCURVE",
"69 559 CURVE SMOOTH",
"69 659 OFFCURVE",
"151 740 OFFCURVE",
"271 740 CURVE",
"328 740 OFFCURVE",
"384 731 OFFCURVE",
"452 710 CURVE",
"425 645 LINE",
"368 662 OFFCURVE",
"318 667 OFFCURVE",
"281 667 CURVE {name = hr00;}"
);
}
);
width = 554;
},
{
hints = (
{
horizontal = 1;
origin = "{0, 8}";
target = "{0, 15}";
type = Stem;
},
{
horizontal = 1;
origin = "{0, 31}";
target = "{0, 24}";
type = Stem;
}
);
layerId = "3BBF7C5C-CA4C-45AB-AE18-0528A0ACCA90";
paths = (
{
closed = 1;
nodes = (
"287 667 OFFCURVE",
"240 617 OFFCURVE",
"233 559 CURVE SMOOTH",
"214 402 OFFCURVE",
"554 408 OFFCURVE",
"526 181 CURVE SMOOTH",
"514 82 OFFCURVE",
"417 -12 OFFCURVE",
"265 -12 CURVE",
"208 -12 OFFCURVE",
"127 0 OFFCURVE",
"63 33 CURVE",
"97 98 LINE",
"153 71 OFFCURVE",
"217 60 OFFCURVE",
"263 60 CURVE",
"357 60 OFFCURVE",
"418 114 OFFCURVE",
"427 183 CURVE SMOOTH",
"448 354 OFFCURVE",
"109 333 OFFCURVE",
"137 559 CURVE SMOOTH",
"149 659 OFFCURVE",
"241 740 OFFCURVE",
"361 740 CURVE",
"418 740 OFFCURVE",
"473 731 OFFCURVE",
"539 710 CURVE",
"504 645 LINE",
"449 662 OFFCURVE",
"399 667 OFFCURVE",
"362 667 CURVE {name = hr00;}"
);
}
);
width = 554;
},
{
hints = (
{
horizontal = 1;
origin = "{0, 8}";
target = "{0, 15}";
type = Stem;
},
{
horizontal = 1;
origin = "{0, 31}";
target = "{0, 24}";
type = Stem;
},
{
origin = "{0, 21}";
target = "{0, 2}";
type = Stem;
},
{
origin = "{0, 18}";
target = "{0, 5}";
type = Stem;
}
);
layerId = "58254875-FB9E-4C1D-8B15-704836B9A7CF";
paths = (
{
closed = 1;
nodes = (
"229 640 OFFCURVE",
"190 607 OFFCURVE",
"190 562 CURVE SMOOTH",
"190 426 OFFCURVE",
"531 420 OFFCURVE",
"531 188 CURVE SMOOTH",
"531 59 OFFCURVE",
"428 -13 OFFCURVE",
"276 -13 CURVE",
"219 -13 OFFCURVE",
"142 0 OFFCURVE",
"51 42 CURVE",
"89 135 LINE",
"161 101 OFFCURVE",
"225 90 OFFCURVE",
"276 90 CURVE",
"347 90 OFFCURVE",
"399 133 OFFCURVE",
"399 185 CURVE SMOOTH",
"399 330 OFFCURVE",
"60 332 OFFCURVE",
"60 550 CURVE SMOOTH",
"60 681 OFFCURVE",
"161 740 OFFCURVE",
"280 740 CURVE",
"341 740 OFFCURVE",
"392 734 OFFCURVE",
"476 707 CURVE",
"439 616 LINE",
"380 633 OFFCURVE",
"333 640 OFFCURVE",
"289 640 CURVE {name = hr00;}"
);
}
);
width = 577;
},
{
hints = (
{
horizontal = 1;
origin = "{0, 8}";
target = "{0, 15}";
type = Stem;
},
{
horizontal = 1;
origin = "{0, 31}";
target = "{0, 24}";
type = Stem;
}
);
layerId = "5E1C92F4-866D-4CC0-BA00-538F5374015A";
paths = (
{
closed = 1;
nodes = (
"307 640 OFFCURVE",
"264 607 OFFCURVE",
"259 562 CURVE SMOOTH",
"242 426 OFFCURVE",
"582 420 OFFCURVE",
"554 188 CURVE SMOOTH",
"538 59 OFFCURVE",
"426 -13 OFFCURVE",
"274 -13 CURVE",
"217 -13 OFFCURVE",
"142 0 OFFCURVE",
"56 42 CURVE",
"105 135 LINE",
"173 101 OFFCURVE",
"236 90 OFFCURVE",
"287 90 CURVE",
"358 90 OFFCURVE",
"415 133 OFFCURVE",
"421 185 CURVE SMOOTH",
"439 330 OFFCURVE",
"100 332 OFFCURVE",
"127 550 CURVE SMOOTH",
"143 681 OFFCURVE",
"251 740 OFFCURVE",
"370 740 CURVE",
"431 740 OFFCURVE",
"482 734 OFFCURVE",
"562 707 CURVE",
"514 616 LINE",
"457 633 OFFCURVE",
"411 640 OFFCURVE",
"367 640 CURVE {name = hr00;}"
);
}
);
width = 577;
}
);
unicode = 0053;
},
{
glyphname = Scaron;
lastChange = "2018-08-09 20:24:58 +0000";
layers = (
{
hints = (
{
horizontal = 1;
origin = "{0, 8}";
target = "{0, 15}";
type = Stem;
},
{
horizontal = 1;
origin = "{0, 31}";
target = "{0, 24}";
type = Stem;
},
{
horizontal = 1;
origin = "{1, 1}";
target = up;
type = BottomGhost;
},
{
origin = "{0, 21}";
target = "{0, 2}";
type = Stem;
},
{
origin = "{0, 18}";
target = "{0, 5}";
type = Stem;
}
);
layerId = "BAA2CE79-BA31-4701-835E-3D9478C3F4B2";
paths = (
{
closed = 1;
nodes = (
"206 667 OFFCURVE",
"165 617 OFFCURVE",
"165 559 CURVE SMOOTH",
"165 402 OFFCURVE",
"504 408 OFFCURVE",
"504 181 CURVE SMOOTH",
"504 82 OFFCURVE",
"419 -12 OFFCURVE",
"267 -12 CURVE",
"210 -12 OFFCURVE",
"127 0 OFFCURVE",
"59 33 CURVE",
"85 98 LINE",
"145 71 OFFCURVE",
"210 60 OFFCURVE",
"256 60 CURVE",
"350 60 OFFCURVE",
"405 114 OFFCURVE",
"405 183 CURVE SMOOTH",
"405 354 OFFCURVE",
"69 333 OFFCURVE",
"69 559 CURVE SMOOTH",
"69 659 OFFCURVE",
"151 740 OFFCURVE",
"271 740 CURVE",
"328 740 OFFCURVE",
"384 731 OFFCURVE",
"452 710 CURVE",
"425 645 LINE",
"368 662 OFFCURVE",
"318 667 OFFCURVE",
"281 667 CURVE {name = hr00;}"
);
},
{
closed = 1;
nodes = (
"143 881 LINE",
"192 890 LINE",
"280 830 LINE",
"368 889 LINE",
"420 881 LINE",
"309 761 LINE",
"252 761 LINE"
);
}
);
width = 554;
},
{
hints = (
{
horizontal = 1;
origin = "{0, 8}";
target = "{0, 15}";
type = Stem;
},
{
horizontal = 1;
origin = "{0, 31}";
target = "{0, 24}";
type = Stem;
},
{
horizontal = 1;
origin = "{1, 1}";
target = up;
type = BottomGhost;
}
);
layerId = "3BBF7C5C-CA4C-45AB-AE18-0528A0ACCA90";
paths = (
{
closed = 1;
nodes = (
"287 667 OFFCURVE",
"240 617 OFFCURVE",
"233 559 CURVE SMOOTH",
"214 402 OFFCURVE",
"554 408 OFFCURVE",
"526 181 CURVE SMOOTH",
"514 82 OFFCURVE",
"417 -12 OFFCURVE",
"265 -12 CURVE",
"208 -12 OFFCURVE",
"127 0 OFFCURVE",
"63 33 CURVE",
"97 98 LINE",
"153 71 OFFCURVE",
"217 60 OFFCURVE",
"263 60 CURVE",
"357 60 OFFCURVE",
"418 114 OFFCURVE",
"427 183 CURVE SMOOTH",
"448 354 OFFCURVE",
"109 333 OFFCURVE",
"137 559 CURVE SMOOTH",
"149 659 OFFCURVE",
"241 740 OFFCURVE",
"361 740 CURVE",
"418 740 OFFCURVE",
"473 731 OFFCURVE",
"539 710 CURVE",
"504 645 LINE",
"449 662 OFFCURVE",
"399 667 OFFCURVE",
"362 667 CURVE {name = hr00;}"
);
},
{
closed = 1;
nodes = (
"251 881 LINE",
"301 890 LINE",
"381 830 LINE",
"477 889 LINE",
"528 881 LINE",
"402 761 LINE",
"345 761 LINE"
);
}
);
width = 554;
},
{
hints = (
{
horizontal = 1;
origin = "{0, 8}";
target = "{0, 15}";
type = Stem;
},
{
horizontal = 1;
origin = "{0, 24}";
target = down;
type = TopGhost;
},
{
horizontal = 1;
origin = "{1, 1}";
target = up;
type = BottomGhost;
},
{
origin = "{0, 21}";
target = "{0, 2}";
type = Stem;
},
{
origin = "{0, 18}";
target = "{0, 5}";
type = Stem;
}
);
layerId = "58254875-FB9E-4C1D-8B15-704836B9A7CF";
paths = (
{
closed = 1;
nodes = (
"221 640 OFFCURVE",
"182 607 OFFCURVE",
"182 562 CURVE SMOOTH",
"182 426 OFFCURVE",
"523 420 OFFCURVE",
"523 188 CURVE SMOOTH",
"523 59 OFFCURVE",
"420 -13 OFFCURVE",
"268 -13 CURVE",
"211 -13 OFFCURVE",
"134 0 OFFCURVE",
"43 42 CURVE",
"81 135 LINE",
"153 101 OFFCURVE",
"217 90 OFFCURVE",
"268 90 CURVE",
"339 90 OFFCURVE",
"391 133 OFFCURVE",
"391 185 CURVE SMOOTH",
"391 330 OFFCURVE",
"52 332 OFFCURVE",
"52 550 CURVE SMOOTH",
"52 681 OFFCURVE",
"153 740 OFFCURVE",
"272 740 CURVE",
"333 740 OFFCURVE",
"384 734 OFFCURVE",
"468 707 CURVE",
"431 616 LINE",
"372 633 OFFCURVE",
"325 640 OFFCURVE",
"281 640 CURVE"
);
},
{
closed = 1;
nodes = (
"124 877 LINE",
"204 895 LINE",
"280 839 LINE",
"358 895 LINE",
"439 877 LINE",
"332 761 LINE",
"229 761 LINE {name = hr01;}"
);
}
);
width = 554;
},
{
hints = (
{
horizontal = 1;
origin = "{0, 8}";
target = "{0, 15}";
type = Stem;
},
{
horizontal = 1;
origin = "{0, 24}";
target = down;
type = TopGhost;
},
{
horizontal = 1;
origin = "{1, 1}";
target = up;
type = BottomGhost;
}
);
layerId = "5E1C92F4-866D-4CC0-BA00-538F5374015A";
paths = (
{
closed = 1;
nodes = (
"299 640 OFFCURVE",
"256 607 OFFCURVE",
"251 562 CURVE SMOOTH",
"234 426 OFFCURVE",
"574 420 OFFCURVE",
"546 188 CURVE SMOOTH",
"530 59 OFFCURVE",
"418 -13 OFFCURVE",
"266 -13 CURVE",
"209 -13 OFFCURVE",
"134 0 OFFCURVE",
"48 42 CURVE",
"97 135 LINE",
"165 101 OFFCURVE",
"228 90 OFFCURVE",
"279 90 CURVE",
"350 90 OFFCURVE",
"407 133 OFFCURVE",
"413 185 CURVE SMOOTH",
"431 330 OFFCURVE",
"92 332 OFFCURVE",
"119 550 CURVE SMOOTH",
"135 681 OFFCURVE",
"243 740 OFFCURVE",
"362 740 CURVE",
"423 740 OFFCURVE",
"474 734 OFFCURVE",
"554 707 CURVE",
"506 616 LINE",
"449 633 OFFCURVE",
"403 640 OFFCURVE",
"359 640 CURVE"
);
},
{
closed = 1;
nodes = (
"231 877 LINE",
"313 895 LINE",
"383 839 LINE",
"467 895 LINE",
"546 877 LINE",
"425 761 LINE",
"322 761 LINE {name = hr01;}"
);
}
);
width = 554;
}
);
unicode = 0160;
},
{
glyphname = T;
lastChange = "2018-08-09 20:24:58 +0000";
layers = (
{
hints = (
{
horizontal = 1;
origin = "{0, 5}";
target = up;
type = BottomGhost;
},
{
horizontal = 1;
origin = "{0, 7}";
target = "{0, 0}";
type = Stem;
},
{
origin = "{0, 5}";
target = "{0, 4}";
type = Stem;
}
);
layerId = "BAA2CE79-BA31-4701-835E-3D9478C3F4B2";
paths = (
{
closed = 1;
nodes = (
"10 727 LINE",
"531 727 LINE",
"531 655 LINE",
"318 655 LINE",
"318 0 LINE",
"222 0 LINE",
"222 655 LINE",
"10 655 LINE {name = hr00;}"
);
}
);
width = 544;
},
{
hints = (
{
horizontal = 1;
origin = "{0, 5}";
target = up;
type = BottomGhost;
},
{
horizontal = 1;
origin = "{0, 7}";
target = "{0, 0}";
type = Stem;
}
);
layerId = "3BBF7C5C-CA4C-45AB-AE18-0528A0ACCA90";
paths = (
{
closed = 1;
nodes = (
"99 727 LINE",
"620 727 LINE",
"611 655 LINE",
"398 655 LINE",
"318 0 LINE",
"222 0 LINE",
"302 655 LINE",
"90 655 LINE {name = hr00;}"
);
}
);
width = 544;
},
{
hints = (
{
horizontal = 1;
origin = "{0, 5}";
target = up;
type = BottomGhost;
},
{
horizontal = 1;
origin = "{0, 7}";
target = "{0, 0}";
type = Stem;
},
{
origin = "{0, 5}";
target = "{0, 4}";
type = Stem;
}
);
layerId = "58254875-FB9E-4C1D-8B15-704836B9A7CF";
paths = (
{
closed = 1;
nodes = (
"5 727 LINE",
"527 727 LINE",
"527 624 LINE",
"337 624 LINE",
"337 0 LINE",
"195 0 LINE",
"195 624 LINE",
"5 624 LINE {name = hr00;}"
);
}
);
width = 534;
},
{
hints = (
{
horizontal = 1;
origin = "{0, 5}";
target = up;
type = BottomGhost;
},
{
horizontal = 1;
origin = "{0, 7}";
target = "{0, 0}";
type = Stem;
}
);
layerId = "5E1C92F4-866D-4CC0-BA00-538F5374015A";
paths = (
{
closed = 1;
nodes = (
"94 727 LINE",
"616 727 LINE",
"603 624 LINE",
"413 624 LINE",
"337 0 LINE",
"195 0 LINE",
"271 624 LINE",
"81 624 LINE {name = hr00;}"
);
}
);
width = 534;
}
);
unicode = 0054;
},
{
glyphname = U;
lastChange = "2018-08-09 20:24:58 +0000";
layers = (
{
hints = (
{
horizontal = 1;
origin = "{0, 17}";
target = "{0, 8}";
type = Stem;
},
{
horizontal = 1;
origin = "{0, 3}";
target = down;
type = TopGhost;
},
{
origin = "{0, 2}";
target = "{0, 5}";
type = Stem;
},
{
origin = "{0, 11}";
target = "{0, 14}";
type = Stem;
}
);
layerId = "BAA2CE79-BA31-4701-835E-3D9478C3F4B2";
paths = (
{
closed = 1;
nodes = (
"177 -14 OFFCURVE",
"78 99 OFFCURVE",
"78 268 CURVE SMOOTH",
"78 727 LINE",
"172 727 LINE",
"172 252 LINE SMOOTH",
"172 134 OFFCURVE",
"241 58 OFFCURVE",
"347 58 CURVE SMOOTH",
"453 58 OFFCURVE",
"522 134 OFFCURVE",
"522 252 CURVE SMOOTH",
"522 727 LINE",
"616 727 LINE",
"616 268 LINE SMOOTH",
"616 99 OFFCURVE",
"506 -14 OFFCURVE",
"347 -14 CURVE SMOOTH {name = hr00;}"
);
}
);
width = 694;
},
{
hints = (
{
horizontal = 1;
origin = "{0, 17}";
target = "{0, 8}";
type = Stem;
},
{
horizontal = 1;
origin = "{0, 3}";
target = down;
type = TopGhost;
}
);
layerId = "3BBF7C5C-CA4C-45AB-AE18-0528A0ACCA90";
paths = (
{
closed = 1;
nodes = (
"175 -14 OFFCURVE",
"90 99 OFFCURVE",
"110 268 CURVE SMOOTH",
"167 727 LINE",
"261 727 LINE",
"202 252 LINE SMOOTH",
"188 134 OFFCURVE",
"248 58 OFFCURVE",
"354 58 CURVE SMOOTH",
"460 58 OFFCURVE",
"538 134 OFFCURVE",
"552 252 CURVE SMOOTH",
"611 727 LINE",
"705 727 LINE",
"648 268 LINE SMOOTH",
"628 99 OFFCURVE",
"504 -14 OFFCURVE",
"345 -14 CURVE SMOOTH {name = hr00;}"
);
}
);
width = 694;
},
{
hints = (
{
horizontal = 1;
origin = "{0, 17}";
target = "{0, 8}";
type = Stem;
},
{
horizontal = 1;
origin = "{0, 3}";
target = down;
type = TopGhost;
},
{
origin = "{0, 2}";
target = "{0, 5}";
type = Stem;
},
{
origin = "{0, 11}";
target = "{0, 14}";
type = Stem;
}
);
layerId = "58254875-FB9E-4C1D-8B15-704836B9A7CF";
paths = (
{
closed = 1;
nodes = (
"195 -14 OFFCURVE",
"83 89 OFFCURVE",
"83 278 CURVE SMOOTH",
"83 727 LINE",
"224 727 LINE",
"224 263 LINE SMOOTH",
"224 154 OFFCURVE",
"288 89 OFFCURVE",
"374 89 CURVE SMOOTH",
"459 89 OFFCURVE",
"524 154 OFFCURVE",
"524 263 CURVE SMOOTH",
"524 727 LINE",
"664 727 LINE",
"664 278 LINE SMOOTH",
"664 101 OFFCURVE",
"553 -14 OFFCURVE",
"374 -14 CURVE SMOOTH {name = hr00;}"
);
}
);
width = 727;
},
{
hints = (
{
horizontal = 1;
origin = "{0, 17}";
target = "{0, 8}";
type = Stem;
},
{
horizontal = 1;
origin = "{0, 3}";
target = down;
type = TopGhost;
}
);
layerId = "5E1C92F4-866D-4CC0-BA00-538F5374015A";
paths = (
{
closed = 1;
nodes = (
"193 -14 OFFCURVE",
"93 89 OFFCURVE",
"117 278 CURVE SMOOTH",
"172 727 LINE",
"313 727 LINE",
"256 263 LINE SMOOTH",
"242 154 OFFCURVE",
"298 89 OFFCURVE",
"384 89 CURVE SMOOTH",
"469 89 OFFCURVE",
"542 154 OFFCURVE",
"556 263 CURVE SMOOTH",
"613 727 LINE",
"753 727 LINE",
"698 278 LINE SMOOTH",
"676 101 OFFCURVE",
"551 -14 OFFCURVE",
"372 -14 CURVE SMOOTH {name = hr00;}"
);
}
);
width = 727;
}
);
unicode = 0055;
},
{
glyphname = Uacute;
lastChange = "2018-08-09 20:24:58 +0000";
layers = (
{
hints = (
{
horizontal = 1;
origin = "{0, 17}";
target = "{0, 8}";
type = Stem;
},
{
horizontal = 1;
origin = "{0, 3}";
target = down;
type = TopGhost;
},
{
horizontal = 1;
origin = "{1, 3}";
target = up;
type = BottomGhost;
},
{
origin = "{0, 2}";
target = "{0, 5}";
type = Stem;
},
{
origin = "{0, 11}";
target = "{0, 14}";
type = Stem;
}
);
layerId = "BAA2CE79-BA31-4701-835E-3D9478C3F4B2";
paths = (
{
closed = 1;
nodes = (
"177 -14 OFFCURVE",
"78 99 OFFCURVE",
"78 268 CURVE SMOOTH",
"78 727 LINE",
"172 727 LINE",
"172 252 LINE SMOOTH",
"172 134 OFFCURVE",
"241 58 OFFCURVE",
"347 58 CURVE SMOOTH",
"453 58 OFFCURVE",
"522 134 OFFCURVE",
"522 252 CURVE SMOOTH",
"522 727 LINE",
"616 727 LINE",
"616 268 LINE SMOOTH",
"616 99 OFFCURVE",
"506 -14 OFFCURVE",
"347 -14 CURVE SMOOTH {name = hr00;}"
);
},
{
closed = 1;
nodes = (
"376 763 OFFCURVE",
"339 758 OFFCURVE",
"305 766 CURVE",
"394 890 LINE",
"491 890 LINE",
"403 792 LINE"
);
}
);
width = 694;
},
{
hints = (
{
horizontal = 1;
origin = "{0, 17}";
target = "{0, 8}";
type = Stem;
},
{
horizontal = 1;
origin = "{0, 3}";
target = down;
type = TopGhost;
},
{
horizontal = 1;
origin = "{1, 3}";
target = up;
type = BottomGhost;
}
);
layerId = "3BBF7C5C-CA4C-45AB-AE18-0528A0ACCA90";
paths = (
{
closed = 1;
nodes = (
"175 -14 OFFCURVE",
"90 99 OFFCURVE",
"110 268 CURVE SMOOTH",
"167 727 LINE",
"261 727 LINE",
"202 252 LINE SMOOTH",
"188 134 OFFCURVE",
"248 58 OFFCURVE",
"354 58 CURVE SMOOTH",
"460 58 OFFCURVE",
"538 134 OFFCURVE",
"552 252 CURVE SMOOTH",
"611 727 LINE",
"705 727 LINE",
"648 268 LINE SMOOTH",
"628 99 OFFCURVE",
"504 -14 OFFCURVE",
"345 -14 CURVE SMOOTH {name = hr00;}"
);
},
{
closed = 1;
nodes = (
"469 763 OFFCURVE",
"432 758 OFFCURVE",
"399 766 CURVE",
"503 890 LINE",
"600 890 LINE",
"500 792 LINE"
);
}
);
width = 694;
},
{
hints = (
{
horizontal = 1;
origin = "{0, 17}";
target = "{0, 8}";
type = Stem;
},
{
horizontal = 1;
origin = "{0, 3}";
target = down;
type = TopGhost;
},
{
horizontal = 1;
origin = "{1, 3}";
target = up;
type = BottomGhost;
},
{
origin = "{0, 2}";
target = "{0, 5}";
type = Stem;
},
{
origin = "{0, 11}";
target = "{0, 14}";
type = Stem;
}
);
layerId = "58254875-FB9E-4C1D-8B15-704836B9A7CF";
paths = (
{
closed = 1;
nodes = (
"168 -14 OFFCURVE",
"56 89 OFFCURVE",
"56 278 CURVE SMOOTH",
"56 727 LINE",
"197 727 LINE",
"197 263 LINE SMOOTH",
"197 154 OFFCURVE",
"261 89 OFFCURVE",
"347 89 CURVE SMOOTH",
"432 89 OFFCURVE",
"497 154 OFFCURVE",
"497 263 CURVE SMOOTH",
"497 727 LINE",
"637 727 LINE",
"637 278 LINE SMOOTH",
"637 101 OFFCURVE",
"526 -14 OFFCURVE",
"347 -14 CURVE SMOOTH {name = hr00;}"
);
},
{
closed = 1;
nodes = (
"397 763 OFFCURVE",
"324 756 OFFCURVE",
"290 765 CURVE",
"376 890 LINE",
"509 890 LINE",
"437 808 LINE"
);
}
);
width = 694;
},
{
hints = (
{
horizontal = 1;
origin = "{0, 17}";
target = "{0, 8}";
type = Stem;
},
{
horizontal = 1;
origin = "{0, 3}";
target = down;
type = TopGhost;
},
{
horizontal = 1;
origin = "{1, 3}";
target = up;
type = BottomGhost;
}
);
layerId = "5E1C92F4-866D-4CC0-BA00-538F5374015A";
paths = (
{
closed = 1;
nodes = (
"166 -14 OFFCURVE",
"66 89 OFFCURVE",
"90 278 CURVE SMOOTH",
"145 727 LINE",
"286 727 LINE",
"229 263 LINE SMOOTH",
"215 154 OFFCURVE",
"271 89 OFFCURVE",
"357 89 CURVE SMOOTH",
"442 89 OFFCURVE",
"515 154 OFFCURVE",
"529 263 CURVE SMOOTH",
"586 727 LINE",
"726 727 LINE",
"671 278 LINE SMOOTH",
"649 101 OFFCURVE",
"524 -14 OFFCURVE",
"345 -14 CURVE SMOOTH {name = hr00;}"
);
},
{
closed = 1;
nodes = (
"490 763 OFFCURVE",
"416 756 OFFCURVE",
"383 765 CURVE",
"485 890 LINE",
"618 890 LINE",
"536 808 LINE"
);
}
);
width = 694;
}
);
unicode = 00DA;
},
{
glyphname = Ucircumflex;
lastChange = "2018-08-09 20:24:58 +0000";
layers = (
{
hints = (
{
horizontal = 1;
origin = "{0, 17}";
target = "{0, 8}";
type = Stem;
},
{
horizontal = 1;
origin = "{0, 3}";
target = down;
type = TopGhost;
},
{
horizontal = 1;
origin = "{1, 5}";
target = up;
type = BottomGhost;
},
{
origin = "{0, 2}";
target = "{0, 5}";
type = Stem;
},
{
origin = "{0, 11}";
target = "{0, 14}";
type = Stem;
}
);
layerId = "BAA2CE79-BA31-4701-835E-3D9478C3F4B2";
paths = (
{
closed = 1;
nodes = (
"177 -14 OFFCURVE",
"78 99 OFFCURVE",
"78 268 CURVE SMOOTH",
"78 727 LINE",
"172 727 LINE",
"172 252 LINE SMOOTH",
"172 134 OFFCURVE",
"241 58 OFFCURVE",
"347 58 CURVE SMOOTH",
"453 58 OFFCURVE",
"522 134 OFFCURVE",
"522 252 CURVE SMOOTH",
"522 727 LINE",
"616 727 LINE",
"616 268 LINE SMOOTH",
"616 99 OFFCURVE",
"506 -14 OFFCURVE",
"347 -14 CURVE SMOOTH {name = hr00;}"
);
},
{
closed = 1;
nodes = (
"486 770 LINE",
"434 762 LINE",
"346 821 LINE",
"258 761 LINE",
"209 770 LINE",
"318 890 LINE",
"375 890 LINE"
);
}
);
width = 694;
},
{
hints = (
{
horizontal = 1;
origin = "{0, 17}";
target = "{0, 8}";
type = Stem;
},
{
horizontal = 1;
origin = "{0, 3}";
target = down;
type = TopGhost;
},
{
horizontal = 1;
origin = "{1, 5}";
target = up;
type = BottomGhost;
}
);
layerId = "3BBF7C5C-CA4C-45AB-AE18-0528A0ACCA90";
paths = (
{
closed = 1;
nodes = (
"175 -14 OFFCURVE",
"90 99 OFFCURVE",
"110 268 CURVE SMOOTH",
"167 727 LINE",
"261 727 LINE",
"202 252 LINE SMOOTH",
"188 134 OFFCURVE",
"248 58 OFFCURVE",
"354 58 CURVE SMOOTH",
"460 58 OFFCURVE",
"538 134 OFFCURVE",
"552 252 CURVE SMOOTH",
"611 727 LINE",
"705 727 LINE",
"648 268 LINE SMOOTH",
"628 99 OFFCURVE",
"504 -14 OFFCURVE",
"345 -14 CURVE SMOOTH {name = hr00;}"
);
},
{
closed = 1;
nodes = (
"580 770 LINE",
"527 762 LINE",
"446 821 LINE",
"351 761 LINE",
"303 770 LINE",
"427 890 LINE",
"484 890 LINE"
);
}
);
width = 694;
},
{
hints = (
{
horizontal = 1;
origin = "{0, 17}";
target = "{0, 8}";
type = Stem;
},
{
horizontal = 1;
origin = "{0, 3}";
target = down;
type = TopGhost;
},
{
horizontal = 1;
origin = "{1, 5}";
target = up;
type = BottomGhost;
},
{
origin = "{0, 2}";
target = "{0, 5}";
type = Stem;
},
{
origin = "{0, 11}";
target = "{0, 14}";
type = Stem;
}
);
layerId = "58254875-FB9E-4C1D-8B15-704836B9A7CF";
paths = (
{
closed = 1;
nodes = (
"168 -14 OFFCURVE",
"56 89 OFFCURVE",
"56 278 CURVE SMOOTH",
"56 727 LINE",
"197 727 LINE",
"197 263 LINE SMOOTH",
"197 154 OFFCURVE",
"261 89 OFFCURVE",
"347 89 CURVE SMOOTH",
"432 89 OFFCURVE",
"497 154 OFFCURVE",
"497 263 CURVE SMOOTH",
"497 727 LINE",
"637 727 LINE",
"637 278 LINE SMOOTH",
"637 101 OFFCURVE",
"526 -14 OFFCURVE",
"347 -14 CURVE SMOOTH {name = hr00;}"
);
},
{
closed = 1;
nodes = (
"505 774 LINE",
"424 756 LINE",
"346 812 LINE",
"270 756 LINE",
"190 774 LINE",
"295 890 LINE",
"398 890 LINE"
);
}
);
width = 694;
},
{
hints = (
{
horizontal = 1;
origin = "{0, 17}";
target = "{0, 8}";
type = Stem;
},
{
horizontal = 1;
origin = "{0, 3}";
target = down;
type = TopGhost;
},
{
horizontal = 1;
origin = "{1, 5}";
target = up;
type = BottomGhost;
}
);
layerId = "5E1C92F4-866D-4CC0-BA00-538F5374015A";
paths = (
{
closed = 1;
nodes = (
"166 -14 OFFCURVE",
"66 89 OFFCURVE",
"90 278 CURVE SMOOTH",
"145 727 LINE",
"286 727 LINE",
"229 263 LINE SMOOTH",
"215 154 OFFCURVE",
"271 89 OFFCURVE",
"357 89 CURVE SMOOTH",
"442 89 OFFCURVE",
"515 154 OFFCURVE",
"529 263 CURVE SMOOTH",
"586 727 LINE",
"726 727 LINE",
"671 278 LINE SMOOTH",
"649 101 OFFCURVE",
"524 -14 OFFCURVE",
"345 -14 CURVE SMOOTH {name = hr00;}"
);
},
{
closed = 1;
nodes = (
"600 774 LINE",
"516 756 LINE",
"445 812 LINE",
"362 756 LINE",
"285 774 LINE",
"404 890 LINE",
"507 890 LINE"
);
}
);
width = 694;
}
);
unicode = 00DB;
},
{
glyphname = Udieresis;
lastChange = "2018-08-09 20:24:58 +0000";
layers = (
{
hints = (
{
horizontal = 1;
origin = "{0, 17}";
target = "{0, 8}";
type = Stem;
},
{
horizontal = 1;
origin = "{0, 3}";
target = down;
type = TopGhost;
},
{
horizontal = 1;
origin = "{1, 8}";
target = "{1, 2}";
type = Stem;
},
{
origin = "{0, 2}";
target = "{0, 5}";
type = Stem;
},
{
origin = "{1, 11}";
target = "{1, 5}";
type = Stem;
},
{
origin = "{2, 11}";
target = "{2, 5}";
type = Stem;
},
{
origin = "{0, 11}";
target = "{0, 14}";
type = Stem;
}
);
layerId = "BAA2CE79-BA31-4701-835E-3D9478C3F4B2";
paths = (
{
closed = 1;
nodes = (
"177 -14 OFFCURVE",
"78 99 OFFCURVE",
"78 268 CURVE SMOOTH",
"78 727 LINE",
"172 727 LINE",
"172 252 LINE SMOOTH",
"172 134 OFFCURVE",
"241 58 OFFCURVE",
"347 58 CURVE SMOOTH",
"453 58 OFFCURVE",
"522 134 OFFCURVE",
"522 252 CURVE SMOOTH",
"522 727 LINE",
"616 727 LINE",
"616 268 LINE SMOOTH",
"616 99 OFFCURVE",
"506 -14 OFFCURVE",
"347 -14 CURVE SMOOTH {name = hr00;}"
);
},
{
closed = 1;
nodes = (
"198 869 OFFCURVE",
"222 892 OFFCURVE",
"250 892 CURVE SMOOTH",
"279 892 OFFCURVE",
"303 869 OFFCURVE",
"303 840 CURVE SMOOTH",
"303 811 OFFCURVE",
"279 788 OFFCURVE",
"250 788 CURVE SMOOTH",
"222 788 OFFCURVE",
"198 811 OFFCURVE",
"198 840 CURVE SMOOTH"
);
},
{
closed = 1;
nodes = (
"392 869 OFFCURVE",
"416 892 OFFCURVE",
"445 892 CURVE SMOOTH",
"473 892 OFFCURVE",
"497 869 OFFCURVE",
"497 840 CURVE SMOOTH",
"497 811 OFFCURVE",
"473 788 OFFCURVE",
"445 788 CURVE SMOOTH",
"416 788 OFFCURVE",
"392 811 OFFCURVE",
"392 840 CURVE SMOOTH"
);
}
);
width = 694;
},
{
hints = (
{
horizontal = 1;
origin = "{0, 17}";
target = "{0, 8}";
type = Stem;
},
{
horizontal = 1;
origin = "{0, 3}";
target = down;
type = TopGhost;
},
{
horizontal = 1;
origin = "{1, 8}";
target = "{1, 2}";
type = Stem;
}
);
layerId = "3BBF7C5C-CA4C-45AB-AE18-0528A0ACCA90";
paths = (
{
closed = 1;
nodes = (
"175 -14 OFFCURVE",
"90 99 OFFCURVE",
"110 268 CURVE SMOOTH",
"167 727 LINE",
"261 727 LINE",
"202 252 LINE SMOOTH",
"188 134 OFFCURVE",
"248 58 OFFCURVE",
"354 58 CURVE SMOOTH",
"460 58 OFFCURVE",
"538 134 OFFCURVE",
"552 252 CURVE SMOOTH",
"611 727 LINE",
"705 727 LINE",
"648 268 LINE SMOOTH",
"628 99 OFFCURVE",
"504 -14 OFFCURVE",
"345 -14 CURVE SMOOTH {name = hr00;}"
);
},
{
closed = 1;
nodes = (
"304 869 OFFCURVE",
"331 892 OFFCURVE",
"359 892 CURVE SMOOTH",
"388 892 OFFCURVE",
"409 869 OFFCURVE",
"406 840 CURVE SMOOTH",
"402 811 OFFCURVE",
"375 788 OFFCURVE",
"346 788 CURVE SMOOTH",
"318 788 OFFCURVE",
"297 811 OFFCURVE",
"301 840 CURVE SMOOTH"
);
},
{
closed = 1;
nodes = (
"498 869 OFFCURVE",
"525 892 OFFCURVE",
"554 892 CURVE SMOOTH",
"582 892 OFFCURVE",
"603 869 OFFCURVE",
"600 840 CURVE SMOOTH",
"596 811 OFFCURVE",
"569 788 OFFCURVE",
"541 788 CURVE SMOOTH",
"512 788 OFFCURVE",
"491 811 OFFCURVE",
"495 840 CURVE SMOOTH"
);
}
);
width = 694;
},
{
hints = (
{
horizontal = 1;
origin = "{0, 17}";
target = "{0, 8}";
type = Stem;
},
{
horizontal = 1;
origin = "{0, 3}";
target = down;
type = TopGhost;
},
{
horizontal = 1;
origin = "{1, 8}";
target = "{1, 2}";
type = Stem;
},
{
origin = "{1, 11}";
target = "{1, 5}";
type = Stem;
},
{
origin = "{2, 11}";
target = "{2, 5}";
type = Stem;
}
);
layerId = "58254875-FB9E-4C1D-8B15-704836B9A7CF";
paths = (
{
closed = 1;
nodes = (
"167 -14 OFFCURVE",
"55 89 OFFCURVE",
"55 278 CURVE SMOOTH",
"55 727 LINE",
"196 727 LINE",
"196 263 LINE SMOOTH",
"196 154 OFFCURVE",
"260 89 OFFCURVE",
"346 89 CURVE SMOOTH",
"431 89 OFFCURVE",
"496 154 OFFCURVE",
"496 263 CURVE SMOOTH",
"496 727 LINE",
"636 727 LINE",
"636 278 LINE SMOOTH",
"636 101 OFFCURVE",
"525 -14 OFFCURVE",
"346 -14 CURVE SMOOTH"
);
},
{
closed = 1;
nodes = (
"187 875 OFFCURVE",
"216 903 OFFCURVE",
"250 903 CURVE SMOOTH",
"285 903 OFFCURVE",
"314 875 OFFCURVE",
"314 840 CURVE SMOOTH",
"314 805 OFFCURVE",
"285 777 OFFCURVE",
"250 777 CURVE SMOOTH",
"216 777 OFFCURVE",
"187 805 OFFCURVE",
"187 840 CURVE SMOOTH {name = hr01;}"
);
},
{
closed = 1;
nodes = (
"382 875 OFFCURVE",
"411 903 OFFCURVE",
"445 903 CURVE SMOOTH",
"480 903 OFFCURVE",
"509 875 OFFCURVE",
"509 840 CURVE SMOOTH",
"509 805 OFFCURVE",
"480 777 OFFCURVE",
"445 777 CURVE SMOOTH",
"411 777 OFFCURVE",
"382 805 OFFCURVE",
"382 840 CURVE SMOOTH"
);
}
);
width = 694;
},
{
hints = (
{
horizontal = 1;
origin = "{0, 17}";
target = "{0, 8}";
type = Stem;
},
{
horizontal = 1;
origin = "{0, 3}";
target = down;
type = TopGhost;
},
{
horizontal = 1;
origin = "{1, 8}";
target = "{1, 2}";
type = Stem;
}
);
layerId = "5E1C92F4-866D-4CC0-BA00-538F5374015A";
paths = (
{
closed = 1;
nodes = (
"165 -14 OFFCURVE",
"65 89 OFFCURVE",
"89 278 CURVE SMOOTH",
"144 727 LINE",
"285 727 LINE",
"228 263 LINE SMOOTH",
"214 154 OFFCURVE",
"270 89 OFFCURVE",
"356 89 CURVE SMOOTH",
"441 89 OFFCURVE",
"514 154 OFFCURVE",
"528 263 CURVE SMOOTH",
"585 727 LINE",
"725 727 LINE",
"670 278 LINE SMOOTH",
"648 101 OFFCURVE",
"523 -14 OFFCURVE",
"344 -14 CURVE SMOOTH {name = hr00;}"
);
},
{
closed = 1;
nodes = (
"294 875 OFFCURVE",
"326 903 OFFCURVE",
"360 903 CURVE SMOOTH",
"395 903 OFFCURVE",
"421 875 OFFCURVE",
"417 840 CURVE SMOOTH",
"412 805 OFFCURVE",
"380 777 OFFCURVE",
"345 777 CURVE SMOOTH",
"311 777 OFFCURVE",
"285 805 OFFCURVE",
"290 840 CURVE SMOOTH"
);
},
{
closed = 1;
nodes = (
"489 875 OFFCURVE",
"521 903 OFFCURVE",
"555 903 CURVE SMOOTH",
"590 903 OFFCURVE",
"616 875 OFFCURVE",
"612 840 CURVE SMOOTH",
"607 805 OFFCURVE",
"575 777 OFFCURVE",
"540 777 CURVE SMOOTH",
"506 777 OFFCURVE",
"480 805 OFFCURVE",
"485 840 CURVE SMOOTH"
);
}
);
width = 694;
}
);
unicode = 00DC;
},
